# MagicaVoxel @ Ephtracy

# group
o 

# material
mtllib Dog.mtl
usemtl palette

# normals
vn -1 0 0
vn 1 0 0
vn 0 0 1
vn 0 0 -1
vn 0 -1 0
vn 0 1 0

# texcoords
vt 0.0605469 0.5
vt 0.134766 0.5
vt 0.533203 0.5
vt 0.958984 0.5
vt 0.990234 0.5

# verts
v -1.1 -0.1 1
v -1.1 -0.1 0.5
v -1.1 0.5 1
v -1.1 0.5 0.5
v -0.9 -1.3 1
v -0.9 -1.3 0.7
v -0.9 -1.3 -0.7
v -0.9 -1.3 -1.1
v -0.9 -1 0.7
v -0.9 -1 -0.7
v -0.9 -0.1 1
v -0.9 -0.1 0.5
v -0.9 0.4 0.5
v -0.9 0.4 -1.1
v -0.8 -0.3 1.2
v -0.8 -0.3 1
v -0.8 -0.1 1
v -0.8 0.3 1.2
v -0.8 0.3 1
v -0.6 -0.8 1.2
v -0.6 -0.8 1
v -0.6 -0.3 1.2
v -0.6 -0.3 1
v -0.4 -0.8 -1.1
v -0.4 -0.8 -1.2
v -0.4 -0.3 -1.1
v -0.4 -0.3 -1.2
v -0.2 -1 1.2
v -0.2 -1 1
v -0.2 -0.8 1.2
v -0.2 -0.8 1
v -0.2 -0.3 -1.1
v -0.2 -0.3 -1.2
v -0.2 -0.1 -1.1
v -0.2 -0.1 -1.2
v 0.2 -0.8 -1.1
v 0.2 -0.8 -1.2
v 0.2 -0.6 -1.1
v 0.2 -0.6 -1.2
v 0.2 -0.3 1.2
v 0.2 -0.3 1
v 0.2 0.3 1.2
v 0.2 0.3 1
v 0.6 -1.3 1
v 0.6 -1.3 0.7
v 0.6 -1.3 -0.7
v 0.6 -1.3 -1.1
v 0.6 -1 1
v 0.6 -1 0.7
v 0.6 -1 -0.7
v 0.6 -1 -1.1
v 0.8 0.4 1
v 0.8 0.4 0.5
v 0.8 0.5 1
v 0.8 0.5 0.5
v -0.8 0.4 1
v -0.8 0.4 0.5
v -0.8 0.5 1
v -0.8 0.5 0.5
v -0.6 -1.3 1
v -0.6 -1.3 0.7
v -0.6 -1.3 -0.7
v -0.6 -1.3 -1.1
v -0.6 -1 1
v -0.6 -1 0.7
v -0.6 -1 -0.7
v -0.6 -1 -1.1
v -0.2 -0.8 -1.1
v -0.2 -0.8 -1.2
v -0.2 -0.6 -1.1
v -0.2 -0.6 -1.2
v -0.2 -0.3 1.2
v -0.2 -0.3 1
v -0.2 0.3 1.2
v -0.2 0.3 1
v 0.2 -1 1.2
v 0.2 -1 1
v 0.2 -0.8 1.2
v 0.2 -0.8 1
v 0.2 -0.3 -1.1
v 0.2 -0.3 -1.2
v 0.2 -0.1 -1.1
v 0.2 -0.1 -1.2
v 0.4 -0.8 -1.1
v 0.4 -0.8 -1.2
v 0.4 -0.3 -1.1
v 0.4 -0.3 -1.2
v 0.6 -0.8 1.2
v 0.6 -0.8 1
v 0.6 -0.3 1.2
v 0.6 -0.3 1
v 0.8 -0.3 1.2
v 0.8 -0.3 1
v 0.8 -0.1 1
v 0.8 0.3 1.2
v 0.8 0.3 1
v 0.9 -1.3 1
v 0.9 -1.3 0.7
v 0.9 -1.3 -0.7
v 0.9 -1.3 -1.1
v 0.9 -1 0.7
v 0.9 -1 -0.7
v 0.9 -0.1 1
v 0.9 -0.1 0.5
v 0.9 0.4 0.5
v 0.9 0.4 -1.1
v 1.1 -0.1 1
v 1.1 -0.1 0.5
v 1.1 0.5 1
v 1.1 0.5 0.5
v -0.8 -0.3 1.2
v -0.8 0.3 1.2
v -0.6 -0.8 1.2
v -0.6 -0.3 1.2
v -0.6 0.0999999 1.2
v -0.4 -0.3 1.2
v -0.4 0.0999999 1.2
v -0.2 -1 1.2
v -0.2 -0.8 1.2
v -0.2 -0.6 1.2
v -0.2 -0.4 1.2
v -0.2 -0.3 1.2
v -0.2 0.3 1.2
v 0.2 -1 1.2
v 0.2 -0.8 1.2
v 0.2 -0.6 1.2
v 0.2 -0.4 1.2
v 0.2 -0.3 1.2
v 0.2 0.3 1.2
v 0.4 -0.3 1.2
v 0.4 0.0999999 1.2
v 0.6 -0.8 1.2
v 0.6 -0.3 1.2
v 0.6 0.0999999 1.2
v 0.8 -0.3 1.2
v 0.8 0.3 1.2
v -1.1 -0.1 1
v -1.1 0.5 1
v -0.9 -1.3 1
v -0.9 -0.1 1
v -0.8 -0.3 1
v -0.8 -0.1 1
v -0.8 0.3 1
v -0.8 0.4 1
v -0.8 0.5 1
v -0.6 -1.3 1
v -0.6 -1 1
v -0.6 -0.8 1
v -0.6 -0.3 1
v -0.2 -1 1
v -0.2 -0.8 1
v -0.2 -0.3 1
v -0.2 0.3 1
v 0.2 -1 1
v 0.2 -0.8 1
v 0.2 -0.3 1
v 0.2 0.3 1
v 0.6 -1.3 1
v 0.6 -1 1
v 0.6 -0.8 1
v 0.6 -0.3 1
v 0.8 -0.3 1
v 0.8 -0.1 1
v 0.8 0.3 1
v 0.8 0.4 1
v 0.8 0.5 1
v 0.9 -1.3 1
v 0.9 -0.1 1
v 1.1 -0.1 1
v 1.1 0.5 1
v -0.9 -1.3 -0.7
v -0.9 -1 -0.7
v -0.6 -1.3 -0.7
v -0.6 -1 -0.7
v 0.6 -1.3 -0.7
v 0.6 -1 -0.7
v 0.9 -1.3 -0.7
v 0.9 -1 -0.7
v -0.9 -1.3 0.7
v -0.9 -1 0.7
v -0.6 -1.3 0.7
v -0.6 -1 0.7
v 0.6 -1.3 0.7
v 0.6 -1 0.7
v 0.9 -1.3 0.7
v 0.9 -1 0.7
v -1.1 -0.1 0.5
v -1.1 0.5 0.5
v -0.9 -0.1 0.5
v -0.9 0.4 0.5
v -0.8 0.4 0.5
v -0.8 0.5 0.5
v 0.8 0.4 0.5
v 0.8 0.5 0.5
v 0.9 -0.1 0.5
v 0.9 0.4 0.5
v 1.1 -0.1 0.5
v 1.1 0.5 0.5
v -0.9 -1.3 -1.1
v -0.9 0.4 -1.1
v -0.6 -1.3 -1.1
v -0.6 -1 -1.1
v -0.4 -0.8 -1.1
v -0.4 -0.3 -1.1
v -0.2 -0.8 -1.1
v -0.2 -0.6 -1.1
v -0.2 -0.3 -1.1
v -0.2 -0.1 -1.1
v 0.2 -0.8 -1.1
v 0.2 -0.6 -1.1
v 0.2 -0.3 -1.1
v 0.2 -0.1 -1.1
v 0.4 -0.8 -1.1
v 0.4 -0.3 -1.1
v 0.6 -1.3 -1.1
v 0.6 -1 -1.1
v 0.9 -1.3 -1.1
v 0.9 0.4 -1.1
v -0.4 -0.8 -1.2
v -0.4 -0.3 -1.2
v -0.2 -0.8 -1.2
v -0.2 -0.6 -1.2
v -0.2 -0.3 -1.2
v -0.2 -0.1 -1.2
v 0.2 -0.8 -1.2
v 0.2 -0.6 -1.2
v 0.2 -0.3 -1.2
v 0.2 -0.1 -1.2
v 0.4 -0.8 -1.2
v 0.4 -0.3 -1.2
v -0.9 -1.3 1
v -0.6 -1.3 1
v 0.6 -1.3 1
v 0.9 -1.3 1
v -0.9 -1.3 0.7
v -0.6 -1.3 0.7
v 0.6 -1.3 0.7
v 0.9 -1.3 0.7
v -0.9 -1.3 -0.7
v -0.6 -1.3 -0.7
v 0.6 -1.3 -0.7
v 0.9 -1.3 -0.7
v -0.9 -1.3 -1.1
v -0.6 -1.3 -1.1
v 0.6 -1.3 -1.1
v 0.9 -1.3 -1.1
v -0.2 -1 1.2
v 0.2 -1 1.2
v -0.6 -1 1
v -0.2 -1 1
v 0.2 -1 1
v 0.6 -1 1
v -0.9 -1 0.7
v -0.6 -1 0.7
v 0.6 -1 0.7
v 0.9 -1 0.7
v -0.9 -1 -0.7
v -0.6 -1 -0.7
v 0.6 -1 -0.7
v 0.9 -1 -0.7
v -0.6 -1 -1.1
v 0.6 -1 -1.1
v -0.6 -0.8 1.2
v -0.2 -0.8 1.2
v 0.2 -0.8 1.2
v 0.6 -0.8 1.2
v -0.6 -0.8 1
v -0.2 -0.8 1
v 0.2 -0.8 1
v 0.6 -0.8 1
v -0.4 -0.8 -1.1
v -0.2 -0.8 -1.1
v 0.2 -0.8 -1.1
v 0.4 -0.8 -1.1
v -0.4 -0.8 -1.2
v -0.2 -0.8 -1.2
v 0.2 -0.8 -1.2
v 0.4 -0.8 -1.2
v -0.2 -0.6 -1.1
v 0.2 -0.6 -1.1
v -0.2 -0.6 -1.2
v 0.2 -0.6 -1.2
v -0.8 -0.3 1.2
v -0.6 -0.3 1.2
v 0.6 -0.3 1.2
v 0.8 -0.3 1.2
v -0.8 -0.3 1
v -0.6 -0.3 1
v 0.6 -0.3 1
v 0.8 -0.3 1
v -1.1 -0.1 1
v -0.9 -0.1 1
v 0.9 -0.1 1
v 1.1 -0.1 1
v -1.1 -0.1 0.5
v -0.9 -0.1 0.5
v 0.9 -0.1 0.5
v 1.1 -0.1 0.5
v -0.2 -0.3 1.2
v 0.2 -0.3 1.2
v -0.2 -0.3 1
v 0.2 -0.3 1
v -0.4 -0.3 -1.1
v -0.2 -0.3 -1.1
v 0.2 -0.3 -1.1
v 0.4 -0.3 -1.1
v -0.4 -0.3 -1.2
v -0.2 -0.3 -1.2
v 0.2 -0.3 -1.2
v 0.4 -0.3 -1.2
v -0.2 -0.1 -1.1
v 0.2 -0.1 -1.1
v -0.2 -0.1 -1.2
v 0.2 -0.1 -1.2
v -0.8 0.3 1.2
v -0.2 0.3 1.2
v 0.2 0.3 1.2
v 0.8 0.3 1.2
v -0.8 0.3 1
v -0.2 0.3 1
v 0.2 0.3 1
v 0.8 0.3 1
v -0.8 0.4 1
v 0.8 0.4 1
v -0.9 0.4 0.5
v -0.8 0.4 0.5
v 0.8 0.4 0.5
v 0.9 0.4 0.5
v -0.9 0.4 -1.1
v 0.9 0.4 -1.1
v -1.1 0.5 1
v -0.8 0.5 1
v 0.8 0.5 1
v 1.1 0.5 1
v -1.1 0.5 0.5
v -0.8 0.5 0.5
v 0.8 0.5 0.5
v 1.1 0.5 0.5

# faces
f 3/3/1 2/3/1 1/3/1
f 4/3/1 2/3/1 3/3/1
f 9/1/1 6/1/1 5/1/1
f 10/1/1 8/1/1 7/1/1
f 11/1/1 9/1/1 5/1/1
f 11/1/1 10/1/1 9/1/1
f 12/1/1 10/1/1 11/1/1
f 13/1/1 10/1/1 12/1/1
f 14/1/1 8/1/1 10/1/1
f 14/1/1 10/1/1 13/1/1
f 17/4/1 16/4/1 15/4/1
f 18/4/1 17/4/1 15/4/1
f 19/4/1 17/4/1 18/4/1
f 22/3/1 21/3/1 20/3/1
f 23/3/1 21/3/1 22/3/1
f 26/3/1 25/3/1 24/3/1
f 27/3/1 25/3/1 26/3/1
f 30/2/1 29/2/1 28/2/1
f 31/2/1 29/2/1 30/2/1
f 34/3/1 33/3/1 32/3/1
f 35/3/1 33/3/1 34/3/1
f 38/3/1 37/3/1 36/3/1
f 39/3/1 37/3/1 38/3/1
f 42/4/1 41/4/1 40/4/1
f 43/4/1 41/4/1 42/4/1
f 48/1/1 45/1/1 44/1/1
f 49/1/1 45/1/1 48/1/1
f 50/1/1 47/1/1 46/1/1
f 51/1/1 47/1/1 50/1/1
f 54/3/1 53/3/1 52/3/1
f 55/3/1 53/3/1 54/3/1
f 56/3/2 57/3/2 58/3/2
f 58/3/2 57/3/2 59/3/2
f 60/1/2 61/1/2 64/1/2
f 64/1/2 61/1/2 65/1/2
f 62/1/2 63/1/2 66/1/2
f 66/1/2 63/1/2 67/1/2
f 68/3/2 69/3/2 70/3/2
f 70/3/2 69/3/2 71/3/2
f 72/4/2 73/4/2 74/4/2
f 74/4/2 73/4/2 75/4/2
f 76/2/2 77/2/2 78/2/2
f 78/2/2 77/2/2 79/2/2
f 80/3/2 81/3/2 82/3/2
f 82/3/2 81/3/2 83/3/2
f 84/3/2 85/3/2 86/3/2
f 86/3/2 85/3/2 87/3/2
f 88/3/2 89/3/2 90/3/2
f 90/3/2 89/3/2 91/3/2
f 92/4/2 93/4/2 94/4/2
f 92/4/2 94/4/2 95/4/2
f 95/4/2 94/4/2 96/4/2
f 97/1/2 98/1/2 101/1/2
f 99/1/2 100/1/2 102/1/2
f 97/1/2 101/1/2 103/1/2
f 101/1/2 102/1/2 103/1/2
f 103/1/2 102/1/2 104/1/2
f 104/1/2 102/1/2 105/1/2
f 102/1/2 100/1/2 106/1/2
f 105/1/2 102/1/2 106/1/2
f 107/3/2 108/3/2 109/3/2
f 109/3/2 108/3/2 110/3/2
f 114/4/3 112/4/3 111/4/3
f 115/4/3 112/4/3 114/4/3
f 116/3/3 114/3/3 113/3/3
f 116/5/3 115/5/3 114/5/3
f 117/4/3 112/4/3 115/4/3
f 117/5/3 115/5/3 116/5/3
f 119/3/3 116/3/3 113/3/3
f 120/3/3 116/3/3 119/3/3
f 121/3/3 116/3/3 120/3/3
f 122/4/3 117/4/3 116/4/3
f 122/3/3 116/3/3 121/3/3
f 123/4/3 112/4/3 117/4/3
f 123/4/3 117/4/3 122/4/3
f 124/2/3 119/2/3 118/2/3
f 124/2/3 120/2/3 119/2/3
f 125/2/3 120/2/3 124/2/3
f 126/3/3 121/3/3 120/3/3
f 126/2/3 120/2/3 125/2/3
f 127/5/3 122/5/3 121/5/3
f 127/3/3 121/3/3 126/3/3
f 128/5/3 122/5/3 127/5/3
f 130/3/3 126/3/3 125/3/3
f 130/4/3 129/4/3 128/4/3
f 130/3/3 128/3/3 127/3/3
f 130/3/3 127/3/3 126/3/3
f 131/4/3 129/4/3 130/4/3
f 132/3/3 130/3/3 125/3/3
f 133/5/3 131/5/3 130/5/3
f 133/3/3 130/3/3 132/3/3
f 134/4/3 129/4/3 131/4/3
f 134/5/3 131/5/3 133/5/3
f 135/4/3 134/4/3 133/4/3
f 136/4/3 129/4/3 134/4/3
f 136/4/3 134/4/3 135/4/3
f 140/3/3 138/3/3 137/3/3
f 141/1/3 140/1/3 139/1/3
f 142/3/3 138/3/3 140/3/3
f 142/1/3 140/1/3 141/1/3
f 143/3/3 138/3/3 142/3/3
f 144/3/3 138/3/3 143/3/3
f 145/3/3 138/3/3 144/3/3
f 146/1/3 141/1/3 139/1/3
f 147/1/3 141/1/3 146/1/3
f 148/1/3 141/1/3 147/1/3
f 149/1/3 141/1/3 148/1/3
f 150/1/3 148/1/3 147/1/3
f 151/1/3 148/1/3 150/1/3
f 153/1/3 144/1/3 143/1/3
f 156/1/3 153/1/3 152/1/3
f 157/1/3 144/1/3 153/1/3
f 157/1/3 153/1/3 156/1/3
f 159/1/3 155/1/3 154/1/3
f 160/1/3 155/1/3 159/1/3
f 162/1/3 159/1/3 158/1/3
f 162/1/3 161/1/3 160/1/3
f 162/1/3 160/1/3 159/1/3
f 164/1/3 144/1/3 157/1/3
f 165/1/3 144/1/3 164/1/3
f 167/1/3 163/1/3 162/1/3
f 167/1/3 162/1/3 158/1/3
f 168/3/3 166/3/3 165/3/3
f 168/1/3 163/1/3 167/1/3
f 168/3/3 165/3/3 164/3/3
f 168/3/3 164/3/3 163/3/3
f 169/3/3 166/3/3 168/3/3
f 170/3/3 166/3/3 169/3/3
f 173/1/3 172/1/3 171/1/3
f 174/1/3 172/1/3 173/1/3
f 177/1/3 176/1/3 175/1/3
f 178/1/3 176/1/3 177/1/3
f 179/1/4 180/1/4 181/1/4
f 181/1/4 180/1/4 182/1/4
f 183/1/4 184/1/4 185/1/4
f 185/1/4 184/1/4 186/1/4
f 187/3/4 188/3/4 189/3/4
f 189/3/4 188/3/4 190/3/4
f 190/3/4 188/3/4 191/3/4
f 191/3/4 188/3/4 192/3/4
f 193/3/4 194/3/4 196/3/4
f 195/3/4 196/3/4 197/3/4
f 196/3/4 194/3/4 198/3/4
f 197/3/4 196/3/4 198/3/4
f 199/1/4 200/1/4 201/1/4
f 201/1/4 200/1/4 202/1/4
f 202/1/4 200/1/4 203/1/4
f 203/1/4 200/1/4 204/1/4
f 202/1/4 203/1/4 205/1/4
f 204/1/4 200/1/4 207/1/4
f 207/1/4 200/1/4 208/1/4
f 205/1/4 206/1/4 209/1/4
f 202/1/4 205/1/4 209/1/4
f 209/1/4 206/1/4 210/1/4
f 208/1/4 200/1/4 212/1/4
f 202/1/4 209/1/4 213/1/4
f 211/1/4 212/1/4 214/1/4
f 202/1/4 213/1/4 216/1/4
f 213/1/4 214/1/4 216/1/4
f 215/1/4 216/1/4 217/1/4
f 214/1/4 212/1/4 218/1/4
f 217/1/4 216/1/4 218/1/4
f 212/1/4 200/1/4 218/1/4
f 216/1/4 214/1/4 218/1/4
f 219/3/4 220/3/4 221/3/4
f 221/3/4 220/3/4 222/3/4
f 222/3/4 220/3/4 223/3/4
f 223/3/4 224/3/4 226/3/4
f 222/3/4 223/3/4 226/3/4
f 226/3/4 224/3/4 227/3/4
f 227/3/4 224/3/4 228/3/4
f 225/3/4 226/3/4 229/3/4
f 226/3/4 227/3/4 229/3/4
f 229/3/4 227/3/4 230/3/4
f 235/1/5 232/1/5 231/1/5
f 236/1/5 232/1/5 235/1/5
f 237/1/5 234/1/5 233/1/5
f 238/1/5 234/1/5 237/1/5
f 243/1/5 240/1/5 239/1/5
f 244/1/5 240/1/5 243/1/5
f 245/1/5 242/1/5 241/1/5
f 246/1/5 242/1/5 245/1/5
f 250/2/5 248/2/5 247/2/5
f 251/2/5 248/2/5 250/2/5
f 254/1/5 250/1/5 249/1/5
f 254/1/5 252/1/5 251/1/5
f 254/1/5 251/1/5 250/1/5
f 255/1/5 252/1/5 254/1/5
f 257/1/5 254/1/5 253/1/5
f 257/1/5 256/1/5 255/1/5
f 257/1/5 255/1/5 254/1/5
f 258/1/5 256/1/5 257/1/5
f 259/1/5 256/1/5 258/1/5
f 260/1/5 256/1/5 259/1/5
f 261/1/5 259/1/5 258/1/5
f 262/1/5 259/1/5 261/1/5
f 267/3/5 264/3/5 263/3/5
f 268/3/5 264/3/5 267/3/5
f 269/3/5 266/3/5 265/3/5
f 270/3/5 266/3/5 269/3/5
f 275/3/5 272/3/5 271/3/5
f 276/3/5 272/3/5 275/3/5
f 277/3/5 274/3/5 273/3/5
f 278/3/5 274/3/5 277/3/5
f 281/3/5 280/3/5 279/3/5
f 282/3/5 280/3/5 281/3/5
f 287/4/5 284/4/5 283/4/5
f 288/4/5 284/4/5 287/4/5
f 289/4/5 286/4/5 285/4/5
f 290/4/5 286/4/5 289/4/5
f 295/3/5 292/3/5 291/3/5
f 296/3/5 292/3/5 295/3/5
f 297/3/5 294/3/5 293/3/5
f 298/3/5 294/3/5 297/3/5
f 299/5/6 300/5/6 301/5/6
f 301/5/6 300/5/6 302/5/6
f 303/3/6 304/3/6 307/3/6
f 307/3/6 304/3/6 308/3/6
f 305/3/6 306/3/6 309/3/6
f 309/3/6 306/3/6 310/3/6
f 311/3/6 312/3/6 313/3/6
f 313/3/6 312/3/6 314/3/6
f 315/4/6 316/4/6 319/4/6
f 319/4/6 316/4/6 320/4/6
f 317/4/6 318/4/6 321/4/6
f 321/4/6 318/4/6 322/4/6
f 323/1/6 324/1/6 326/1/6
f 326/1/6 324/1/6 327/1/6
f 325/1/6 326/1/6 329/1/6
f 327/1/6 328/1/6 329/1/6
f 326/1/6 327/1/6 329/1/6
f 329/1/6 328/1/6 330/1/6
f 331/3/6 332/3/6 335/3/6
f 335/3/6 332/3/6 336/3/6
f 333/3/6 334/3/6 337/3/6
f 337/3/6 334/3/6 338/3/6
