# MagicaVoxel @ Ephtracy

# group
o 

# material
mtllib Guard.mtl
usemtl palette

# normals
vn -1 0 0
vn 1 0 0
vn 0 0 1
vn 0 0 -1
vn 0 -1 0
vn 0 1 0

# texcoords
vt 0.0605469 0.5
vt 0.369141 0.5
vt 0.373047 0.5
vt 0.396484 0.5
vt 0.537109 0.5
vt 0.958984 0.5
vt 0.966797 0.5
vt 0.974609 0.5
vt 0.982422 0.5
vt 0.994141 0.5

# verts
v -1 -0.8 0.2
v -1 -0.8 -0.2
v -1 -0.6 0.2
v -1 -0.6 -0.2
v -1 -1.19209e-07 0.2
v -1 -1.19209e-07 -0.2
v -0.8 0.8 0.7
v -0.8 0.8 -0.7
v -0.8 1 0.7
v -0.8 1 -0.7
v -0.7 1 0.6
v -0.7 1 -0.6
v -0.7 1.1 0.6
v -0.7 1.1 -0.6
v -0.6 -1.3 0.3
v -0.6 -1.3 -0.3
v -0.6 -1.1 0.3
v -0.6 -1.1 -0.3
v -0.6 -0.9 0.5
v -0.6 -0.9 0.3
v -0.6 -0.9 -0.3
v -0.6 -0.9 -0.5
v -0.6 -0.8 0.2
v -0.6 -0.8 -0.2
v -0.6 -0.7 0.5
v -0.6 -0.7 0.2
v -0.6 -0.7 -0.2
v -0.6 -0.7 -0.5
v -0.6 -0.6 0.5
v -0.6 -0.6 0.2
v -0.6 -0.6 -0.2
v -0.6 -0.6 -0.5
v -0.6 -1.19209e-07 0.5
v -0.6 -1.19209e-07 0.2
v -0.6 -1.19209e-07 -0.2
v -0.6 -1.19209e-07 -0.5
v -0.6 0.0999999 0.6
v -0.6 0.0999999 0.4
v -0.6 0.0999999 -0.6
v -0.6 0.3 0.6
v -0.6 0.3 0.4
v -0.6 0.4 -0.5
v -0.6 0.4 -0.6
v -0.6 0.5 -0.2
v -0.6 0.5 -0.5
v -0.6 0.6 0.1
v -0.6 0.6 -0.2
v -0.6 0.8 0.6
v -0.6 0.8 0.1
v -0.6 0.8 -0.6
v -0.4 -1.19209e-07 0.4
v -0.4 -1.19209e-07 -0.4
v -0.4 0.0999999 0.4
v -0.4 0.0999999 -0.4
v -0.1 0.3 0.7
v -0.1 0.3 0.6
v -0.1 0.4 0.7
v -0.1 0.4 0.6
v 0.1 -1.3 0.3
v 0.1 -1.3 -0.3
v 0.1 -1.1 0.3
v 0.1 -1.1 -0.3
v 0.1 -0.9 0.3
v 0.1 -0.9 -0.3
v -0.1 -1.3 0.3
v -0.1 -1.3 -0.3
v -0.1 -1.1 0.3
v -0.1 -1.1 -0.3
v -0.1 -0.9 0.3
v -0.1 -0.9 -0.3
v 0.1 0.3 0.7
v 0.1 0.3 0.6
v 0.1 0.4 0.7
v 0.1 0.4 0.6
v 0.4 -1.19209e-07 0.4
v 0.4 -1.19209e-07 -0.4
v 0.4 0.0999999 0.4
v 0.4 0.0999999 -0.4
v 0.6 -1.3 0.3
v 0.6 -1.3 -0.3
v 0.6 -1.1 0.3
v 0.6 -1.1 -0.3
v 0.6 -0.9 0.5
v 0.6 -0.9 0.3
v 0.6 -0.9 -0.3
v 0.6 -0.9 -0.5
v 0.6 -0.8 0.2
v 0.6 -0.8 -0.2
v 0.6 -0.7 0.5
v 0.6 -0.7 0.2
v 0.6 -0.7 -0.2
v 0.6 -0.7 -0.5
v 0.6 -0.6 0.5
v 0.6 -0.6 0.2
v 0.6 -0.6 -0.2
v 0.6 -0.6 -0.5
v 0.6 -1.19209e-07 0.5
v 0.6 -1.19209e-07 0.2
v 0.6 -1.19209e-07 -0.2
v 0.6 -1.19209e-07 -0.5
v 0.6 0.0999999 0.6
v 0.6 0.0999999 0.4
v 0.6 0.0999999 -0.6
v 0.6 0.3 0.6
v 0.6 0.3 0.4
v 0.6 0.4 -0.5
v 0.6 0.4 -0.6
v 0.6 0.5 -0.2
v 0.6 0.5 -0.5
v 0.6 0.6 0.1
v 0.6 0.6 -0.2
v 0.6 0.8 0.6
v 0.6 0.8 0.1
v 0.6 0.8 -0.6
v 0.7 1 0.6
v 0.7 1 -0.6
v 0.7 1.1 0.6
v 0.7 1.1 -0.6
v 0.8 0.8 0.7
v 0.8 0.8 -0.7
v 0.8 1 0.7
v 0.8 1 -0.7
v 1 -0.8 0.2
v 1 -0.8 -0.2
v 1 -0.6 0.2
v 1 -0.6 -0.2
v 1 -1.19209e-07 0.2
v 1 -1.19209e-07 -0.2
v -0.8 0.8 0.7
v -0.8 1 0.7
v -0.2 0.8 0.7
v -0.2 1 0.7
v -0.1 0.3 0.7
v -0.1 0.4 0.7
v -0.1 0.8 0.7
v -0.1 1 0.7
v 0.1 0.3 0.7
v 0.1 0.4 0.7
v 0.1 0.8 0.7
v 0.1 1 0.7
v 0.2 0.8 0.7
v 0.2 1 0.7
v 0.8 0.8 0.7
v 0.8 1 0.7
v -0.7 1 0.6
v -0.7 1.1 0.6
v -0.6 0.0999999 0.6
v -0.6 0.3 0.6
v -0.6 0.8 0.6
v -0.5 0.4 0.6
v -0.5 0.7 0.6
v -0.4 1 0.6
v -0.4 1.1 0.6
v -0.3 0.4 0.6
v -0.3 0.6 0.6
v -0.3 1 0.6
v -0.3 1.1 0.6
v -0.2 0.2 0.6
v -0.2 0.3 0.6
v -0.2 0.8 0.6
v -0.2 1 0.6
v -0.2 1.1 0.6
v -0.1 0.3 0.6
v -0.1 0.4 0.6
v -0.1 0.6 0.6
v -0.1 0.7 0.6
v -0.1 0.8 0.6
v -0.1 1 0.6
v -0.1 1.1 0.6
v 0.1 0.3 0.6
v 0.1 0.4 0.6
v 0.1 0.6 0.6
v 0.1 0.7 0.6
v 0.1 0.8 0.6
v 0.1 1 0.6
v 0.1 1.1 0.6
v 0.2 0.2 0.6
v 0.2 0.3 0.6
v 0.2 0.8 0.6
v 0.2 1 0.6
v 0.2 1.1 0.6
v 0.3 0.4 0.6
v 0.3 0.6 0.6
v 0.3 1 0.6
v 0.3 1.1 0.6
v 0.4 1 0.6
v 0.4 1.1 0.6
v 0.5 0.4 0.6
v 0.5 0.7 0.6
v 0.6 0.0999999 0.6
v 0.6 0.3 0.6
v 0.6 0.8 0.6
v 0.7 1 0.6
v 0.7 1.1 0.6
v -0.6 -0.9 0.5
v -0.6 -0.7 0.5
v -0.6 -0.6 0.5
v -0.6 -1.19209e-07 0.5
v -0.2 -0.8 0.5
v -0.2 -0.7 0.5
v -0.2 -0.6 0.5
v -0.2 -0.5 0.5
v -0.1 -0.7 0.5
v -0.1 -0.6 0.5
v 0.1 -0.7 0.5
v 0.1 -0.6 0.5
v 0.2 -0.8 0.5
v 0.2 -0.7 0.5
v 0.2 -0.6 0.5
v 0.2 -0.5 0.5
v 0.2 -0.3 0.5
v 0.2 -0.2 0.5
v 0.3 -0.4 0.5
v 0.3 -0.3 0.5
v 0.3 -0.2 0.5
v 0.4 -0.4 0.5
v 0.4 -0.3 0.5
v 0.4 -0.2 0.5
v 0.5 -0.3 0.5
v 0.5 -0.2 0.5
v 0.6 -0.9 0.5
v 0.6 -0.7 0.5
v 0.6 -0.6 0.5
v 0.6 -1.19209e-07 0.5
v -0.4 -1.19209e-07 0.4
v -0.4 0.0999999 0.4
v 0.4 -1.19209e-07 0.4
v 0.4 0.0999999 0.4
v -0.6 -1.3 0.3
v -0.6 -1.1 0.3
v -0.6 -0.9 0.3
v -0.1 -1.3 0.3
v -0.1 -1.1 0.3
v -0.1 -0.9 0.3
v 0.1 -1.3 0.3
v 0.1 -1.1 0.3
v 0.1 -0.9 0.3
v 0.6 -1.3 0.3
v 0.6 -1.1 0.3
v 0.6 -0.9 0.3
v -1 -0.8 0.2
v -1 -0.6 0.2
v -1 -1.19209e-07 0.2
v -0.6 -0.8 0.2
v -0.6 -0.7 0.2
v -0.6 -0.6 0.2
v -0.6 -1.19209e-07 0.2
v 0.6 -0.8 0.2
v 0.6 -0.7 0.2
v 0.6 -0.6 0.2
v 0.6 -1.19209e-07 0.2
v 1 -0.8 0.2
v 1 -0.6 0.2
v 1 -1.19209e-07 0.2
v -1 -0.8 -0.2
v -1 -0.6 -0.2
v -1 -1.19209e-07 -0.2
v -0.6 -0.8 -0.2
v -0.6 -0.7 -0.2
v -0.6 -0.6 -0.2
v -0.6 -1.19209e-07 -0.2
v 0.6 -0.8 -0.2
v 0.6 -0.7 -0.2
v 0.6 -0.6 -0.2
v 0.6 -1.19209e-07 -0.2
v 1 -0.8 -0.2
v 1 -0.6 -0.2
v 1 -1.19209e-07 -0.2
v -0.6 -1.3 -0.3
v -0.6 -1.1 -0.3
v -0.6 -0.9 -0.3
v -0.1 -1.3 -0.3
v -0.1 -1.1 -0.3
v -0.1 -0.9 -0.3
v 0.1 -1.3 -0.3
v 0.1 -1.1 -0.3
v 0.1 -0.9 -0.3
v 0.6 -1.3 -0.3
v 0.6 -1.1 -0.3
v 0.6 -0.9 -0.3
v -0.4 -1.19209e-07 -0.4
v -0.4 0.0999999 -0.4
v 0.4 -1.19209e-07 -0.4
v 0.4 0.0999999 -0.4
v -0.6 -0.9 -0.5
v -0.6 -0.7 -0.5
v -0.6 -0.6 -0.5
v -0.6 -1.19209e-07 -0.5
v 0.6 -0.9 -0.5
v 0.6 -0.7 -0.5
v 0.6 -0.6 -0.5
v 0.6 -1.19209e-07 -0.5
v -0.7 1 -0.6
v -0.7 1.1 -0.6
v -0.6 0.0999999 -0.6
v -0.6 0.4 -0.6
v -0.6 0.8 -0.6
v 0.6 0.0999999 -0.6
v 0.6 0.4 -0.6
v 0.6 0.8 -0.6
v 0.7 1 -0.6
v 0.7 1.1 -0.6
v -0.8 0.8 -0.7
v -0.8 1 -0.7
v 0.8 0.8 -0.7
v 0.8 1 -0.7
v -0.6 -1.3 0.3
v -0.1 -1.3 0.3
v 0.1 -1.3 0.3
v 0.6 -1.3 0.3
v -0.6 -1.3 -0.3
v -0.1 -1.3 -0.3
v 0.1 -1.3 -0.3
v 0.6 -1.3 -0.3
v -0.6 -0.9 0.5
v 0.6 -0.9 0.5
v -0.6 -0.9 0.3
v -0.1 -0.9 0.3
v 0.1 -0.9 0.3
v 0.6 -0.9 0.3
v -0.6 -0.9 -0.3
v -0.1 -0.9 -0.3
v 0.1 -0.9 -0.3
v 0.6 -0.9 -0.3
v -0.6 -0.9 -0.5
v 0.6 -0.9 -0.5
v -1 -0.8 0.2
v -0.6 -0.8 0.2
v 0.6 -0.8 0.2
v 1 -0.8 0.2
v -1 -0.8 -0.2
v -0.6 -0.8 -0.2
v 0.6 -0.8 -0.2
v 1 -0.8 -0.2
v -0.6 0.0999999 0.6
v 0.6 0.0999999 0.6
v -0.6 0.0999999 0.4
v -0.4 0.0999999 0.4
v 0.4 0.0999999 0.4
v 0.6 0.0999999 0.4
v -0.4 0.0999999 -0.4
v 0.4 0.0999999 -0.4
v -0.6 0.0999999 -0.6
v 0.6 0.0999999 -0.6
v -0.1 0.3 0.7
v 0.1 0.3 0.7
v -0.1 0.3 0.6
v 0.1 0.3 0.6
v -0.8 0.8 0.7
v -0.2 0.8 0.7
v -0.1 0.8 0.7
v 0.1 0.8 0.7
v 0.2 0.8 0.7
v 0.8 0.8 0.7
v -0.6 0.8 0.6
v -0.2 0.8 0.6
v -0.1 0.8 0.6
v 0.1 0.8 0.6
v 0.2 0.8 0.6
v 0.6 0.8 0.6
v -0.6 0.8 0.1
v 0.6 0.8 0.1
v -0.6 0.8 -0.6
v 0.6 0.8 -0.6
v -0.8 0.8 -0.7
v 0.8 0.8 -0.7
v -0.6 -1.19209e-07 0.5
v 0.6 -1.19209e-07 0.5
v -0.4 -1.19209e-07 0.4
v 0.4 -1.19209e-07 0.4
v -1 -1.19209e-07 0.2
v -0.6 -1.19209e-07 0.2
v 0.6 -1.19209e-07 0.2
v 1 -1.19209e-07 0.2
v -1 -1.19209e-07 -0.2
v -0.6 -1.19209e-07 -0.2
v 0.6 -1.19209e-07 -0.2
v 1 -1.19209e-07 -0.2
v -0.4 -1.19209e-07 -0.4
v 0.4 -1.19209e-07 -0.4
v -0.6 -1.19209e-07 -0.5
v 0.6 -1.19209e-07 -0.5
v -0.1 0.4 0.7
v 0.1 0.4 0.7
v -0.1 0.4 0.6
v 0.1 0.4 0.6
v -0.8 1 0.7
v -0.2 1 0.7
v -0.1 1 0.7
v 0.1 1 0.7
v 0.2 1 0.7
v 0.8 1 0.7
v -0.7 1 0.6
v -0.4 1 0.6
v -0.3 1 0.6
v -0.2 1 0.6
v -0.1 1 0.6
v 0.1 1 0.6
v 0.2 1 0.6
v 0.3 1 0.6
v 0.4 1 0.6
v 0.7 1 0.6
v -0.7 1 -0.6
v 0.7 1 -0.6
v -0.8 1 -0.7
v 0.8 1 -0.7
v -0.7 1.1 0.6
v -0.4 1.1 0.6
v -0.3 1.1 0.6
v -0.2 1.1 0.6
v -0.1 1.1 0.6
v 0.1 1.1 0.6
v 0.2 1.1 0.6
v 0.3 1.1 0.6
v 0.4 1.1 0.6
v 0.7 1.1 0.6
v -0.4 1.1 0.4
v -0.3 1.1 0.4
v -0.2 1.1 0.4
v -0.1 1.1 0.4
v 0.1 1.1 0.4
v 0.2 1.1 0.4
v 0.3 1.1 0.4
v 0.4 1.1 0.4
v -0.7 1.1 -0.6
v 0.7 1.1 -0.6

# faces
f 3/1/1 2/1/1 1/1/1
f 4/1/1 2/1/1 3/1/1
f 5/10/1 4/10/1 3/10/1
f 6/10/1 4/10/1 5/10/1
f 9/10/1 8/10/1 7/10/1
f 10/10/1 8/10/1 9/10/1
f 13/10/1 12/10/1 11/10/1
f 14/10/1 12/10/1 13/10/1
f 17/9/1 16/9/1 15/9/1
f 18/9/1 16/9/1 17/9/1
f 20/10/1 18/10/1 17/10/1
f 21/10/1 18/10/1 20/10/1
f 23/10/1 21/10/1 20/10/1
f 23/10/1 22/10/1 21/10/1
f 23/10/1 20/10/1 19/10/1
f 24/10/1 22/10/1 23/10/1
f 25/10/1 23/10/1 19/10/1
f 26/10/1 23/10/1 25/10/1
f 27/10/1 22/10/1 24/10/1
f 28/10/1 22/10/1 27/10/1
f 29/4/1 26/4/1 25/4/1
f 30/4/1 26/4/1 29/4/1
f 31/4/1 28/4/1 27/4/1
f 32/4/1 28/4/1 31/4/1
f 33/10/1 30/10/1 29/10/1
f 34/10/1 30/10/1 33/10/1
f 35/10/1 32/10/1 31/10/1
f 36/10/1 32/10/1 35/10/1
f 40/2/1 38/2/1 37/2/1
f 41/1/1 39/1/1 38/1/1
f 41/2/1 38/2/1 40/2/1
f 42/1/1 41/1/1 40/1/1
f 42/1/1 39/1/1 41/1/1
f 43/1/1 39/1/1 42/1/1
f 44/1/1 42/1/1 40/1/1
f 45/5/1 43/5/1 42/5/1
f 45/1/1 42/1/1 44/1/1
f 46/1/1 44/1/1 40/1/1
f 47/5/1 45/5/1 44/5/1
f 47/1/1 44/1/1 46/1/1
f 48/1/1 46/1/1 40/1/1
f 49/5/1 47/5/1 46/5/1
f 49/1/1 46/1/1 48/1/1
f 50/5/1 43/5/1 45/5/1
f 50/5/1 47/5/1 49/5/1
f 50/5/1 45/5/1 47/5/1
f 53/1/1 52/1/1 51/1/1
f 54/1/1 52/1/1 53/1/1
f 57/1/1 56/1/1 55/1/1
f 58/1/1 56/1/1 57/1/1
f 61/9/1 60/9/1 59/9/1
f 62/9/1 60/9/1 61/9/1
f 63/10/1 62/10/1 61/10/1
f 64/10/1 62/10/1 63/10/1
f 65/9/2 66/9/2 67/9/2
f 67/9/2 66/9/2 68/9/2
f 67/10/2 68/10/2 69/10/2
f 69/10/2 68/10/2 70/10/2
f 71/1/2 72/1/2 73/1/2
f 73/1/2 72/1/2 74/1/2
f 75/1/2 76/1/2 77/1/2
f 77/1/2 76/1/2 78/1/2
f 79/9/2 80/9/2 81/9/2
f 81/9/2 80/9/2 82/9/2
f 81/10/2 82/10/2 84/10/2
f 84/10/2 82/10/2 85/10/2
f 84/10/2 85/10/2 87/10/2
f 85/10/2 86/10/2 87/10/2
f 83/10/2 84/10/2 87/10/2
f 87/10/2 86/10/2 88/10/2
f 83/10/2 87/10/2 89/10/2
f 89/10/2 87/10/2 90/10/2
f 88/10/2 86/10/2 91/10/2
f 91/10/2 86/10/2 92/10/2
f 89/4/2 90/4/2 93/4/2
f 93/4/2 90/4/2 94/4/2
f 91/4/2 92/4/2 95/4/2
f 95/4/2 92/4/2 96/4/2
f 93/10/2 94/10/2 97/10/2
f 97/10/2 94/10/2 98/10/2
f 95/10/2 96/10/2 99/10/2
f 99/10/2 96/10/2 100/10/2
f 101/2/2 102/2/2 104/2/2
f 102/1/2 103/1/2 105/1/2
f 104/2/2 102/2/2 105/2/2
f 104/1/2 105/1/2 106/1/2
f 105/1/2 103/1/2 106/1/2
f 106/1/2 103/1/2 107/1/2
f 104/1/2 106/1/2 108/1/2
f 106/5/2 107/5/2 109/5/2
f 108/1/2 106/1/2 109/1/2
f 104/1/2 108/1/2 110/1/2
f 108/5/2 109/5/2 111/5/2
f 110/1/2 108/1/2 111/1/2
f 104/1/2 110/1/2 112/1/2
f 110/5/2 111/5/2 113/5/2
f 112/1/2 110/1/2 113/1/2
f 109/5/2 107/5/2 114/5/2
f 113/5/2 111/5/2 114/5/2
f 111/5/2 109/5/2 114/5/2
f 115/10/2 116/10/2 117/10/2
f 117/10/2 116/10/2 118/10/2
f 119/10/2 120/10/2 121/10/2
f 121/10/2 120/10/2 122/10/2
f 123/1/2 124/1/2 125/1/2
f 125/1/2 124/1/2 126/1/2
f 125/10/2 126/10/2 127/10/2
f 127/10/2 126/10/2 128/10/2
f 131/10/3 130/10/3 129/10/3
f 132/10/3 130/10/3 131/10/3
f 135/7/3 132/7/3 131/7/3
f 136/7/3 132/7/3 135/7/3
f 137/1/3 134/1/3 133/1/3
f 138/1/3 134/1/3 137/1/3
f 139/10/3 136/10/3 135/10/3
f 140/10/3 136/10/3 139/10/3
f 141/7/3 140/7/3 139/7/3
f 142/7/3 140/7/3 141/7/3
f 143/10/3 142/10/3 141/10/3
f 144/10/3 142/10/3 143/10/3
f 150/1/3 149/1/3 148/1/3
f 151/1/3 149/1/3 150/1/3
f 152/10/3 146/10/3 145/10/3
f 153/10/3 146/10/3 152/10/3
f 154/1/3 150/1/3 148/1/3
f 154/6/3 151/6/3 150/6/3
f 155/6/3 151/6/3 154/6/3
f 156/7/3 153/7/3 152/7/3
f 157/7/3 153/7/3 156/7/3
f 158/2/3 148/2/3 147/2/3
f 159/1/3 154/1/3 148/1/3
f 159/2/3 148/2/3 158/2/3
f 160/1/3 149/1/3 151/1/3
f 161/10/3 157/10/3 156/10/3
f 162/10/3 157/10/3 161/10/3
f 163/1/3 154/1/3 159/1/3
f 163/6/3 159/6/3 158/6/3
f 164/10/3 155/10/3 154/10/3
f 164/1/3 154/1/3 163/1/3
f 165/6/3 151/6/3 155/6/3
f 165/10/3 155/10/3 164/10/3
f 166/1/3 160/1/3 151/1/3
f 166/6/3 151/6/3 165/6/3
f 167/1/3 160/1/3 166/1/3
f 168/7/3 162/7/3 161/7/3
f 169/7/3 162/7/3 168/7/3
f 170/6/3 163/6/3 158/6/3
f 171/1/3 165/1/3 164/1/3
f 171/1/3 167/1/3 166/1/3
f 171/1/3 166/1/3 165/1/3
f 172/1/3 167/1/3 171/1/3
f 173/1/3 167/1/3 172/1/3
f 174/1/3 167/1/3 173/1/3
f 175/10/3 169/10/3 168/10/3
f 176/10/3 169/10/3 175/10/3
f 177/2/3 158/2/3 147/2/3
f 177/6/3 170/6/3 158/6/3
f 178/1/3 171/1/3 170/1/3
f 178/6/3 170/6/3 177/6/3
f 179/1/3 174/1/3 173/1/3
f 180/7/3 176/7/3 175/7/3
f 181/7/3 176/7/3 180/7/3
f 182/1/3 171/1/3 178/1/3
f 182/10/3 172/10/3 171/10/3
f 183/6/3 173/6/3 172/6/3
f 183/10/3 172/10/3 182/10/3
f 184/10/3 181/10/3 180/10/3
f 185/10/3 181/10/3 184/10/3
f 186/7/3 185/7/3 184/7/3
f 187/7/3 185/7/3 186/7/3
f 188/1/3 182/1/3 178/1/3
f 188/6/3 183/6/3 182/6/3
f 189/1/3 179/1/3 173/1/3
f 189/6/3 183/6/3 188/6/3
f 189/6/3 173/6/3 183/6/3
f 190/2/3 177/2/3 147/2/3
f 190/2/3 178/2/3 177/2/3
f 191/1/3 188/1/3 178/1/3
f 191/2/3 178/2/3 190/2/3
f 191/1/3 189/1/3 188/1/3
f 192/1/3 179/1/3 189/1/3
f 192/1/3 189/1/3 191/1/3
f 193/10/3 187/10/3 186/10/3
f 194/10/3 187/10/3 193/10/3
f 199/10/3 196/10/3 195/10/3
f 200/4/3 197/4/3 196/4/3
f 200/10/3 196/10/3 199/10/3
f 201/10/3 198/10/3 197/10/3
f 201/4/3 197/4/3 200/4/3
f 202/10/3 198/10/3 201/10/3
f 203/8/3 200/8/3 199/8/3
f 203/8/3 201/8/3 200/8/3
f 203/8/3 202/8/3 201/8/3
f 204/8/3 202/8/3 203/8/3
f 205/8/3 203/8/3 199/8/3
f 205/3/3 204/3/3 203/3/3
f 206/8/3 202/8/3 204/8/3
f 206/3/3 204/3/3 205/3/3
f 207/10/3 199/10/3 195/10/3
f 207/8/3 205/8/3 199/8/3
f 207/8/3 206/8/3 205/8/3
f 208/8/3 206/8/3 207/8/3
f 209/8/3 202/8/3 206/8/3
f 209/8/3 206/8/3 208/8/3
f 210/10/3 198/10/3 202/10/3
f 210/8/3 202/8/3 209/8/3
f 211/10/3 198/10/3 210/10/3
f 212/10/3 198/10/3 211/10/3
f 213/10/3 210/10/3 209/10/3
f 213/10/3 211/10/3 210/10/3
f 214/9/3 212/9/3 211/9/3
f 214/10/3 211/10/3 213/10/3
f 215/10/3 198/10/3 212/10/3
f 215/9/3 212/9/3 214/9/3
f 216/9/3 214/9/3 213/9/3
f 216/10/3 213/10/3 209/10/3
f 217/10/3 215/10/3 214/10/3
f 217/9/3 214/9/3 216/9/3
f 218/10/3 198/10/3 215/10/3
f 218/10/3 215/10/3 217/10/3
f 219/10/3 217/10/3 216/10/3
f 219/9/3 218/9/3 217/9/3
f 220/10/3 198/10/3 218/10/3
f 220/9/3 218/9/3 219/9/3
f 221/10/3 208/10/3 207/10/3
f 221/10/3 207/10/3 195/10/3
f 222/4/3 209/4/3 208/4/3
f 222/10/3 208/10/3 221/10/3
f 223/10/3 220/10/3 219/10/3
f 223/4/3 209/4/3 222/4/3
f 223/10/3 219/10/3 216/10/3
f 223/10/3 216/10/3 209/10/3
f 224/10/3 198/10/3 220/10/3
f 224/10/3 220/10/3 223/10/3
f 227/1/3 226/1/3 225/1/3
f 228/1/3 226/1/3 227/1/3
f 232/9/3 230/9/3 229/9/3
f 233/10/3 231/10/3 230/10/3
f 233/9/3 230/9/3 232/9/3
f 234/10/3 231/10/3 233/10/3
f 238/9/3 236/9/3 235/9/3
f 239/10/3 237/10/3 236/10/3
f 239/9/3 236/9/3 238/9/3
f 240/10/3 237/10/3 239/10/3
f 244/1/3 242/1/3 241/1/3
f 245/1/3 242/1/3 244/1/3
f 246/10/3 243/10/3 242/10/3
f 246/1/3 242/1/3 245/1/3
f 247/10/3 243/10/3 246/10/3
f 252/1/3 249/1/3 248/1/3
f 252/1/3 250/1/3 249/1/3
f 253/10/3 251/10/3 250/10/3
f 253/1/3 250/1/3 252/1/3
f 254/10/3 251/10/3 253/10/3
f 255/1/4 256/1/4 258/1/4
f 258/1/4 256/1/4 259/1/4
f 256/10/4 257/10/4 260/10/4
f 259/1/4 256/1/4 260/1/4
f 260/10/4 257/10/4 261/10/4
f 262/1/4 263/1/4 266/1/4
f 263/1/4 264/1/4 266/1/4
f 264/10/4 265/10/4 267/10/4
f 266/1/4 264/1/4 267/1/4
f 267/10/4 265/10/4 268/10/4
f 269/9/4 270/9/4 272/9/4
f 270/10/4 271/10/4 273/10/4
f 272/9/4 270/9/4 273/9/4
f 273/10/4 271/10/4 274/10/4
f 275/9/4 276/9/4 278/9/4
f 276/10/4 277/10/4 279/10/4
f 278/9/4 276/9/4 279/9/4
f 279/10/4 277/10/4 280/10/4
f 281/1/4 282/1/4 283/1/4
f 283/1/4 282/1/4 284/1/4
f 285/10/4 286/10/4 289/10/4
f 286/4/4 287/4/4 290/4/4
f 289/10/4 286/10/4 290/10/4
f 287/10/4 288/10/4 291/10/4
f 290/4/4 287/4/4 291/4/4
f 291/10/4 288/10/4 292/10/4
f 295/1/4 296/1/4 298/1/4
f 296/5/4 297/5/4 299/5/4
f 298/1/4 296/1/4 299/1/4
f 299/5/4 297/5/4 300/5/4
f 293/10/4 294/10/4 301/10/4
f 301/10/4 294/10/4 302/10/4
f 303/10/4 304/10/4 305/10/4
f 305/10/4 304/10/4 306/10/4
f 311/9/5 308/9/5 307/9/5
f 312/9/5 308/9/5 311/9/5
f 313/9/5 310/9/5 309/9/5
f 314/9/5 310/9/5 313/9/5
f 317/10/5 316/10/5 315/10/5
f 318/10/5 316/10/5 317/10/5
f 319/10/5 316/10/5 318/10/5
f 320/10/5 316/10/5 319/10/5
f 322/10/5 319/10/5 318/10/5
f 323/10/5 319/10/5 322/10/5
f 325/10/5 322/10/5 321/10/5
f 325/10/5 324/10/5 323/10/5
f 325/10/5 323/10/5 322/10/5
f 326/10/5 324/10/5 325/10/5
f 331/1/5 328/1/5 327/1/5
f 332/1/5 328/1/5 331/1/5
f 333/1/5 330/1/5 329/1/5
f 334/1/5 330/1/5 333/1/5
f 337/2/5 336/2/5 335/2/5
f 338/2/5 336/2/5 337/2/5
f 339/2/5 336/2/5 338/2/5
f 340/2/5 336/2/5 339/2/5
f 341/1/5 338/1/5 337/1/5
f 342/1/5 340/1/5 339/1/5
f 343/1/5 341/1/5 337/1/5
f 343/1/5 342/1/5 341/1/5
f 344/1/5 340/1/5 342/1/5
f 344/1/5 342/1/5 343/1/5
f 347/1/5 346/1/5 345/1/5
f 348/1/5 346/1/5 347/1/5
f 355/10/5 350/10/5 349/10/5
f 356/7/5 351/7/5 350/7/5
f 356/10/5 350/10/5 355/10/5
f 357/10/5 352/10/5 351/10/5
f 357/7/5 351/7/5 356/7/5
f 358/7/5 353/7/5 352/7/5
f 358/10/5 352/10/5 357/10/5
f 359/10/5 354/10/5 353/10/5
f 359/7/5 353/7/5 358/7/5
f 360/10/5 354/10/5 359/10/5
f 361/10/5 355/10/5 349/10/5
f 362/10/5 354/10/5 360/10/5
f 363/10/5 361/10/5 349/10/5
f 364/10/5 354/10/5 362/10/5
f 365/10/5 363/10/5 349/10/5
f 365/10/5 364/10/5 363/10/5
f 366/10/5 354/10/5 364/10/5
f 366/10/5 364/10/5 365/10/5
f 367/10/6 368/10/6 369/10/6
f 369/10/6 368/10/6 370/10/6
f 367/10/6 369/10/6 372/10/6
f 370/10/6 368/10/6 373/10/6
f 371/10/6 372/10/6 375/10/6
f 372/10/6 369/10/6 376/10/6
f 375/10/6 372/10/6 376/10/6
f 373/10/6 374/10/6 377/10/6
f 370/10/6 373/10/6 377/10/6
f 377/10/6 374/10/6 378/10/6
f 376/10/6 369/10/6 379/10/6
f 370/10/6 377/10/6 380/10/6
f 376/10/6 379/10/6 381/10/6
f 379/10/6 380/10/6 381/10/6
f 380/10/6 377/10/6 382/10/6
f 381/10/6 380/10/6 382/10/6
f 383/1/6 384/1/6 385/1/6
f 385/1/6 384/1/6 386/1/6
f 387/10/6 388/10/6 393/10/6
f 393/10/6 388/10/6 394/10/6
f 394/10/6 388/10/6 395/10/6
f 388/7/6 389/7/6 396/7/6
f 395/10/6 388/10/6 396/10/6
f 389/10/6 390/10/6 397/10/6
f 396/7/6 389/7/6 397/7/6
f 390/7/6 391/7/6 398/7/6
f 397/10/6 390/10/6 398/10/6
f 391/10/6 392/10/6 399/10/6
f 398/7/6 391/7/6 399/7/6
f 399/10/6 392/10/6 400/10/6
f 400/10/6 392/10/6 401/10/6
f 401/10/6 392/10/6 402/10/6
f 387/10/6 393/10/6 403/10/6
f 402/10/6 392/10/6 404/10/6
f 387/10/6 403/10/6 405/10/6
f 403/10/6 404/10/6 405/10/6
f 404/10/6 392/10/6 406/10/6
f 405/10/6 404/10/6 406/10/6
f 407/10/6 408/10/6 417/10/6
f 408/7/6 409/7/6 417/7/6
f 409/10/6 410/10/6 418/10/6
f 417/7/6 409/7/6 418/7/6
f 410/7/6 411/7/6 419/7/6
f 418/10/6 410/10/6 419/10/6
f 411/10/6 412/10/6 420/10/6
f 419/7/6 411/7/6 420/7/6
f 412/7/6 413/7/6 421/7/6
f 420/10/6 412/10/6 421/10/6
f 413/10/6 414/10/6 422/10/6
f 421/7/6 413/7/6 422/7/6
f 414/7/6 415/7/6 423/7/6
f 422/10/6 414/10/6 423/10/6
f 415/10/6 416/10/6 424/10/6
f 423/7/6 415/7/6 424/7/6
f 422/10/6 423/10/6 425/10/6
f 421/10/6 422/10/6 425/10/6
f 423/10/6 424/10/6 425/10/6
f 420/10/6 421/10/6 425/10/6
f 419/10/6 420/10/6 425/10/6
f 418/10/6 419/10/6 425/10/6
f 417/10/6 418/10/6 425/10/6
f 407/10/6 417/10/6 425/10/6
f 424/10/6 416/10/6 426/10/6
f 425/10/6 424/10/6 426/10/6
