# MagicaVoxel @ Ephtracy

# group
o 

# material
mtllib Frog.mtl
usemtl palette

# normals
vn -1 0 0
vn 1 0 0
vn 0 0 1
vn 0 0 -1
vn 0 -1 0
vn 0 1 0

# texcoords
vt 0.0175781 0.5
vt 0.759766 0.5
vt 0.783203 0.5
vt 0.962891 0.5
vt 0.990234 0.5

# verts
v -1 -0.5 0.9
v -1 -0.5 0.7
v -1 -0.5 0.3
v -1 -0.5 -0.5
v -1 -0.5 -0.7
v -1 -0.5 -1.1
v -1 -0.3 0.9
v -1 -0.3 0.7
v -1 -0.3 0.3
v -1 -0.3 -0.5
v -1 -0.3 -0.7
v -1 -0.1 1.7
v -1 -0.1 0.9
v -1 -0.1 -1.1
v -1 -0.1 -1.3
v -1 0.1 1.7
v -1 0.1 1.1
v -1 0.3 1.7
v -1 0.3 1.3
v -1 0.5 1.7
v -1 0.5 1.5
v -1 0.5 1.3
v -1 0.5 1.1
v -1 0.7 1.5
v -1 0.7 0.9
v -1 0.7 -1.1
v -1 0.7 -1.3
v -1 0.9 1.7
v -1 0.9 0.9
v -1 0.9 -0.7
v -1 0.9 -1.1
v -1 1.1 0.9
v -1 1.1 0.5
v -1 1.1 -0.0999999
v -1 1.1 -0.7
v -1 1.3 0.5
v -1 1.3 -0.0999999
v -0.8 0.9 1.5
v -0.8 0.9 1.3
v -0.8 0.9 1.1
v -0.8 1.5 1.5
v -0.8 1.5 1.3
v -0.8 1.5 1.1
v 0.2 0.9 1.5
v 0.2 0.9 1.3
v 0.2 0.9 1.1
v 0.2 1.5 1.5
v 0.2 1.5 1.3
v 0.2 1.5 1.1
v 0.4 -0.5 0.9
v 0.4 -0.5 0.7
v 0.4 -0.5 0.3
v 0.4 -0.5 -0.5
v 0.4 -0.5 -0.7
v 0.4 -0.5 -1.1
v 0.4 -0.3 0.9
v 0.4 -0.3 0.7
v 0.4 -0.3 0.3
v 0.4 -0.3 -0.5
v 0.4 -0.3 -0.7
v 0.4 -0.3 -1.1
v -0.4 -0.5 0.9
v -0.4 -0.5 0.7
v -0.4 -0.5 0.3
v -0.4 -0.5 -0.5
v -0.4 -0.5 -0.7
v -0.4 -0.5 -1.1
v -0.4 -0.3 0.9
v -0.4 -0.3 0.7
v -0.4 -0.3 0.3
v -0.4 -0.3 -0.5
v -0.4 -0.3 -0.7
v -0.4 -0.3 -1.1
v -0.2 0.9 1.5
v -0.2 0.9 1.3
v -0.2 0.9 1.1
v -0.2 1.5 1.5
v -0.2 1.5 1.3
v -0.2 1.5 1.1
v 0.8 0.9 1.5
v 0.8 0.9 1.3
v 0.8 0.9 1.1
v 0.8 1.5 1.5
v 0.8 1.5 1.3
v 0.8 1.5 1.1
v 1 -0.5 0.9
v 1 -0.5 0.7
v 1 -0.5 0.3
v 1 -0.5 -0.5
v 1 -0.5 -0.7
v 1 -0.5 -1.1
v 1 -0.3 0.9
v 1 -0.3 0.7
v 1 -0.3 0.3
v 1 -0.3 -0.5
v 1 -0.3 -0.7
v 1 -0.1 1.7
v 1 -0.1 0.9
v 1 -0.1 -1.1
v 1 -0.1 -1.3
v 1 0.1 1.7
v 1 0.1 1.1
v 1 0.3 1.7
v 1 0.3 1.3
v 1 0.5 1.7
v 1 0.5 1.5
v 1 0.5 1.3
v 1 0.5 1.1
v 1 0.7 1.5
v 1 0.7 0.9
v 1 0.7 -1.1
v 1 0.7 -1.3
v 1 0.9 1.7
v 1 0.9 0.9
v 1 0.9 -0.7
v 1 0.9 -1.1
v 1 1.1 0.9
v 1 1.1 0.5
v 1 1.1 -0.0999999
v 1 1.1 -0.7
v 1 1.3 0.5
v 1 1.3 -0.0999999
v -1 -0.1 1.7
v -1 0.1 1.7
v -1 0.3 1.7
v -1 0.5 1.7
v -1 0.9 1.7
v -0.4 0.5 1.7
v -0.4 0.7 1.7
v -0.2 0.5 1.7
v -0.2 0.7 1.7
v 0.2 0.5 1.7
v 0.2 0.7 1.7
v 0.4 0.5 1.7
v 0.4 0.7 1.7
v 1 -0.1 1.7
v 1 0.1 1.7
v 1 0.3 1.7
v 1 0.5 1.7
v 1 0.9 1.7
v -0.8 0.9 1.5
v -0.8 1.5 1.5
v -0.6 0.9 1.5
v -0.6 1.3 1.5
v -0.4 0.9 1.5
v -0.4 1.3 1.5
v -0.2 0.9 1.5
v -0.2 1.5 1.5
v 0.2 0.9 1.5
v 0.2 1.5 1.5
v 0.4 0.9 1.5
v 0.4 1.3 1.5
v 0.6 0.9 1.5
v 0.6 1.3 1.5
v 0.8 0.9 1.5
v 0.8 1.5 1.5
v -1 0.1 1.1
v -1 0.5 1.1
v -0.8 0.1 1.1
v -0.8 0.5 1.1
v 0.8 0.1 1.1
v 0.8 0.5 1.1
v 1 0.1 1.1
v 1 0.5 1.1
v -1 -0.5 0.9
v -1 -0.3 0.9
v -1 -0.1 0.9
v -1 0.9 0.9
v -1 1.1 0.9
v -0.8 -0.5 0.9
v -0.8 -0.3 0.9
v -0.6 -0.5 0.9
v -0.6 -0.3 0.9
v -0.4 -0.5 0.9
v -0.4 -0.3 0.9
v -0.4 0.9 0.9
v -0.4 1.1 0.9
v 0.4 -0.5 0.9
v 0.4 -0.3 0.9
v 0.4 0.9 0.9
v 0.4 1.1 0.9
v 0.6 -0.5 0.9
v 0.6 -0.3 0.9
v 0.8 -0.5 0.9
v 0.8 -0.3 0.9
v 1 -0.5 0.9
v 1 -0.3 0.9
v 1 -0.1 0.9
v 1 0.9 0.9
v 1 1.1 0.9
v -1 1.1 0.5
v -1 1.3 0.5
v -0.4 1.1 0.5
v -0.4 1.3 0.5
v 0.4 1.1 0.5
v 0.4 1.3 0.5
v 1 1.1 0.5
v 1 1.3 0.5
v -1 -0.5 -0.5
v -1 -0.3 -0.5
v -0.8 -0.5 -0.5
v -0.8 -0.3 -0.5
v -0.6 -0.5 -0.5
v -0.6 -0.3 -0.5
v -0.4 -0.5 -0.5
v -0.4 -0.3 -0.5
v 0.4 -0.5 -0.5
v 0.4 -0.3 -0.5
v 0.6 -0.5 -0.5
v 0.6 -0.3 -0.5
v 0.8 -0.5 -0.5
v 0.8 -0.3 -0.5
v 1 -0.5 -0.5
v 1 -0.3 -0.5
v -1 0.3 1.3
v -1 0.5 1.3
v 1 0.3 1.3
v 1 0.5 1.3
v -0.8 0.9 1.1
v -0.8 1.5 1.1
v -0.2 0.9 1.1
v -0.2 1.5 1.1
v 0.2 0.9 1.1
v 0.2 1.5 1.1
v 0.8 0.9 1.1
v 0.8 1.5 1.1
v -1 -0.5 0.3
v -1 -0.3 0.3
v -0.4 -0.5 0.3
v -0.4 -0.3 0.3
v 0.4 -0.5 0.3
v 0.4 -0.3 0.3
v 1 -0.5 0.3
v 1 -0.3 0.3
v -1 1.1 -0.0999999
v -1 1.3 -0.0999999
v -0.4 1.1 -0.0999999
v -0.4 1.3 -0.0999999
v 0.4 1.1 -0.0999999
v 0.4 1.3 -0.0999999
v 1 1.1 -0.0999999
v 1 1.3 -0.0999999
v -1 0.9 -0.7
v -1 1.1 -0.7
v -0.4 0.9 -0.7
v -0.4 1.1 -0.7
v 0.4 0.9 -0.7
v 0.4 1.1 -0.7
v 1 0.9 -0.7
v 1 1.1 -0.7
v -1 -0.5 -1.1
v -1 -0.1 -1.1
v -1 0.7 -1.1
v -1 0.9 -1.1
v -0.4 -0.5 -1.1
v -0.4 -0.3 -1.1
v -0.4 0.7 -1.1
v -0.4 0.9 -1.1
v 0.4 -0.5 -1.1
v 0.4 -0.3 -1.1
v 0.4 0.7 -1.1
v 0.4 0.9 -1.1
v 1 -0.5 -1.1
v 1 -0.1 -1.1
v 1 0.7 -1.1
v 1 0.9 -1.1
v -1 -0.1 -1.3
v -1 0.7 -1.3
v -0.4 0.1 -1.3
v -0.4 0.7 -1.3
v 0.4 0.1 -1.3
v 0.4 0.7 -1.3
v 1 -0.1 -1.3
v 1 0.7 -1.3
v -1 -0.5 0.9
v -0.8 -0.5 0.9
v -0.6 -0.5 0.9
v -0.4 -0.5 0.9
v 0.4 -0.5 0.9
v 0.6 -0.5 0.9
v 0.8 -0.5 0.9
v 1 -0.5 0.9
v -1 -0.5 0.7
v -0.8 -0.5 0.7
v -0.6 -0.5 0.7
v -0.4 -0.5 0.7
v 0.4 -0.5 0.7
v 0.6 -0.5 0.7
v 0.8 -0.5 0.7
v 1 -0.5 0.7
v -1 -0.5 0.3
v -0.4 -0.5 0.3
v 0.4 -0.5 0.3
v 1 -0.5 0.3
v -1 -0.5 -0.5
v -0.8 -0.5 -0.5
v -0.6 -0.5 -0.5
v -0.4 -0.5 -0.5
v 0.4 -0.5 -0.5
v 0.6 -0.5 -0.5
v 0.8 -0.5 -0.5
v 1 -0.5 -0.5
v -1 -0.5 -0.7
v -0.8 -0.5 -0.7
v -0.6 -0.5 -0.7
v -0.4 -0.5 -0.7
v 0.4 -0.5 -0.7
v 0.6 -0.5 -0.7
v 0.8 -0.5 -0.7
v 1 -0.5 -0.7
v -1 -0.5 -1.1
v -0.4 -0.5 -1.1
v 0.4 -0.5 -1.1
v 1 -0.5 -1.1
v -0.4 -0.3 0.9
v 0.4 -0.3 0.9
v -0.4 -0.3 0.7
v 0.4 -0.3 0.7
v -1 -0.3 0.3
v -0.4 -0.3 0.3
v 0.4 -0.3 0.3
v 1 -0.3 0.3
v -1 -0.3 -0.5
v -0.8 -0.3 -0.5
v -0.6 -0.3 -0.5
v -0.4 -0.3 -0.5
v 0.4 -0.3 -0.5
v 0.6 -0.3 -0.5
v 0.8 -0.3 -0.5
v 1 -0.3 -0.5
v -0.4 -0.3 -0.7
v 0.4 -0.3 -0.7
v -0.4 -0.3 -1.1
v 0.4 -0.3 -1.1
v -1 -0.1 1.7
v 1 -0.1 1.7
v -1 -0.1 0.9
v 1 -0.1 0.9
v -1 -0.1 -1.1
v 1 -0.1 -1.1
v -1 -0.1 -1.3
v 1 -0.1 -1.3
v -1 0.3 1.7
v 1 0.3 1.7
v -1 0.3 1.3
v 1 0.3 1.3
v -1 0.5 1.3
v 1 0.5 1.3
v -1 0.5 1.1
v -0.8 0.5 1.1
v 0.8 0.5 1.1
v 1 0.5 1.1
v -1 0.1 1.7
v 1 0.1 1.7
v -1 0.1 1.1
v -0.8 0.1 1.1
v 0.8 0.1 1.1
v 1 0.1 1.1
v -1 0.7 -1.1
v -0.4 0.7 -1.1
v 0.4 0.7 -1.1
v 1 0.7 -1.1
v -1 0.7 -1.3
v -0.4 0.7 -1.3
v 0.4 0.7 -1.3
v 1 0.7 -1.3
v -1 0.9 1.7
v 1 0.9 1.7
v -0.8 0.9 1.5
v -0.6 0.9 1.5
v -0.4 0.9 1.5
v -0.2 0.9 1.5
v 0.2 0.9 1.5
v 0.4 0.9 1.5
v 0.6 0.9 1.5
v 0.8 0.9 1.5
v -0.8 0.9 1.3
v -0.2 0.9 1.3
v 0.2 0.9 1.3
v 0.8 0.9 1.3
v -0.8 0.9 1.1
v -0.2 0.9 1.1
v 0.2 0.9 1.1
v 0.8 0.9 1.1
v -1 0.9 0.9
v -0.4 0.9 0.9
v 0.4 0.9 0.9
v 1 0.9 0.9
v -1 0.9 -0.7
v -0.4 0.9 -0.7
v 0.4 0.9 -0.7
v 1 0.9 -0.7
v -1 0.9 -1.1
v -0.4 0.9 -1.1
v 0.4 0.9 -1.1
v 1 0.9 -1.1
v -1 1.1 0.9
v -0.4 1.1 0.9
v 0.4 1.1 0.9
v 1 1.1 0.9
v -1 1.1 0.5
v -0.4 1.1 0.5
v 0.4 1.1 0.5
v 1 1.1 0.5
v -1 1.1 -0.0999999
v -0.4 1.1 -0.0999999
v 0.4 1.1 -0.0999999
v 1 1.1 -0.0999999
v -1 1.1 -0.7
v -0.4 1.1 -0.7
v 0.4 1.1 -0.7
v 1 1.1 -0.7
v -1 1.3 0.5
v -0.4 1.3 0.5
v 0.4 1.3 0.5
v 1 1.3 0.5
v -1 1.3 -0.0999999
v -0.4 1.3 -0.0999999
v 0.4 1.3 -0.0999999
v 1 1.3 -0.0999999
v -0.8 1.5 1.5
v -0.2 1.5 1.5
v 0.2 1.5 1.5
v 0.8 1.5 1.5
v -0.8 1.5 1.3
v -0.2 1.5 1.3
v 0.2 1.5 1.3
v 0.8 1.5 1.3
v -0.8 1.5 1.1
v -0.2 1.5 1.1
v 0.2 1.5 1.1
v 0.8 1.5 1.1

# faces
f 7/3/1 2/3/1 1/3/1
f 8/2/1 3/2/1 2/2/1
f 8/3/1 2/3/1 7/3/1
f 9/2/1 3/2/1 8/2/1
f 10/3/1 5/3/1 4/3/1
f 11/2/1 6/2/1 5/2/1
f 11/3/1 5/3/1 10/3/1
f 13/2/1 10/2/1 9/2/1
f 13/2/1 9/2/1 8/2/1
f 13/2/1 11/2/1 10/2/1
f 13/2/1 8/2/1 7/2/1
f 14/2/1 6/2/1 11/2/1
f 14/2/1 11/2/1 13/2/1
f 16/4/1 13/4/1 12/4/1
f 17/4/1 13/4/1 16/4/1
f 20/4/1 19/4/1 18/4/1
f 21/4/1 19/4/1 20/4/1
f 22/4/1 19/4/1 21/4/1
f 23/4/1 13/4/1 17/4/1
f 24/4/1 22/4/1 21/4/1
f 24/4/1 23/4/1 22/4/1
f 24/2/1 21/2/1 20/2/1
f 25/2/1 15/2/1 14/2/1
f 25/4/1 23/4/1 24/4/1
f 25/2/1 14/2/1 13/2/1
f 25/4/1 13/4/1 23/4/1
f 26/2/1 15/2/1 25/2/1
f 27/2/1 15/2/1 26/2/1
f 28/2/1 24/2/1 20/2/1
f 28/2/1 25/2/1 24/2/1
f 28/2/1 26/2/1 25/2/1
f 29/2/1 26/2/1 28/2/1
f 30/2/1 26/2/1 29/2/1
f 31/2/1 26/2/1 30/2/1
f 32/2/1 30/2/1 29/2/1
f 33/2/1 30/2/1 32/2/1
f 34/2/1 30/2/1 33/2/1
f 35/2/1 30/2/1 34/2/1
f 36/2/1 34/2/1 33/2/1
f 37/2/1 34/2/1 36/2/1
f 41/4/1 39/4/1 38/4/1
f 42/2/1 40/2/1 39/2/1
f 42/4/1 39/4/1 41/4/1
f 43/2/1 40/2/1 42/2/1
f 47/4/1 45/4/1 44/4/1
f 48/2/1 46/2/1 45/2/1
f 48/4/1 45/4/1 47/4/1
f 49/2/1 46/2/1 48/2/1
f 56/3/1 51/3/1 50/3/1
f 57/2/1 52/2/1 51/2/1
f 57/3/1 51/3/1 56/3/1
f 58/2/1 52/2/1 57/2/1
f 59/3/1 54/3/1 53/3/1
f 60/2/1 55/2/1 54/2/1
f 60/3/1 54/3/1 59/3/1
f 61/2/1 55/2/1 60/2/1
f 62/3/2 63/3/2 68/3/2
f 63/2/2 64/2/2 69/2/2
f 68/3/2 63/3/2 69/3/2
f 69/2/2 64/2/2 70/2/2
f 65/3/2 66/3/2 71/3/2
f 66/2/2 67/2/2 72/2/2
f 71/3/2 66/3/2 72/3/2
f 72/2/2 67/2/2 73/2/2
f 74/4/2 75/4/2 77/4/2
f 75/2/2 76/2/2 78/2/2
f 77/4/2 75/4/2 78/4/2
f 78/2/2 76/2/2 79/2/2
f 80/4/2 81/4/2 83/4/2
f 81/2/2 82/2/2 84/2/2
f 83/4/2 81/4/2 84/4/2
f 84/2/2 82/2/2 85/2/2
f 86/3/2 87/3/2 92/3/2
f 87/2/2 88/2/2 93/2/2
f 92/3/2 87/3/2 93/3/2
f 93/2/2 88/2/2 94/2/2
f 89/3/2 90/3/2 95/3/2
f 90/2/2 91/2/2 96/2/2
f 95/3/2 90/3/2 96/3/2
f 94/2/2 95/2/2 98/2/2
f 93/2/2 94/2/2 98/2/2
f 95/2/2 96/2/2 98/2/2
f 92/2/2 93/2/2 98/2/2
f 96/2/2 91/2/2 99/2/2
f 98/2/2 96/2/2 99/2/2
f 97/4/2 98/4/2 101/4/2
f 101/4/2 98/4/2 102/4/2
f 103/4/2 104/4/2 105/4/2
f 105/4/2 104/4/2 106/4/2
f 106/4/2 104/4/2 107/4/2
f 102/4/2 98/4/2 108/4/2
f 106/4/2 107/4/2 109/4/2
f 107/4/2 108/4/2 109/4/2
f 105/2/2 106/2/2 109/2/2
f 99/2/2 100/2/2 110/2/2
f 109/4/2 108/4/2 110/4/2
f 98/2/2 99/2/2 110/2/2
f 108/4/2 98/4/2 110/4/2
f 110/2/2 100/2/2 111/2/2
f 111/2/2 100/2/2 112/2/2
f 105/2/2 109/2/2 113/2/2
f 109/2/2 110/2/2 113/2/2
f 110/2/2 111/2/2 113/2/2
f 113/2/2 111/2/2 114/2/2
f 114/2/2 111/2/2 115/2/2
f 115/2/2 111/2/2 116/2/2
f 114/2/2 115/2/2 117/2/2
f 117/2/2 115/2/2 118/2/2
f 118/2/2 115/2/2 119/2/2
f 119/2/2 115/2/2 120/2/2
f 118/2/2 119/2/2 121/2/2
f 121/2/2 119/2/2 122/2/2
f 128/4/3 126/4/3 125/4/3
f 128/2/3 127/2/3 126/2/3
f 129/2/3 127/2/3 128/2/3
f 130/4/3 128/4/3 125/4/3
f 130/3/3 129/3/3 128/3/3
f 131/2/3 127/2/3 129/2/3
f 131/3/3 129/3/3 130/3/3
f 132/4/3 130/4/3 125/4/3
f 132/2/3 131/2/3 130/2/3
f 133/2/3 127/2/3 131/2/3
f 133/2/3 131/2/3 132/2/3
f 134/4/3 132/4/3 125/4/3
f 134/3/3 133/3/3 132/3/3
f 135/2/3 127/2/3 133/2/3
f 135/3/3 133/3/3 134/3/3
f 136/4/3 124/4/3 123/4/3
f 137/4/3 124/4/3 136/4/3
f 138/4/3 134/4/3 125/4/3
f 139/2/3 135/2/3 134/2/3
f 139/4/3 134/4/3 138/4/3
f 140/2/3 127/2/3 135/2/3
f 140/2/3 135/2/3 139/2/3
f 143/4/3 142/4/3 141/4/3
f 144/4/3 142/4/3 143/4/3
f 145/5/3 144/5/3 143/5/3
f 146/4/3 142/4/3 144/4/3
f 146/5/3 144/5/3 145/5/3
f 147/4/3 146/4/3 145/4/3
f 148/4/3 142/4/3 146/4/3
f 148/4/3 146/4/3 147/4/3
f 151/4/3 150/4/3 149/4/3
f 152/4/3 150/4/3 151/4/3
f 153/5/3 152/5/3 151/5/3
f 154/4/3 150/4/3 152/4/3
f 154/5/3 152/5/3 153/5/3
f 155/4/3 154/4/3 153/4/3
f 156/4/3 150/4/3 154/4/3
f 156/4/3 154/4/3 155/4/3
f 159/4/3 158/4/3 157/4/3
f 160/4/3 158/4/3 159/4/3
f 161/5/3 160/5/3 159/5/3
f 162/5/3 160/5/3 161/5/3
f 163/4/3 162/4/3 161/4/3
f 164/4/3 162/4/3 163/4/3
f 170/3/3 166/3/3 165/3/3
f 171/2/3 167/2/3 166/2/3
f 171/3/3 166/3/3 170/3/3
f 172/2/3 171/2/3 170/2/3
f 173/2/3 167/2/3 171/2/3
f 173/2/3 171/2/3 172/2/3
f 174/3/3 173/3/3 172/3/3
f 175/2/3 167/2/3 173/2/3
f 175/3/3 173/3/3 174/3/3
f 176/2/3 169/2/3 168/2/3
f 177/2/3 169/2/3 176/2/3
f 179/2/3 167/2/3 175/2/3
f 180/1/3 177/1/3 176/1/3
f 181/1/3 177/1/3 180/1/3
f 182/3/3 179/3/3 178/3/3
f 183/2/3 167/2/3 179/2/3
f 183/3/3 179/3/3 182/3/3
f 184/2/3 183/2/3 182/2/3
f 185/2/3 167/2/3 183/2/3
f 185/2/3 183/2/3 184/2/3
f 186/3/3 185/3/3 184/3/3
f 187/2/3 167/2/3 185/2/3
f 187/3/3 185/3/3 186/3/3
f 188/2/3 167/2/3 187/2/3
f 189/2/3 181/2/3 180/2/3
f 190/2/3 181/2/3 189/2/3
f 193/2/3 192/2/3 191/2/3
f 194/2/3 192/2/3 193/2/3
f 195/1/3 194/1/3 193/1/3
f 196/1/3 194/1/3 195/1/3
f 197/2/3 196/2/3 195/2/3
f 198/2/3 196/2/3 197/2/3
f 201/3/3 200/3/3 199/3/3
f 202/3/3 200/3/3 201/3/3
f 203/2/3 202/2/3 201/2/3
f 204/2/3 202/2/3 203/2/3
f 205/3/3 204/3/3 203/3/3
f 206/3/3 204/3/3 205/3/3
f 209/3/3 208/3/3 207/3/3
f 210/3/3 208/3/3 209/3/3
f 211/2/3 210/2/3 209/2/3
f 212/2/3 210/2/3 211/2/3
f 213/3/3 212/3/3 211/3/3
f 214/3/3 212/3/3 213/3/3
f 215/4/4 216/4/4 217/4/4
f 217/4/4 216/4/4 218/4/4
f 219/2/4 220/2/4 221/2/4
f 221/2/4 220/2/4 222/2/4
f 223/2/4 224/2/4 225/2/4
f 225/2/4 224/2/4 226/2/4
f 227/2/4 228/2/4 229/2/4
f 229/2/4 228/2/4 230/2/4
f 231/2/4 232/2/4 233/2/4
f 233/2/4 232/2/4 234/2/4
f 235/2/4 236/2/4 237/2/4
f 237/2/4 236/2/4 238/2/4
f 237/1/4 238/1/4 239/1/4
f 239/1/4 238/1/4 240/1/4
f 239/2/4 240/2/4 241/2/4
f 241/2/4 240/2/4 242/2/4
f 243/2/4 244/2/4 245/2/4
f 245/2/4 244/2/4 246/2/4
f 245/1/4 246/1/4 247/1/4
f 247/1/4 246/1/4 248/1/4
f 247/2/4 248/2/4 249/2/4
f 249/2/4 248/2/4 250/2/4
f 251/2/4 252/2/4 255/2/4
f 255/2/4 252/2/4 256/2/4
f 253/2/4 254/2/4 257/2/4
f 257/2/4 254/2/4 258/2/4
f 256/2/4 252/2/4 260/2/4
f 257/1/4 258/1/4 261/1/4
f 261/1/4 258/1/4 262/1/4
f 259/2/4 260/2/4 263/2/4
f 260/2/4 252/2/4 264/2/4
f 263/2/4 260/2/4 264/2/4
f 261/2/4 262/2/4 265/2/4
f 265/2/4 262/2/4 266/2/4
f 267/2/4 268/2/4 269/2/4
f 269/2/4 268/2/4 270/2/4
f 267/2/4 269/2/4 271/2/4
f 269/1/4 270/1/4 271/1/4
f 271/1/4 270/1/4 272/1/4
f 267/2/4 271/2/4 273/2/4
f 271/2/4 272/2/4 273/2/4
f 273/2/4 272/2/4 274/2/4
f 283/3/5 276/3/5 275/3/5
f 284/2/5 277/2/5 276/2/5
f 284/3/5 276/3/5 283/3/5
f 285/3/5 278/3/5 277/3/5
f 285/2/5 277/2/5 284/2/5
f 286/3/5 278/3/5 285/3/5
f 287/3/5 280/3/5 279/3/5
f 288/2/5 281/2/5 280/2/5
f 288/3/5 280/3/5 287/3/5
f 289/3/5 282/3/5 281/3/5
f 289/2/5 281/2/5 288/2/5
f 290/3/5 282/3/5 289/3/5
f 291/2/5 284/2/5 283/2/5
f 291/2/5 286/2/5 285/2/5
f 291/2/5 285/2/5 284/2/5
f 292/2/5 286/2/5 291/2/5
f 293/2/5 288/2/5 287/2/5
f 293/2/5 290/2/5 289/2/5
f 293/2/5 289/2/5 288/2/5
f 294/2/5 290/2/5 293/2/5
f 303/3/5 296/3/5 295/3/5
f 304/2/5 297/2/5 296/2/5
f 304/3/5 296/3/5 303/3/5
f 305/3/5 298/3/5 297/3/5
f 305/2/5 297/2/5 304/2/5
f 306/3/5 298/3/5 305/3/5
f 307/3/5 300/3/5 299/3/5
f 308/2/5 301/2/5 300/2/5
f 308/3/5 300/3/5 307/3/5
f 309/3/5 302/3/5 301/3/5
f 309/2/5 301/2/5 308/2/5
f 310/3/5 302/3/5 309/3/5
f 311/2/5 304/2/5 303/2/5
f 311/2/5 306/2/5 305/2/5
f 311/2/5 305/2/5 304/2/5
f 312/2/5 306/2/5 311/2/5
f 313/2/5 308/2/5 307/2/5
f 313/2/5 310/2/5 309/2/5
f 313/2/5 309/2/5 308/2/5
f 314/2/5 310/2/5 313/2/5
f 317/2/5 316/2/5 315/2/5
f 318/2/5 316/2/5 317/2/5
f 320/2/5 318/2/5 317/2/5
f 321/2/5 318/2/5 320/2/5
f 323/2/5 321/2/5 320/2/5
f 323/2/5 322/2/5 321/2/5
f 323/2/5 320/2/5 319/2/5
f 324/2/5 322/2/5 323/2/5
f 325/2/5 322/2/5 324/2/5
f 326/2/5 322/2/5 325/2/5
f 327/2/5 322/2/5 326/2/5
f 328/2/5 322/2/5 327/2/5
f 329/2/5 322/2/5 328/2/5
f 330/2/5 322/2/5 329/2/5
f 331/2/5 327/2/5 326/2/5
f 332/2/5 327/2/5 331/2/5
f 333/2/5 332/2/5 331/2/5
f 334/2/5 332/2/5 333/2/5
f 337/4/5 336/4/5 335/4/5
f 338/4/5 336/4/5 337/4/5
f 341/2/5 340/2/5 339/2/5
f 342/2/5 340/2/5 341/2/5
f 345/4/5 344/4/5 343/4/5
f 346/4/5 344/4/5 345/4/5
f 349/4/5 348/4/5 347/4/5
f 350/4/5 348/4/5 349/4/5
f 351/4/5 348/4/5 350/4/5
f 352/4/5 348/4/5 351/4/5
f 353/4/6 354/4/6 355/4/6
f 355/4/6 354/4/6 356/4/6
f 356/4/6 354/4/6 357/4/6
f 357/4/6 354/4/6 358/4/6
f 359/2/6 360/2/6 363/2/6
f 360/1/6 361/1/6 364/1/6
f 363/2/6 360/2/6 364/2/6
f 361/2/6 362/2/6 365/2/6
f 364/1/6 361/1/6 365/1/6
f 365/2/6 362/2/6 366/2/6
f 367/2/6 368/2/6 369/2/6
f 369/2/6 368/2/6 370/2/6
f 370/2/6 368/2/6 371/2/6
f 371/2/6 368/2/6 372/2/6
f 372/2/6 368/2/6 373/2/6
f 373/2/6 368/2/6 374/2/6
f 374/2/6 368/2/6 375/2/6
f 375/2/6 368/2/6 376/2/6
f 367/2/6 369/2/6 377/2/6
f 372/2/6 373/2/6 378/2/6
f 378/2/6 373/2/6 379/2/6
f 376/2/6 368/2/6 380/2/6
f 367/2/6 377/2/6 381/2/6
f 378/2/6 379/2/6 382/2/6
f 382/2/6 379/2/6 383/2/6
f 380/2/6 368/2/6 384/2/6
f 367/2/6 381/2/6 385/2/6
f 383/2/6 384/2/6 385/2/6
f 382/2/6 383/2/6 385/2/6
f 381/2/6 382/2/6 385/2/6
f 385/2/6 384/2/6 386/2/6
f 386/2/6 384/2/6 387/2/6
f 384/2/6 368/2/6 388/2/6
f 387/2/6 384/2/6 388/2/6
f 389/2/6 390/2/6 393/2/6
f 390/1/6 391/1/6 394/1/6
f 393/2/6 390/2/6 394/2/6
f 391/2/6 392/2/6 395/2/6
f 394/1/6 391/1/6 395/1/6
f 395/2/6 392/2/6 396/2/6
f 397/2/6 398/2/6 401/2/6
f 398/1/6 399/1/6 402/1/6
f 401/2/6 398/2/6 402/2/6
f 399/2/6 400/2/6 403/2/6
f 402/1/6 399/1/6 403/1/6
f 403/2/6 400/2/6 404/2/6
f 405/2/6 406/2/6 409/2/6
f 406/1/6 407/1/6 410/1/6
f 409/2/6 406/2/6 410/2/6
f 407/2/6 408/2/6 411/2/6
f 410/1/6 407/1/6 411/1/6
f 411/2/6 408/2/6 412/2/6
f 413/2/6 414/2/6 417/2/6
f 414/1/6 415/1/6 418/1/6
f 417/2/6 414/2/6 418/2/6
f 415/2/6 416/2/6 419/2/6
f 418/1/6 415/1/6 419/1/6
f 419/2/6 416/2/6 420/2/6
f 421/4/6 422/4/6 425/4/6
f 425/4/6 422/4/6 426/4/6
f 423/4/6 424/4/6 427/4/6
f 427/4/6 424/4/6 428/4/6
f 425/2/6 426/2/6 429/2/6
f 429/2/6 426/2/6 430/2/6
f 427/2/6 428/2/6 431/2/6
f 431/2/6 428/2/6 432/2/6
