# MagicaVoxel @ Ephtracy

# group
o 

# material
mtllib Guard.mtl
usemtl palette

# normals
vn -1 0 0
vn 1 0 0
vn 0 0 1
vn 0 0 -1
vn 0 -1 0
vn 0 1 0

# texcoords
vt 0.0605469 0.5
vt 0.369141 0.5
vt 0.373047 0.5
vt 0.396484 0.5
vt 0.537109 0.5
vt 0.958984 0.5
vt 0.966797 0.5
vt 0.974609 0.5
vt 0.982422 0.5
vt 0.994141 0.5

# verts
v -1 0.5 0.2
v -1 0.5 -0.1
v -1 0.7 0.2
v -1 0.7 -0.1
v -1 1.3 0.2
v -1 1.3 -0.1
v -0.8 2.1 0.7
v -0.8 2.1 -0.6
v -0.8 2.3 0.7
v -0.8 2.3 -0.6
v -0.7 2.3 0.6
v -0.7 2.3 -0.5
v -0.7 2.4 0.6
v -0.7 2.4 -0.5
v -0.6 0 0.3
v -0.6 0 -0.2
v -0.6 0.2 0.3
v -0.6 0.2 -0.2
v -0.6 0.4 0.5
v -0.6 0.4 0.3
v -0.6 0.4 -0.2
v -0.6 0.4 -0.4
v -0.6 0.5 0.2
v -0.6 0.5 -0.1
v -0.6 0.6 0.5
v -0.6 0.6 0.2
v -0.6 0.6 -0.1
v -0.6 0.6 -0.4
v -0.6 0.7 0.5
v -0.6 0.7 0.2
v -0.6 0.7 -0.1
v -0.6 0.7 -0.4
v -0.6 1.3 0.5
v -0.6 1.3 0.2
v -0.6 1.3 -0.1
v -0.6 1.3 -0.4
v -0.6 1.4 0.6
v -0.6 1.4 0.4
v -0.6 1.4 -0.5
v -0.6 1.6 0.6
v -0.6 1.6 0.4
v -0.6 1.7 0.6
v -0.6 1.7 0.5
v -0.6 1.7 -0.4
v -0.6 1.7 -0.5
v -0.6 1.8 -0.1
v -0.6 1.8 -0.4
v -0.6 1.9 0.1
v -0.6 1.9 -0.1
v -0.6 2 0.6
v -0.6 2 0.5
v -0.6 2.1 0.6
v -0.6 2.1 0.1
v -0.6 2.1 -0.5
v -0.4 1.3 0.4
v -0.4 1.3 -0.3
v -0.4 1.4 0.4
v -0.4 1.4 -0.3
v -0.2 1.6 0.7
v -0.2 1.6 0.6
v -0.2 1.7 0.7
v -0.2 1.7 0.6
v 0 0 0.3
v 0 0 -0.2
v 0 0.2 0.3
v 0 0.2 -0.2
v 0 0.4 0.3
v 0 0.4 -0.2
v -0.1 0 0.3
v -0.1 0 -0.2
v -0.1 0.2 0.3
v -0.1 0.2 -0.2
v -0.1 0.4 0.3
v -0.1 0.4 -0.2
v 0.1 1.6 0.7
v 0.1 1.6 0.6
v 0.1 1.7 0.7
v 0.1 1.7 0.6
v 0.3 1.3 0.4
v 0.3 1.3 -0.3
v 0.3 1.4 0.4
v 0.3 1.4 -0.3
v 0.5 0 0.3
v 0.5 0 -0.2
v 0.5 0.2 0.3
v 0.5 0.2 -0.2
v 0.5 0.4 0.5
v 0.5 0.4 0.3
v 0.5 0.4 -0.2
v 0.5 0.4 -0.4
v 0.5 0.5 0.2
v 0.5 0.5 -0.1
v 0.5 0.6 0.5
v 0.5 0.6 0.2
v 0.5 0.6 -0.1
v 0.5 0.6 -0.4
v 0.5 0.7 0.5
v 0.5 0.7 0.2
v 0.5 0.7 -0.1
v 0.5 0.7 -0.4
v 0.5 1.3 0.5
v 0.5 1.3 0.2
v 0.5 1.3 -0.1
v 0.5 1.3 -0.4
v 0.5 1.4 0.6
v 0.5 1.4 0.4
v 0.5 1.4 -0.5
v 0.5 1.6 0.6
v 0.5 1.6 0.4
v 0.5 1.7 0.6
v 0.5 1.7 0.5
v 0.5 1.7 -0.4
v 0.5 1.7 -0.5
v 0.5 1.8 -0.1
v 0.5 1.8 -0.4
v 0.5 1.9 0.1
v 0.5 1.9 -0.1
v 0.5 2 0.6
v 0.5 2 0.5
v 0.5 2.1 0.6
v 0.5 2.1 0.1
v 0.5 2.1 -0.5
v 0.6 2.3 0.6
v 0.6 2.3 -0.5
v 0.6 2.4 0.6
v 0.6 2.4 -0.5
v 0.7 2.1 0.7
v 0.7 2.1 -0.6
v 0.7 2.3 0.7
v 0.7 2.3 -0.6
v 0.9 0.5 0.2
v 0.9 0.5 -0.1
v 0.9 0.7 0.2
v 0.9 0.7 -0.1
v 0.9 1.3 0.2
v 0.9 1.3 -0.1
v -0.8 2.1 0.7
v -0.8 2.3 0.7
v -0.2 1.6 0.7
v -0.2 1.7 0.7
v -0.2 2.1 0.7
v -0.2 2.3 0.7
v -0.1 2.1 0.7
v -0.1 2.3 0.7
v 0 2.1 0.7
v 0 2.3 0.7
v 0.1 1.6 0.7
v 0.1 1.7 0.7
v 0.1 2.1 0.7
v 0.1 2.3 0.7
v 0.7 2.1 0.7
v 0.7 2.3 0.7
v -0.7 2.3 0.6
v -0.7 2.4 0.6
v -0.6 1.4 0.6
v -0.6 1.6 0.6
v -0.6 1.7 0.6
v -0.6 2 0.6
v -0.6 2.1 0.6
v -0.4 1.7 0.6
v -0.4 1.9 0.6
v -0.4 2.3 0.6
v -0.4 2.4 0.6
v -0.3 2.3 0.6
v -0.3 2.4 0.6
v -0.2 1.5 0.6
v -0.2 1.6 0.6
v -0.2 1.7 0.6
v -0.2 1.9 0.6
v -0.2 2 0.6
v -0.2 2.1 0.6
v -0.2 2.3 0.6
v -0.2 2.4 0.6
v -0.1 2.1 0.6
v -0.1 2.3 0.6
v -0.1 2.4 0.6
v 0 2.1 0.6
v 0 2.3 0.6
v 0 2.4 0.6
v 0.1 1.5 0.6
v 0.1 1.6 0.6
v 0.1 1.7 0.6
v 0.1 1.9 0.6
v 0.1 2 0.6
v 0.1 2.1 0.6
v 0.1 2.3 0.6
v 0.1 2.4 0.6
v 0.2 2.3 0.6
v 0.2 2.4 0.6
v 0.3 1.7 0.6
v 0.3 1.9 0.6
v 0.3 2.3 0.6
v 0.3 2.4 0.6
v 0.5 1.4 0.6
v 0.5 1.6 0.6
v 0.5 1.7 0.6
v 0.5 2 0.6
v 0.5 2.1 0.6
v 0.6 2.3 0.6
v 0.6 2.4 0.6
v -0.6 0.4 0.5
v -0.6 0.6 0.5
v -0.6 0.7 0.5
v -0.6 1.3 0.5
v -0.2 0.5 0.5
v -0.2 0.6 0.5
v -0.2 0.7 0.5
v -0.2 0.8 0.5
v -0.1 0.6 0.5
v -0.1 0.7 0.5
v 0 0.6 0.5
v 0 0.7 0.5
v 0.1 0.5 0.5
v 0.1 0.6 0.5
v 0.1 0.7 0.5
v 0.1 0.8 0.5
v 0.1 1 0.5
v 0.1 1.1 0.5
v 0.2 0.9 0.5
v 0.2 1 0.5
v 0.2 1.1 0.5
v 0.3 0.9 0.5
v 0.3 1 0.5
v 0.3 1.1 0.5
v 0.4 1 0.5
v 0.4 1.1 0.5
v 0.5 0.4 0.5
v 0.5 0.6 0.5
v 0.5 0.7 0.5
v 0.5 1.3 0.5
v -0.4 1.3 0.4
v -0.4 1.4 0.4
v 0.3 1.3 0.4
v 0.3 1.4 0.4
v -0.6 0 0.3
v -0.6 0.2 0.3
v -0.6 0.4 0.3
v -0.1 0 0.3
v -0.1 0.2 0.3
v -0.1 0.4 0.3
v 0 0 0.3
v 0 0.2 0.3
v 0 0.4 0.3
v 0.5 0 0.3
v 0.5 0.2 0.3
v 0.5 0.4 0.3
v -1 0.5 0.2
v -1 0.7 0.2
v -1 1.3 0.2
v -0.6 0.5 0.2
v -0.6 0.6 0.2
v -0.6 0.7 0.2
v -0.6 1.3 0.2
v 0.5 0.5 0.2
v 0.5 0.6 0.2
v 0.5 0.7 0.2
v 0.5 1.3 0.2
v 0.9 0.5 0.2
v 0.9 0.7 0.2
v 0.9 1.3 0.2
v -1 0.5 -0.1
v -1 0.7 -0.1
v -1 1.3 -0.1
v -0.6 0.5 -0.1
v -0.6 0.6 -0.1
v -0.6 0.7 -0.1
v -0.6 1.3 -0.1
v 0.5 0.5 -0.1
v 0.5 0.6 -0.1
v 0.5 0.7 -0.1
v 0.5 1.3 -0.1
v 0.9 0.5 -0.1
v 0.9 0.7 -0.1
v 0.9 1.3 -0.1
v -0.6 0 -0.2
v -0.6 0.2 -0.2
v -0.6 0.4 -0.2
v -0.1 0 -0.2
v -0.1 0.2 -0.2
v -0.1 0.4 -0.2
v 0 0 -0.2
v 0 0.2 -0.2
v 0 0.4 -0.2
v 0.5 0 -0.2
v 0.5 0.2 -0.2
v 0.5 0.4 -0.2
v -0.4 1.3 -0.3
v -0.4 1.4 -0.3
v 0.3 1.3 -0.3
v 0.3 1.4 -0.3
v -0.6 0.4 -0.4
v -0.6 0.6 -0.4
v -0.6 0.7 -0.4
v -0.6 1.3 -0.4
v 0.5 0.4 -0.4
v 0.5 0.6 -0.4
v 0.5 0.7 -0.4
v 0.5 1.3 -0.4
v -0.7 2.3 -0.5
v -0.7 2.4 -0.5
v -0.6 1.4 -0.5
v -0.6 1.7 -0.5
v -0.6 2.1 -0.5
v 0.5 1.4 -0.5
v 0.5 1.7 -0.5
v 0.5 2.1 -0.5
v 0.6 2.3 -0.5
v 0.6 2.4 -0.5
v -0.8 2.1 -0.6
v -0.8 2.3 -0.6
v 0.7 2.1 -0.6
v 0.7 2.3 -0.6
v -0.6 0 0.3
v -0.1 0 0.3
v 0 0 0.3
v 0.5 0 0.3
v -0.6 0 -0.2
v -0.1 0 -0.2
v 0 0 -0.2
v 0.5 0 -0.2
v -0.6 0.4 0.5
v 0.5 0.4 0.5
v -0.6 0.4 0.3
v -0.1 0.4 0.3
v 0 0.4 0.3
v 0.5 0.4 0.3
v -0.6 0.4 -0.2
v -0.1 0.4 -0.2
v 0 0.4 -0.2
v 0.5 0.4 -0.2
v -0.6 0.4 -0.4
v 0.5 0.4 -0.4
v -1 0.5 0.2
v -0.6 0.5 0.2
v 0.5 0.5 0.2
v 0.9 0.5 0.2
v -1 0.5 -0.1
v -0.6 0.5 -0.1
v 0.5 0.5 -0.1
v 0.9 0.5 -0.1
v -0.6 1.4 0.6
v 0.5 1.4 0.6
v -0.6 1.4 0.4
v -0.4 1.4 0.4
v 0.3 1.4 0.4
v 0.5 1.4 0.4
v -0.4 1.4 -0.3
v 0.3 1.4 -0.3
v -0.6 1.4 -0.5
v 0.5 1.4 -0.5
v -0.2 1.6 0.7
v 0.1 1.6 0.7
v -0.2 1.6 0.6
v 0.1 1.6 0.6
v -0.8 2.1 0.7
v -0.2 2.1 0.7
v -0.1 2.1 0.7
v 0 2.1 0.7
v 0.1 2.1 0.7
v 0.7 2.1 0.7
v -0.6 2.1 0.6
v -0.2 2.1 0.6
v -0.1 2.1 0.6
v 0 2.1 0.6
v 0.1 2.1 0.6
v 0.5 2.1 0.6
v -0.6 2.1 0.1
v 0.5 2.1 0.1
v -0.6 2.1 -0.5
v 0.5 2.1 -0.5
v -0.8 2.1 -0.6
v 0.7 2.1 -0.6
v -0.6 1.3 0.5
v 0.5 1.3 0.5
v -0.4 1.3 0.4
v 0.3 1.3 0.4
v -1 1.3 0.2
v -0.6 1.3 0.2
v 0.5 1.3 0.2
v 0.9 1.3 0.2
v -1 1.3 -0.1
v -0.6 1.3 -0.1
v 0.5 1.3 -0.1
v 0.9 1.3 -0.1
v -0.4 1.3 -0.3
v 0.3 1.3 -0.3
v -0.6 1.3 -0.4
v 0.5 1.3 -0.4
v -0.2 1.7 0.7
v 0.1 1.7 0.7
v -0.2 1.7 0.6
v 0.1 1.7 0.6
v -0.8 2.3 0.7
v -0.2 2.3 0.7
v -0.1 2.3 0.7
v 0 2.3 0.7
v 0.1 2.3 0.7
v 0.7 2.3 0.7
v -0.7 2.3 0.6
v -0.4 2.3 0.6
v -0.3 2.3 0.6
v -0.2 2.3 0.6
v -0.1 2.3 0.6
v 0 2.3 0.6
v 0.1 2.3 0.6
v 0.2 2.3 0.6
v 0.3 2.3 0.6
v 0.6 2.3 0.6
v -0.7 2.3 -0.5
v 0.6 2.3 -0.5
v -0.8 2.3 -0.6
v 0.7 2.3 -0.6
v -0.7 2.4 0.6
v -0.4 2.4 0.6
v -0.3 2.4 0.6
v -0.2 2.4 0.6
v -0.1 2.4 0.6
v 0 2.4 0.6
v 0.1 2.4 0.6
v 0.2 2.4 0.6
v 0.3 2.4 0.6
v 0.6 2.4 0.6
v -0.4 2.4 0.4
v -0.3 2.4 0.4
v -0.2 2.4 0.4
v -0.1 2.4 0.4
v 0 2.4 0.4
v 0.1 2.4 0.4
v 0.2 2.4 0.4
v 0.3 2.4 0.4
v -0.7 2.4 -0.5
v 0.6 2.4 -0.5

# faces
f 3/1/1 2/1/1 1/1/1
f 4/1/1 2/1/1 3/1/1
f 5/10/1 4/10/1 3/10/1
f 6/10/1 4/10/1 5/10/1
f 9/10/1 8/10/1 7/10/1
f 10/10/1 8/10/1 9/10/1
f 13/10/1 12/10/1 11/10/1
f 14/10/1 12/10/1 13/10/1
f 17/9/1 16/9/1 15/9/1
f 18/9/1 16/9/1 17/9/1
f 20/10/1 18/10/1 17/10/1
f 21/10/1 18/10/1 20/10/1
f 23/10/1 21/10/1 20/10/1
f 23/10/1 22/10/1 21/10/1
f 23/10/1 20/10/1 19/10/1
f 24/10/1 22/10/1 23/10/1
f 25/10/1 23/10/1 19/10/1
f 26/10/1 23/10/1 25/10/1
f 27/10/1 22/10/1 24/10/1
f 28/10/1 22/10/1 27/10/1
f 29/4/1 26/4/1 25/4/1
f 30/4/1 26/4/1 29/4/1
f 31/4/1 28/4/1 27/4/1
f 32/4/1 28/4/1 31/4/1
f 33/10/1 30/10/1 29/10/1
f 34/10/1 30/10/1 33/10/1
f 35/10/1 32/10/1 31/10/1
f 36/10/1 32/10/1 35/10/1
f 40/2/1 38/2/1 37/2/1
f 41/1/1 39/1/1 38/1/1
f 41/2/1 38/2/1 40/2/1
f 42/1/1 41/1/1 40/1/1
f 43/1/1 41/1/1 42/1/1
f 44/1/1 39/1/1 41/1/1
f 44/1/1 41/1/1 43/1/1
f 45/1/1 39/1/1 44/1/1
f 46/1/1 44/1/1 43/1/1
f 47/5/1 45/5/1 44/5/1
f 47/1/1 44/1/1 46/1/1
f 48/1/1 46/1/1 43/1/1
f 49/5/1 47/5/1 46/5/1
f 49/1/1 46/1/1 48/1/1
f 50/6/1 43/6/1 42/6/1
f 51/1/1 48/1/1 43/1/1
f 51/6/1 43/6/1 50/6/1
f 52/1/1 51/1/1 50/1/1
f 53/5/1 49/5/1 48/5/1
f 53/1/1 51/1/1 52/1/1
f 53/1/1 48/1/1 51/1/1
f 54/5/1 47/5/1 49/5/1
f 54/5/1 49/5/1 53/5/1
f 54/5/1 45/5/1 47/5/1
f 57/1/1 56/1/1 55/1/1
f 58/1/1 56/1/1 57/1/1
f 61/1/1 60/1/1 59/1/1
f 62/1/1 60/1/1 61/1/1
f 65/9/1 64/9/1 63/9/1
f 66/9/1 64/9/1 65/9/1
f 67/10/1 66/10/1 65/10/1
f 68/10/1 66/10/1 67/10/1
f 69/9/2 70/9/2 71/9/2
f 71/9/2 70/9/2 72/9/2
f 71/10/2 72/10/2 73/10/2
f 73/10/2 72/10/2 74/10/2
f 75/1/2 76/1/2 77/1/2
f 77/1/2 76/1/2 78/1/2
f 79/1/2 80/1/2 81/1/2
f 81/1/2 80/1/2 82/1/2
f 83/9/2 84/9/2 85/9/2
f 85/9/2 84/9/2 86/9/2
f 85/10/2 86/10/2 88/10/2
f 88/10/2 86/10/2 89/10/2
f 88/10/2 89/10/2 91/10/2
f 89/10/2 90/10/2 91/10/2
f 87/10/2 88/10/2 91/10/2
f 91/10/2 90/10/2 92/10/2
f 87/10/2 91/10/2 93/10/2
f 93/10/2 91/10/2 94/10/2
f 92/10/2 90/10/2 95/10/2
f 95/10/2 90/10/2 96/10/2
f 93/4/2 94/4/2 97/4/2
f 97/4/2 94/4/2 98/4/2
f 95/4/2 96/4/2 99/4/2
f 99/4/2 96/4/2 100/4/2
f 97/10/2 98/10/2 101/10/2
f 101/10/2 98/10/2 102/10/2
f 99/10/2 100/10/2 103/10/2
f 103/10/2 100/10/2 104/10/2
f 105/2/2 106/2/2 108/2/2
f 106/1/2 107/1/2 109/1/2
f 108/2/2 106/2/2 109/2/2
f 108/1/2 109/1/2 110/1/2
f 110/1/2 109/1/2 111/1/2
f 109/1/2 107/1/2 112/1/2
f 111/1/2 109/1/2 112/1/2
f 112/1/2 107/1/2 113/1/2
f 111/1/2 112/1/2 114/1/2
f 112/5/2 113/5/2 115/5/2
f 114/1/2 112/1/2 115/1/2
f 111/1/2 114/1/2 116/1/2
f 114/5/2 115/5/2 117/5/2
f 116/1/2 114/1/2 117/1/2
f 110/6/2 111/6/2 118/6/2
f 111/1/2 116/1/2 119/1/2
f 118/6/2 111/6/2 119/6/2
f 118/1/2 119/1/2 120/1/2
f 116/5/2 117/5/2 121/5/2
f 120/1/2 119/1/2 121/1/2
f 119/1/2 116/1/2 121/1/2
f 117/5/2 115/5/2 122/5/2
f 121/5/2 117/5/2 122/5/2
f 115/5/2 113/5/2 122/5/2
f 123/10/2 124/10/2 125/10/2
f 125/10/2 124/10/2 126/10/2
f 127/10/2 128/10/2 129/10/2
f 129/10/2 128/10/2 130/10/2
f 131/1/2 132/1/2 133/1/2
f 133/1/2 132/1/2 134/1/2
f 133/10/2 134/10/2 135/10/2
f 135/10/2 134/10/2 136/10/2
f 141/10/3 138/10/3 137/10/3
f 142/10/3 138/10/3 141/10/3
f 143/7/3 142/7/3 141/7/3
f 144/7/3 142/7/3 143/7/3
f 145/10/3 144/10/3 143/10/3
f 146/10/3 144/10/3 145/10/3
f 147/1/3 140/1/3 139/1/3
f 148/1/3 140/1/3 147/1/3
f 149/7/3 146/7/3 145/7/3
f 150/7/3 146/7/3 149/7/3
f 151/10/3 150/10/3 149/10/3
f 152/10/3 150/10/3 151/10/3
f 160/1/3 157/1/3 156/1/3
f 160/6/3 158/6/3 157/6/3
f 161/6/3 158/6/3 160/6/3
f 162/10/3 154/10/3 153/10/3
f 163/10/3 154/10/3 162/10/3
f 164/7/3 163/7/3 162/7/3
f 165/7/3 163/7/3 164/7/3
f 166/2/3 156/2/3 155/2/3
f 167/1/3 160/1/3 156/1/3
f 167/2/3 156/2/3 166/2/3
f 168/10/3 161/10/3 160/10/3
f 168/1/3 160/1/3 167/1/3
f 169/6/3 158/6/3 161/6/3
f 169/10/3 161/10/3 168/10/3
f 170/1/3 159/1/3 158/1/3
f 170/6/3 158/6/3 169/6/3
f 171/1/3 159/1/3 170/1/3
f 172/10/3 165/10/3 164/10/3
f 173/10/3 165/10/3 172/10/3
f 174/1/3 169/1/3 168/1/3
f 174/1/3 171/1/3 170/1/3
f 174/1/3 170/1/3 169/1/3
f 175/7/3 173/7/3 172/7/3
f 176/7/3 173/7/3 175/7/3
f 177/1/3 174/1/3 168/1/3
f 178/10/3 176/10/3 175/10/3
f 179/10/3 176/10/3 178/10/3
f 180/2/3 166/2/3 155/2/3
f 180/6/3 167/6/3 166/6/3
f 181/6/3 167/6/3 180/6/3
f 182/1/3 177/1/3 168/1/3
f 183/1/3 177/1/3 182/1/3
f 184/1/3 177/1/3 183/1/3
f 185/1/3 177/1/3 184/1/3
f 186/7/3 179/7/3 178/7/3
f 187/7/3 179/7/3 186/7/3
f 188/10/3 187/10/3 186/10/3
f 189/10/3 187/10/3 188/10/3
f 190/1/3 182/1/3 181/1/3
f 190/10/3 183/10/3 182/10/3
f 191/6/3 184/6/3 183/6/3
f 191/10/3 183/10/3 190/10/3
f 192/7/3 189/7/3 188/7/3
f 193/7/3 189/7/3 192/7/3
f 194/2/3 181/2/3 180/2/3
f 194/2/3 180/2/3 155/2/3
f 195/1/3 190/1/3 181/1/3
f 195/2/3 181/2/3 194/2/3
f 196/6/3 191/6/3 190/6/3
f 196/1/3 190/1/3 195/1/3
f 197/1/3 185/1/3 184/1/3
f 197/6/3 191/6/3 196/6/3
f 197/6/3 184/6/3 191/6/3
f 198/1/3 185/1/3 197/1/3
f 199/10/3 193/10/3 192/10/3
f 200/10/3 193/10/3 199/10/3
f 205/10/3 202/10/3 201/10/3
f 206/4/3 203/4/3 202/4/3
f 206/10/3 202/10/3 205/10/3
f 207/10/3 204/10/3 203/10/3
f 207/4/3 203/4/3 206/4/3
f 208/10/3 204/10/3 207/10/3
f 209/8/3 206/8/3 205/8/3
f 209/8/3 207/8/3 206/8/3
f 209/8/3 208/8/3 207/8/3
f 210/8/3 208/8/3 209/8/3
f 211/8/3 209/8/3 205/8/3
f 211/3/3 210/3/3 209/3/3
f 212/8/3 208/8/3 210/8/3
f 212/3/3 210/3/3 211/3/3
f 213/10/3 205/10/3 201/10/3
f 213/8/3 211/8/3 205/8/3
f 213/8/3 212/8/3 211/8/3
f 214/8/3 212/8/3 213/8/3
f 215/8/3 208/8/3 212/8/3
f 215/8/3 212/8/3 214/8/3
f 216/10/3 204/10/3 208/10/3
f 216/8/3 208/8/3 215/8/3
f 217/10/3 204/10/3 216/10/3
f 218/10/3 204/10/3 217/10/3
f 219/10/3 216/10/3 215/10/3
f 219/10/3 217/10/3 216/10/3
f 220/9/3 218/9/3 217/9/3
f 220/10/3 217/10/3 219/10/3
f 221/10/3 204/10/3 218/10/3
f 221/9/3 218/9/3 220/9/3
f 222/9/3 220/9/3 219/9/3
f 222/10/3 219/10/3 215/10/3
f 223/10/3 221/10/3 220/10/3
f 223/9/3 220/9/3 222/9/3
f 224/10/3 204/10/3 221/10/3
f 224/10/3 221/10/3 223/10/3
f 225/10/3 223/10/3 222/10/3
f 225/9/3 224/9/3 223/9/3
f 226/10/3 204/10/3 224/10/3
f 226/9/3 224/9/3 225/9/3
f 227/10/3 214/10/3 213/10/3
f 227/10/3 213/10/3 201/10/3
f 228/4/3 215/4/3 214/4/3
f 228/10/3 214/10/3 227/10/3
f 229/10/3 226/10/3 225/10/3
f 229/4/3 215/4/3 228/4/3
f 229/10/3 225/10/3 222/10/3
f 229/10/3 222/10/3 215/10/3
f 230/10/3 204/10/3 226/10/3
f 230/10/3 226/10/3 229/10/3
f 233/1/3 232/1/3 231/1/3
f 234/1/3 232/1/3 233/1/3
f 238/9/3 236/9/3 235/9/3
f 239/10/3 237/10/3 236/10/3
f 239/9/3 236/9/3 238/9/3
f 240/10/3 237/10/3 239/10/3
f 244/9/3 242/9/3 241/9/3
f 245/10/3 243/10/3 242/10/3
f 245/9/3 242/9/3 244/9/3
f 246/10/3 243/10/3 245/10/3
f 250/1/3 248/1/3 247/1/3
f 251/1/3 248/1/3 250/1/3
f 252/10/3 249/10/3 248/10/3
f 252/1/3 248/1/3 251/1/3
f 253/10/3 249/10/3 252/10/3
f 258/1/3 255/1/3 254/1/3
f 258/1/3 256/1/3 255/1/3
f 259/10/3 257/10/3 256/10/3
f 259/1/3 256/1/3 258/1/3
f 260/10/3 257/10/3 259/10/3
f 261/1/4 262/1/4 264/1/4
f 264/1/4 262/1/4 265/1/4
f 262/10/4 263/10/4 266/10/4
f 265/1/4 262/1/4 266/1/4
f 266/10/4 263/10/4 267/10/4
f 268/1/4 269/1/4 272/1/4
f 269/1/4 270/1/4 272/1/4
f 270/10/4 271/10/4 273/10/4
f 272/1/4 270/1/4 273/1/4
f 273/10/4 271/10/4 274/10/4
f 275/9/4 276/9/4 278/9/4
f 276/10/4 277/10/4 279/10/4
f 278/9/4 276/9/4 279/9/4
f 279/10/4 277/10/4 280/10/4
f 281/9/4 282/9/4 284/9/4
f 282/10/4 283/10/4 285/10/4
f 284/9/4 282/9/4 285/9/4
f 285/10/4 283/10/4 286/10/4
f 287/1/4 288/1/4 289/1/4
f 289/1/4 288/1/4 290/1/4
f 291/10/4 292/10/4 295/10/4
f 292/4/4 293/4/4 296/4/4
f 295/10/4 292/10/4 296/10/4
f 293/10/4 294/10/4 297/10/4
f 296/4/4 293/4/4 297/4/4
f 297/10/4 294/10/4 298/10/4
f 301/1/4 302/1/4 304/1/4
f 302/5/4 303/5/4 305/5/4
f 304/1/4 302/1/4 305/1/4
f 305/5/4 303/5/4 306/5/4
f 299/10/4 300/10/4 307/10/4
f 307/10/4 300/10/4 308/10/4
f 309/10/4 310/10/4 311/10/4
f 311/10/4 310/10/4 312/10/4
f 317/9/5 314/9/5 313/9/5
f 318/9/5 314/9/5 317/9/5
f 319/9/5 316/9/5 315/9/5
f 320/9/5 316/9/5 319/9/5
f 323/10/5 322/10/5 321/10/5
f 324/10/5 322/10/5 323/10/5
f 325/10/5 322/10/5 324/10/5
f 326/10/5 322/10/5 325/10/5
f 328/10/5 325/10/5 324/10/5
f 329/10/5 325/10/5 328/10/5
f 331/10/5 328/10/5 327/10/5
f 331/10/5 330/10/5 329/10/5
f 331/10/5 329/10/5 328/10/5
f 332/10/5 330/10/5 331/10/5
f 337/1/5 334/1/5 333/1/5
f 338/1/5 334/1/5 337/1/5
f 339/1/5 336/1/5 335/1/5
f 340/1/5 336/1/5 339/1/5
f 343/2/5 342/2/5 341/2/5
f 344/2/5 342/2/5 343/2/5
f 345/2/5 342/2/5 344/2/5
f 346/2/5 342/2/5 345/2/5
f 347/1/5 344/1/5 343/1/5
f 348/1/5 346/1/5 345/1/5
f 349/1/5 347/1/5 343/1/5
f 349/1/5 348/1/5 347/1/5
f 350/1/5 346/1/5 348/1/5
f 350/1/5 348/1/5 349/1/5
f 353/1/5 352/1/5 351/1/5
f 354/1/5 352/1/5 353/1/5
f 361/10/5 356/10/5 355/10/5
f 362/7/5 357/7/5 356/7/5
f 362/10/5 356/10/5 361/10/5
f 363/10/5 358/10/5 357/10/5
f 363/7/5 357/7/5 362/7/5
f 364/7/5 359/7/5 358/7/5
f 364/10/5 358/10/5 363/10/5
f 365/10/5 360/10/5 359/10/5
f 365/7/5 359/7/5 364/7/5
f 366/10/5 360/10/5 365/10/5
f 367/10/5 361/10/5 355/10/5
f 368/10/5 360/10/5 366/10/5
f 369/10/5 367/10/5 355/10/5
f 370/10/5 360/10/5 368/10/5
f 371/10/5 369/10/5 355/10/5
f 371/10/5 370/10/5 369/10/5
f 372/10/5 360/10/5 370/10/5
f 372/10/5 370/10/5 371/10/5
f 373/10/6 374/10/6 375/10/6
f 375/10/6 374/10/6 376/10/6
f 373/10/6 375/10/6 378/10/6
f 376/10/6 374/10/6 379/10/6
f 377/10/6 378/10/6 381/10/6
f 378/10/6 375/10/6 382/10/6
f 381/10/6 378/10/6 382/10/6
f 379/10/6 380/10/6 383/10/6
f 376/10/6 379/10/6 383/10/6
f 383/10/6 380/10/6 384/10/6
f 382/10/6 375/10/6 385/10/6
f 376/10/6 383/10/6 386/10/6
f 382/10/6 385/10/6 387/10/6
f 385/10/6 386/10/6 387/10/6
f 386/10/6 383/10/6 388/10/6
f 387/10/6 386/10/6 388/10/6
f 389/1/6 390/1/6 391/1/6
f 391/1/6 390/1/6 392/1/6
f 393/10/6 394/10/6 399/10/6
f 399/10/6 394/10/6 400/10/6
f 400/10/6 394/10/6 401/10/6
f 394/7/6 395/7/6 402/7/6
f 401/10/6 394/10/6 402/10/6
f 395/10/6 396/10/6 403/10/6
f 402/7/6 395/7/6 403/7/6
f 396/7/6 397/7/6 404/7/6
f 403/10/6 396/10/6 404/10/6
f 397/10/6 398/10/6 405/10/6
f 404/7/6 397/7/6 405/7/6
f 405/10/6 398/10/6 406/10/6
f 406/10/6 398/10/6 407/10/6
f 407/10/6 398/10/6 408/10/6
f 393/10/6 399/10/6 409/10/6
f 408/10/6 398/10/6 410/10/6
f 393/10/6 409/10/6 411/10/6
f 409/10/6 410/10/6 411/10/6
f 410/10/6 398/10/6 412/10/6
f 411/10/6 410/10/6 412/10/6
f 413/10/6 414/10/6 423/10/6
f 414/7/6 415/7/6 423/7/6
f 415/10/6 416/10/6 424/10/6
f 423/7/6 415/7/6 424/7/6
f 416/7/6 417/7/6 425/7/6
f 424/10/6 416/10/6 425/10/6
f 417/10/6 418/10/6 426/10/6
f 425/7/6 417/7/6 426/7/6
f 418/7/6 419/7/6 427/7/6
f 426/10/6 418/10/6 427/10/6
f 419/10/6 420/10/6 428/10/6
f 427/7/6 419/7/6 428/7/6
f 420/7/6 421/7/6 429/7/6
f 428/10/6 420/10/6 429/10/6
f 421/10/6 422/10/6 430/10/6
f 429/7/6 421/7/6 430/7/6
f 428/10/6 429/10/6 431/10/6
f 427/10/6 428/10/6 431/10/6
f 429/10/6 430/10/6 431/10/6
f 426/10/6 427/10/6 431/10/6
f 425/10/6 426/10/6 431/10/6
f 424/10/6 425/10/6 431/10/6
f 423/10/6 424/10/6 431/10/6
f 413/10/6 423/10/6 431/10/6
f 430/10/6 422/10/6 432/10/6
f 431/10/6 430/10/6 432/10/6
