# MagicaVoxel @ Ephtracy

# group
o 

# material
mtllib Stone.mtl
usemtl palette

# normals
vn -1 0 0
vn 1 0 0
vn 0 0 1
vn 0 0 -1
vn 0 -1 0
vn 0 1 0

# texcoords
vt 0.958984 0.5
vt 0.966797 0.5
vt 0.970703 0.5

# verts
v -1.3 0 1.3
v -1.3 0 0.3
v -1.3 0 0.2
v -1.3 0 -0.6
v -1.3 0 -1.2
v -1.3 0.3 0.3
v -1.3 0.3 0.2
v -1.3 0.3 -0.5
v -1.3 0.3 -0.6
v -1.3 0.4 0.2
v -1.3 0.4 0.1
v -1.3 0.4 -0.4
v -1.3 0.4 -0.5
v -1.3 0.5 0.1
v -1.3 0.5 -0.4
v -1.3 0.7 1.3
v -1.3 0.7 1
v -1.3 0.7 -0.9
v -1.3 0.7 -1.2
v -1.3 0.8 1.3
v -1.3 0.8 1
v -1.3 0.8 0.9
v -1.3 0.8 -0.8
v -1.3 0.8 -0.9
v -1.3 0.8 -1
v -1.3 0.8 -1.2
v -1.3 0.9 0.9
v -1.3 0.9 0.8
v -1.3 0.9 -0.7
v -1.3 0.9 -0.8
v -1.3 0.9 -0.9
v -1.3 0.9 -1
v -1.3 1 -0.8
v -1.3 1 -0.9
v -1.3 1.5 0.9
v -1.3 1.5 0.8
v -1.3 1.5 -0.7
v -1.3 1.5 -0.8
v -1.3 1.6 1
v -1.3 1.6 0.9
v -1.3 1.6 -0.8
v -1.3 1.6 -0.9
v -1.3 1.7 1.3
v -1.3 1.7 1
v -1.3 1.7 -0.9
v -1.3 1.7 -1.2
v -1.3 2 0.1
v -1.3 2 -0.4
v -1.3 2.1 0.2
v -1.3 2.1 0.1
v -1.3 2.1 1.19209e-07
v -1.3 2.1 -0.4
v -1.3 2.1 -0.5
v -1.3 2.2 0.3
v -1.3 2.2 0.2
v -1.3 2.2 0.1
v -1.3 2.2 1.19209e-07
v -1.3 2.2 -0.5
v -1.3 2.2 -0.6
v -1.3 2.3 0.2
v -1.3 2.3 0.1
v -1.3 2.5 1.3
v -1.3 2.5 0.3
v -1.3 2.5 0.2
v -1.3 2.5 -0.6
v -1.3 2.5 -1.2
v 1.2 0 1.3
v 1.2 0 0.3
v 1.2 0 0.2
v 1.2 0 -0.6
v 1.2 0 -1.2
v 1.2 0.3 0.3
v 1.2 0.3 0.2
v 1.2 0.3 -0.5
v 1.2 0.3 -0.6
v 1.2 0.4 0.2
v 1.2 0.4 0.1
v 1.2 0.4 -0.4
v 1.2 0.4 -0.5
v 1.2 0.5 0.1
v 1.2 0.5 -0.4
v 1.2 0.7 1.3
v 1.2 0.7 1
v 1.2 0.7 -0.9
v 1.2 0.7 -1.2
v 1.2 0.8 1.3
v 1.2 0.8 1
v 1.2 0.8 0.9
v 1.2 0.8 -0.8
v 1.2 0.8 -0.9
v 1.2 0.8 -1.2
v 1.2 0.9 0.9
v 1.2 0.9 0.8
v 1.2 0.9 -0.7
v 1.2 0.9 -0.8
v 1.2 1.5 0.9
v 1.2 1.5 0.8
v 1.2 1.5 -0.7
v 1.2 1.5 -0.8
v 1.2 1.6 1
v 1.2 1.6 0.9
v 1.2 1.6 -0.8
v 1.2 1.6 -0.9
v 1.2 1.7 1.3
v 1.2 1.7 1
v 1.2 1.7 -0.9
v 1.2 1.7 -1.2
v 1.2 2 0.1
v 1.2 2 -0.4
v 1.2 2.1 0.2
v 1.2 2.1 0.1
v 1.2 2.1 1.19209e-07
v 1.2 2.1 -0.4
v 1.2 2.1 -0.5
v 1.2 2.2 0.3
v 1.2 2.2 0.2
v 1.2 2.2 0.1
v 1.2 2.2 1.19209e-07
v 1.2 2.2 -0.5
v 1.2 2.2 -0.6
v 1.2 2.3 0.2
v 1.2 2.3 0.1
v 1.2 2.5 1.3
v 1.2 2.5 0.3
v 1.2 2.5 0.2
v 1.2 2.5 -0.6
v 1.2 2.5 -1.2
v -1.3 0 1.3
v -1.3 0.7 1.3
v -1.3 0.8 1.3
v -1.3 1.7 1.3
v -1.3 2.5 1.3
v -1.1 0.8 1.3
v -1.1 0.9 1.3
v -1 0.7 1.3
v -1 0.8 1.3
v -1 0.9 1.3
v -1 1 1.3
v -1 1.6 1.3
v -1 1.7 1.3
v -0.9 0.8 1.3
v -0.9 0.9 1.3
v -0.9 1 1.3
v -0.9 1.5 1.3
v -0.9 1.6 1.3
v -0.8 0.9 1.3
v -0.8 1.5 1.3
v -0.3 0 1.3
v -0.3 0.3 1.3
v -0.3 2.2 1.3
v -0.3 2.5 1.3
v -0.2 0 1.3
v -0.2 0.3 1.3
v -0.2 0.4 1.3
v -0.2 2.1 1.3
v -0.2 2.2 1.3
v -0.2 2.3 1.3
v -0.2 2.5 1.3
v -0.1 0.4 1.3
v -0.1 0.5 1.3
v -0.1 2 1.3
v -0.1 2.1 1.3
v -0.1 2.2 1.3
v -0.1 2.3 1.3
v -1.19209e-07 2.1 1.3
v -1.19209e-07 2.2 1.3
v 0.5 0.4 1.3
v 0.5 0.5 1.3
v 0.5 2 1.3
v 0.5 2.1 1.3
v 0.6 0.3 1.3
v 0.6 0.4 1.3
v 0.6 2.1 1.3
v 0.6 2.2 1.3
v 0.7 0 1.3
v 0.7 0.3 1.3
v 0.7 0.9 1.3
v 0.7 1.5 1.3
v 0.7 2.2 1.3
v 0.7 2.5 1.3
v 0.8 0.8 1.3
v 0.8 0.9 1.3
v 0.8 1 1.3
v 0.8 1.5 1.3
v 0.8 1.6 1.3
v 0.9 0.7 1.3
v 0.9 0.8 1.3
v 0.9 0.9 1.3
v 0.9 1 1.3
v 0.9 1.6 1.3
v 0.9 1.7 1.3
v 1 0.8 1.3
v 1 0.9 1.3
v 1.2 0 1.3
v 1.2 0.7 1.3
v 1.2 0.8 1.3
v 1.2 1.7 1.3
v 1.2 2.5 1.3
v -1.3 0 -1.2
v -1.3 0.7 -1.2
v -1.3 0.8 -1.2
v -1.3 1.7 -1.2
v -1.3 2.5 -1.2
v -1 0.7 -1.2
v -1 0.8 -1.2
v -1 1.6 -1.2
v -1 1.7 -1.2
v -0.9 0.8 -1.2
v -0.9 0.9 -1.2
v -0.9 1.5 -1.2
v -0.9 1.6 -1.2
v -0.8 0.9 -1.2
v -0.8 1.5 -1.2
v -0.3 0 -1.2
v -0.3 0.3 -1.2
v -0.3 2.2 -1.2
v -0.3 2.5 -1.2
v -0.2 0 -1.2
v -0.2 0.3 -1.2
v -0.2 0.4 -1.2
v -0.2 2.1 -1.2
v -0.2 2.2 -1.2
v -0.2 2.3 -1.2
v -0.2 2.5 -1.2
v -0.1 0.4 -1.2
v -0.1 0.5 -1.2
v -0.1 2 -1.2
v -0.1 2.1 -1.2
v -0.1 2.2 -1.2
v -0.1 2.3 -1.2
v -1.19209e-07 2.1 -1.2
v -1.19209e-07 2.2 -1.2
v 0.5 0.4 -1.2
v 0.5 0.5 -1.2
v 0.5 2 -1.2
v 0.5 2.1 -1.2
v 0.6 0.3 -1.2
v 0.6 0.4 -1.2
v 0.6 2.1 -1.2
v 0.6 2.2 -1.2
v 0.7 0 -1.2
v 0.7 0.3 -1.2
v 0.7 0.9 -1.2
v 0.7 1.5 -1.2
v 0.7 2.2 -1.2
v 0.7 2.5 -1.2
v 0.8 0.8 -1.2
v 0.8 0.9 -1.2
v 0.8 1 -1.2
v 0.8 1.5 -1.2
v 0.8 1.6 -1.2
v 0.9 0.7 -1.2
v 0.9 0.8 -1.2
v 0.9 0.9 -1.2
v 0.9 1 -1.2
v 0.9 1.6 -1.2
v 0.9 1.7 -1.2
v 1 0.8 -1.2
v 1 0.9 -1.2
v 1.2 0 -1.2
v 1.2 0.7 -1.2
v 1.2 0.8 -1.2
v 1.2 1.7 -1.2
v 1.2 2.5 -1.2
v -1.3 0 1.3
v -0.3 0 1.3
v -0.2 0 1.3
v 0.7 0 1.3
v 1.2 0 1.3
v -0.2 0 1.1
v -0.1 0 1.1
v -0.3 0 1
v -0.2 0 1
v -0.1 0 1
v -1.19209e-07 0 1
v 0.6 0 1
v 0.7 0 1
v -0.2 0 0.9
v -0.1 0 0.9
v -1.19209e-07 0 0.9
v 0.5 0 0.9
v 0.6 0 0.9
v -0.1 0 0.8
v 0.5 0 0.8
v -1.3 0 0.3
v -0.9 0 0.3
v 0.9 0 0.3
v 1.2 0 0.3
v -1.3 0 0.2
v -1 0 0.2
v -0.9 0 0.2
v -0.8 0 0.2
v 0.8 0 0.2
v 0.9 0 0.2
v 1.2 0 0.2
v -1 0 0.1
v -0.9 0 0.1
v -0.8 0 0.1
v -0.7 0 0.1
v 0.7 0 0.1
v 0.8 0 0.1
v -0.9 0 1.19209e-07
v -0.8 0 1.19209e-07
v -0.8 0 -0.4
v -0.7 0 -0.4
v 0.7 0 -0.4
v 0.8 0 -0.4
v -0.9 0 -0.5
v -0.8 0 -0.5
v 0.8 0 -0.5
v 0.9 0 -0.5
v -1.3 0 -0.6
v -0.9 0 -0.6
v 0.9 0 -0.6
v 1.2 0 -0.6
v -0.1 0 -0.7
v 0.5 0 -0.7
v -0.2 0 -0.8
v -0.1 0 -0.8
v 0.5 0 -0.8
v 0.6 0 -0.8
v -0.3 0 -0.9
v -0.2 0 -0.9
v 0.6 0 -0.9
v 0.7 0 -0.9
v -1.3 0 -1.2
v -0.3 0 -1.2
v -0.2 0 -1.2
v 0.7 0 -1.2
v 1.2 0 -1.2
v -1.3 2.5 1.3
v -0.3 2.5 1.3
v -0.2 2.5 1.3
v 0.7 2.5 1.3
v 1.2 2.5 1.3
v -0.3 2.5 1
v -0.2 2.5 1
v 0.6 2.5 1
v 0.7 2.5 1
v -0.2 2.5 0.9
v -0.1 2.5 0.9
v 0.5 2.5 0.9
v 0.6 2.5 0.9
v -0.1 2.5 0.8
v 0.5 2.5 0.8
v -1.3 2.5 0.3
v -1 2.5 0.3
v 0.9 2.5 0.3
v 1.2 2.5 0.3
v -1.3 2.5 0.2
v -1 2.5 0.2
v -0.9 2.5 0.2
v 0.8 2.5 0.2
v 0.9 2.5 0.2
v 1.2 2.5 0.2
v -0.9 2.5 0.1
v -0.8 2.5 0.1
v 0.7 2.5 0.1
v 0.8 2.5 0.1
v -0.9 2.5 -0.4
v -0.8 2.5 -0.4
v 0.7 2.5 -0.4
v 0.8 2.5 -0.4
v -1 2.5 -0.5
v -0.9 2.5 -0.5
v 0.8 2.5 -0.5
v 0.9 2.5 -0.5
v -1.3 2.5 -0.6
v -1 2.5 -0.6
v 0.9 2.5 -0.6
v 1.2 2.5 -0.6
v -0.1 2.5 -0.7
v 0.5 2.5 -0.7
v -0.2 2.5 -0.8
v -0.1 2.5 -0.8
v -1.19209e-07 2.5 -0.8
v 0.5 2.5 -0.8
v 0.6 2.5 -0.8
v -0.3 2.5 -0.9
v -0.2 2.5 -0.9
v -0.1 2.5 -0.9
v -1.19209e-07 2.5 -0.9
v 0.6 2.5 -0.9
v 0.7 2.5 -0.9
v -0.2 2.5 -1
v -0.1 2.5 -1
v -1.3 2.5 -1.2
v -0.3 2.5 -1.2
v -0.2 2.5 -1.2
v 0.7 2.5 -1.2
v 1.2 2.5 -1.2

# faces
f 6/1/1 2/1/1 1/1/1
f 6/3/1 3/3/1 2/3/1
f 7/2/1 4/2/1 3/2/1
f 7/3/1 3/3/1 6/3/1
f 8/2/1 4/2/1 7/2/1
f 9/1/1 5/1/1 4/1/1
f 9/2/1 4/2/1 8/2/1
f 10/2/1 8/2/1 7/2/1
f 10/1/1 7/1/1 6/1/1
f 11/2/1 8/2/1 10/2/1
f 12/2/1 8/2/1 11/2/1
f 13/1/1 9/1/1 8/1/1
f 13/2/1 8/2/1 12/2/1
f 14/2/1 12/2/1 11/2/1
f 14/1/1 11/1/1 10/1/1
f 15/1/1 13/1/1 12/1/1
f 15/2/1 12/2/1 14/2/1
f 16/1/1 6/1/1 1/1/1
f 16/1/1 10/1/1 6/1/1
f 16/1/1 15/1/1 14/1/1
f 16/1/1 14/1/1 10/1/1
f 17/1/1 15/1/1 16/1/1
f 18/1/1 5/1/1 9/1/1
f 18/1/1 15/1/1 17/1/1
f 18/1/1 13/1/1 15/1/1
f 18/1/1 9/1/1 13/1/1
f 19/1/1 5/1/1 18/1/1
f 20/3/1 17/3/1 16/3/1
f 21/1/1 18/1/1 17/1/1
f 21/3/1 17/3/1 20/3/1
f 22/1/1 18/1/1 21/1/1
f 23/1/1 18/1/1 22/1/1
f 24/3/1 19/3/1 18/3/1
f 24/1/1 18/1/1 23/1/1
f 25/3/1 19/3/1 24/3/1
f 26/3/1 19/3/1 25/3/1
f 27/1/1 23/1/1 22/1/1
f 27/2/1 21/2/1 20/2/1
f 27/2/1 22/2/1 21/2/1
f 28/1/1 23/1/1 27/1/1
f 29/1/1 23/1/1 28/1/1
f 30/3/1 25/3/1 24/3/1
f 30/1/1 23/1/1 29/1/1
f 30/3/1 24/3/1 23/3/1
f 31/3/1 25/3/1 30/3/1
f 32/2/1 26/2/1 25/2/1
f 32/3/1 25/3/1 31/3/1
f 33/3/1 31/3/1 30/3/1
f 33/3/1 30/3/1 29/3/1
f 34/2/1 32/2/1 31/2/1
f 34/3/1 31/3/1 33/3/1
f 35/2/1 28/2/1 27/2/1
f 35/2/1 27/2/1 20/2/1
f 36/1/1 29/1/1 28/1/1
f 36/2/1 28/2/1 35/2/1
f 37/3/1 33/3/1 29/3/1
f 37/1/1 29/1/1 36/1/1
f 38/2/1 34/2/1 33/2/1
f 38/3/1 33/3/1 37/3/1
f 39/2/1 35/2/1 20/2/1
f 40/1/1 37/1/1 36/1/1
f 40/2/1 35/2/1 39/2/1
f 40/1/1 36/1/1 35/1/1
f 40/1/1 38/1/1 37/1/1
f 41/2/1 34/2/1 38/2/1
f 41/1/1 38/1/1 40/1/1
f 42/2/1 32/2/1 34/2/1
f 42/2/1 34/2/1 41/2/1
f 43/2/1 39/2/1 20/2/1
f 44/1/1 40/1/1 39/1/1
f 44/2/1 39/2/1 43/2/1
f 44/1/1 41/1/1 40/1/1
f 44/1/1 42/1/1 41/1/1
f 45/2/1 32/2/1 42/2/1
f 45/1/1 42/1/1 44/1/1
f 46/2/1 26/2/1 32/2/1
f 46/2/1 32/2/1 45/2/1
f 47/1/1 45/1/1 44/1/1
f 47/1/1 44/1/1 43/1/1
f 47/1/1 46/1/1 45/1/1
f 48/1/1 46/1/1 47/1/1
f 49/1/1 47/1/1 43/1/1
f 50/3/1 48/3/1 47/3/1
f 50/1/1 47/1/1 49/1/1
f 51/3/1 48/3/1 50/3/1
f 52/1/1 46/1/1 48/1/1
f 52/3/1 48/3/1 51/3/1
f 53/1/1 46/1/1 52/1/1
f 54/1/1 49/1/1 43/1/1
f 55/3/1 51/3/1 50/3/1
f 55/1/1 49/1/1 54/1/1
f 55/3/1 50/3/1 49/3/1
f 56/3/1 51/3/1 55/3/1
f 57/2/1 53/2/1 52/2/1
f 57/3/1 51/3/1 56/3/1
f 57/2/1 52/2/1 51/2/1
f 58/1/1 46/1/1 53/1/1
f 58/2/1 53/2/1 57/2/1
f 59/1/1 46/1/1 58/1/1
f 60/3/1 56/3/1 55/3/1
f 60/3/1 55/3/1 54/3/1
f 61/2/1 57/2/1 56/2/1
f 61/3/1 56/3/1 60/3/1
f 61/2/1 59/2/1 58/2/1
f 61/2/1 58/2/1 57/2/1
f 62/1/1 54/1/1 43/1/1
f 63/3/1 60/3/1 54/3/1
f 63/1/1 54/1/1 62/1/1
f 64/2/1 61/2/1 60/2/1
f 64/3/1 60/3/1 63/3/1
f 65/2/1 59/2/1 61/2/1
f 65/2/1 61/2/1 64/2/1
f 65/1/1 46/1/1 59/1/1
f 66/1/1 46/1/1 65/1/1
f 67/1/2 68/1/2 72/1/2
f 68/3/2 69/3/2 72/3/2
f 69/2/2 70/2/2 73/2/2
f 72/3/2 69/3/2 73/3/2
f 73/2/2 70/2/2 74/2/2
f 70/1/2 71/1/2 75/1/2
f 74/2/2 70/2/2 75/2/2
f 73/2/2 74/2/2 76/2/2
f 72/1/2 73/1/2 76/1/2
f 76/2/2 74/2/2 77/2/2
f 77/2/2 74/2/2 78/2/2
f 74/1/2 75/1/2 79/1/2
f 78/2/2 74/2/2 79/2/2
f 77/2/2 78/2/2 80/2/2
f 76/1/2 77/1/2 80/1/2
f 78/1/2 79/1/2 81/1/2
f 80/2/2 78/2/2 81/2/2
f 67/1/2 72/1/2 82/1/2
f 72/1/2 76/1/2 82/1/2
f 80/1/2 81/1/2 82/1/2
f 76/1/2 80/1/2 82/1/2
f 82/1/2 81/1/2 83/1/2
f 75/1/2 71/1/2 84/1/2
f 83/1/2 81/1/2 84/1/2
f 81/1/2 79/1/2 84/1/2
f 79/1/2 75/1/2 84/1/2
f 84/1/2 71/1/2 85/1/2
f 82/3/2 83/3/2 86/3/2
f 83/1/2 84/1/2 87/1/2
f 86/3/2 83/3/2 87/3/2
f 87/1/2 84/1/2 88/1/2
f 88/1/2 84/1/2 89/1/2
f 84/3/2 85/3/2 90/3/2
f 89/1/2 84/1/2 90/1/2
f 90/3/2 85/3/2 91/3/2
f 88/1/2 89/1/2 92/1/2
f 86/2/2 87/2/2 92/2/2
f 87/2/2 88/2/2 92/2/2
f 92/1/2 89/1/2 93/1/2
f 93/1/2 89/1/2 94/1/2
f 90/2/2 91/2/2 95/2/2
f 94/1/2 89/1/2 95/1/2
f 89/2/2 90/2/2 95/2/2
f 92/2/2 93/2/2 96/2/2
f 86/2/2 92/2/2 96/2/2
f 93/1/2 94/1/2 97/1/2
f 96/2/2 93/2/2 97/2/2
f 94/2/2 95/2/2 98/2/2
f 97/1/2 94/1/2 98/1/2
f 95/2/2 91/2/2 99/2/2
f 98/2/2 95/2/2 99/2/2
f 86/2/2 96/2/2 100/2/2
f 97/1/2 98/1/2 101/1/2
f 100/2/2 96/2/2 101/2/2
f 96/1/2 97/1/2 101/1/2
f 98/1/2 99/1/2 101/1/2
f 99/2/2 91/2/2 102/2/2
f 101/1/2 99/1/2 102/1/2
f 102/2/2 91/2/2 103/2/2
f 86/2/2 100/2/2 104/2/2
f 100/1/2 101/1/2 105/1/2
f 104/2/2 100/2/2 105/2/2
f 101/1/2 102/1/2 105/1/2
f 102/1/2 103/1/2 105/1/2
f 103/2/2 91/2/2 106/2/2
f 105/1/2 103/1/2 106/1/2
f 106/2/2 91/2/2 107/2/2
f 104/1/2 105/1/2 108/1/2
f 105/1/2 106/1/2 108/1/2
f 106/1/2 107/1/2 108/1/2
f 108/1/2 107/1/2 109/1/2
f 104/1/2 108/1/2 110/1/2
f 108/3/2 109/3/2 111/3/2
f 110/1/2 108/1/2 111/1/2
f 111/3/2 109/3/2 112/3/2
f 109/1/2 107/1/2 113/1/2
f 112/3/2 109/3/2 113/3/2
f 113/1/2 107/1/2 114/1/2
f 104/1/2 110/1/2 115/1/2
f 111/3/2 112/3/2 116/3/2
f 115/1/2 110/1/2 116/1/2
f 110/3/2 111/3/2 116/3/2
f 116/3/2 112/3/2 117/3/2
f 113/2/2 114/2/2 118/2/2
f 117/3/2 112/3/2 118/3/2
f 112/2/2 113/2/2 118/2/2
f 114/1/2 107/1/2 119/1/2
f 118/2/2 114/2/2 119/2/2
f 119/1/2 107/1/2 120/1/2
f 116/3/2 117/3/2 121/3/2
f 115/3/2 116/3/2 121/3/2
f 117/2/2 118/2/2 122/2/2
f 121/3/2 117/3/2 122/3/2
f 119/2/2 120/2/2 122/2/2
f 118/2/2 119/2/2 122/2/2
f 104/1/2 115/1/2 123/1/2
f 115/3/2 121/3/2 124/3/2
f 123/1/2 115/1/2 124/1/2
f 121/2/2 122/2/2 125/2/2
f 124/3/2 121/3/2 125/3/2
f 122/2/2 120/2/2 126/2/2
f 125/2/2 122/2/2 126/2/2
f 120/1/2 107/1/2 126/1/2
f 126/1/2 107/1/2 127/1/2
f 133/3/3 130/3/3 129/3/3
f 133/2/3 131/2/3 130/2/3
f 134/2/3 131/2/3 133/2/3
f 135/1/3 129/1/3 128/1/3
f 135/3/3 133/3/3 129/3/3
f 135/3/3 134/3/3 133/3/3
f 136/3/3 134/3/3 135/3/3
f 137/2/3 131/2/3 134/2/3
f 137/3/3 134/3/3 136/3/3
f 138/2/3 131/2/3 137/2/3
f 139/2/3 131/2/3 138/2/3
f 140/1/3 132/1/3 131/1/3
f 140/2/3 131/2/3 139/2/3
f 141/1/3 136/1/3 135/1/3
f 141/3/3 137/3/3 136/3/3
f 141/3/3 138/3/3 137/3/3
f 142/3/3 138/3/3 141/3/3
f 143/2/3 139/2/3 138/2/3
f 143/3/3 138/3/3 142/3/3
f 144/2/3 139/2/3 143/2/3
f 145/1/3 140/1/3 139/1/3
f 145/2/3 139/2/3 144/2/3
f 146/1/3 142/1/3 141/1/3
f 146/3/3 144/3/3 143/3/3
f 146/3/3 143/3/3 142/3/3
f 147/1/3 145/1/3 144/1/3
f 147/3/3 144/3/3 146/3/3
f 148/1/3 135/1/3 128/1/3
f 148/1/3 146/1/3 141/1/3
f 148/1/3 147/1/3 146/1/3
f 148/1/3 141/1/3 135/1/3
f 149/1/3 147/1/3 148/1/3
f 150/1/3 132/1/3 140/1/3
f 150/1/3 147/1/3 149/1/3
f 150/1/3 140/1/3 145/1/3
f 150/1/3 145/1/3 147/1/3
f 151/1/3 132/1/3 150/1/3
f 152/3/3 149/3/3 148/3/3
f 153/1/3 150/1/3 149/1/3
f 153/3/3 149/3/3 152/3/3
f 154/1/3 150/1/3 153/1/3
f 155/1/3 150/1/3 154/1/3
f 156/3/3 151/3/3 150/3/3
f 156/1/3 150/1/3 155/1/3
f 157/3/3 151/3/3 156/3/3
f 158/3/3 151/3/3 157/3/3
f 159/1/3 155/1/3 154/1/3
f 159/2/3 153/2/3 152/2/3
f 159/2/3 154/2/3 153/2/3
f 160/1/3 155/1/3 159/1/3
f 161/1/3 155/1/3 160/1/3
f 162/3/3 157/3/3 156/3/3
f 162/1/3 155/1/3 161/1/3
f 162/3/3 156/3/3 155/3/3
f 163/3/3 157/3/3 162/3/3
f 164/2/3 158/2/3 157/2/3
f 164/3/3 157/3/3 163/3/3
f 165/3/3 163/3/3 162/3/3
f 165/3/3 162/3/3 161/3/3
f 166/2/3 164/2/3 163/2/3
f 166/3/3 163/3/3 165/3/3
f 167/2/3 160/2/3 159/2/3
f 167/2/3 159/2/3 152/2/3
f 168/1/3 161/1/3 160/1/3
f 168/2/3 160/2/3 167/2/3
f 169/3/3 165/3/3 161/3/3
f 169/1/3 161/1/3 168/1/3
f 170/2/3 166/2/3 165/2/3
f 170/3/3 165/3/3 169/3/3
f 171/2/3 167/2/3 152/2/3
f 172/1/3 169/1/3 168/1/3
f 172/2/3 167/2/3 171/2/3
f 172/1/3 168/1/3 167/1/3
f 172/1/3 170/1/3 169/1/3
f 173/2/3 166/2/3 170/2/3
f 173/1/3 170/1/3 172/1/3
f 174/2/3 164/2/3 166/2/3
f 174/2/3 166/2/3 173/2/3
f 175/2/3 171/2/3 152/2/3
f 176/1/3 172/1/3 171/1/3
f 176/2/3 171/2/3 175/2/3
f 176/1/3 173/1/3 172/1/3
f 176/1/3 174/1/3 173/1/3
f 177/1/3 174/1/3 176/1/3
f 178/1/3 174/1/3 177/1/3
f 179/2/3 164/2/3 174/2/3
f 179/1/3 174/1/3 178/1/3
f 180/2/3 158/2/3 164/2/3
f 180/2/3 164/2/3 179/2/3
f 181/1/3 176/1/3 175/1/3
f 181/1/3 177/1/3 176/1/3
f 182/3/3 178/3/3 177/3/3
f 182/1/3 177/1/3 181/1/3
f 183/3/3 178/3/3 182/3/3
f 184/1/3 179/1/3 178/1/3
f 184/3/3 178/3/3 183/3/3
f 184/1/3 180/1/3 179/1/3
f 185/1/3 180/1/3 184/1/3
f 186/1/3 181/1/3 175/1/3
f 187/3/3 183/3/3 182/3/3
f 187/1/3 181/1/3 186/1/3
f 187/3/3 182/3/3 181/3/3
f 188/3/3 183/3/3 187/3/3
f 189/2/3 185/2/3 184/2/3
f 189/3/3 183/3/3 188/3/3
f 189/2/3 184/2/3 183/2/3
f 190/1/3 180/1/3 185/1/3
f 190/2/3 185/2/3 189/2/3
f 191/1/3 180/1/3 190/1/3
f 192/3/3 188/3/3 187/3/3
f 192/3/3 187/3/3 186/3/3
f 193/2/3 189/2/3 188/2/3
f 193/3/3 188/3/3 192/3/3
f 193/2/3 191/2/3 190/2/3
f 193/2/3 190/2/3 189/2/3
f 194/1/3 186/1/3 175/1/3
f 195/3/3 192/3/3 186/3/3
f 195/1/3 186/1/3 194/1/3
f 196/2/3 193/2/3 192/2/3
f 196/3/3 192/3/3 195/3/3
f 197/2/3 191/2/3 193/2/3
f 197/2/3 193/2/3 196/2/3
f 197/1/3 180/1/3 191/1/3
f 198/1/3 180/1/3 197/1/3
f 199/1/4 200/1/4 204/1/4
f 200/3/4 201/3/4 204/3/4
f 201/2/4 202/2/4 205/2/4
f 204/3/4 201/3/4 205/3/4
f 205/2/4 202/2/4 206/2/4
f 202/1/4 203/1/4 207/1/4
f 206/2/4 202/2/4 207/2/4
f 205/2/4 206/2/4 208/2/4
f 204/1/4 205/1/4 208/1/4
f 208/2/4 206/2/4 209/2/4
f 209/2/4 206/2/4 210/2/4
f 206/1/4 207/1/4 211/1/4
f 210/2/4 206/2/4 211/2/4
f 209/2/4 210/2/4 212/2/4
f 208/1/4 209/1/4 212/1/4
f 210/1/4 211/1/4 213/1/4
f 212/2/4 210/2/4 213/2/4
f 199/1/4 204/1/4 214/1/4
f 204/1/4 208/1/4 214/1/4
f 212/1/4 213/1/4 214/1/4
f 208/1/4 212/1/4 214/1/4
f 214/1/4 213/1/4 215/1/4
f 207/1/4 203/1/4 216/1/4
f 215/1/4 213/1/4 216/1/4
f 213/1/4 211/1/4 216/1/4
f 211/1/4 207/1/4 216/1/4
f 216/1/4 203/1/4 217/1/4
f 214/3/4 215/3/4 218/3/4
f 215/1/4 216/1/4 219/1/4
f 218/3/4 215/3/4 219/3/4
f 219/1/4 216/1/4 220/1/4
f 220/1/4 216/1/4 221/1/4
f 216/3/4 217/3/4 222/3/4
f 221/1/4 216/1/4 222/1/4
f 222/3/4 217/3/4 223/3/4
f 223/3/4 217/3/4 224/3/4
f 220/1/4 221/1/4 225/1/4
f 218/2/4 219/2/4 225/2/4
f 219/2/4 220/2/4 225/2/4
f 225/1/4 221/1/4 226/1/4
f 226/1/4 221/1/4 227/1/4
f 222/3/4 223/3/4 228/3/4
f 227/1/4 221/1/4 228/1/4
f 221/3/4 222/3/4 228/3/4
f 228/3/4 223/3/4 229/3/4
f 223/2/4 224/2/4 230/2/4
f 229/3/4 223/3/4 230/3/4
f 228/3/4 229/3/4 231/3/4
f 227/3/4 228/3/4 231/3/4
f 229/2/4 230/2/4 232/2/4
f 231/3/4 229/3/4 232/3/4
f 225/2/4 226/2/4 233/2/4
f 218/2/4 225/2/4 233/2/4
f 226/1/4 227/1/4 234/1/4
f 233/2/4 226/2/4 234/2/4
f 227/3/4 231/3/4 235/3/4
f 234/1/4 227/1/4 235/1/4
f 231/2/4 232/2/4 236/2/4
f 235/3/4 231/3/4 236/3/4
f 218/2/4 233/2/4 237/2/4
f 234/1/4 235/1/4 238/1/4
f 237/2/4 233/2/4 238/2/4
f 233/1/4 234/1/4 238/1/4
f 235/1/4 236/1/4 238/1/4
f 236/2/4 232/2/4 239/2/4
f 238/1/4 236/1/4 239/1/4
f 232/2/4 230/2/4 240/2/4
f 239/2/4 232/2/4 240/2/4
f 218/2/4 237/2/4 241/2/4
f 237/1/4 238/1/4 242/1/4
f 241/2/4 237/2/4 242/2/4
f 238/1/4 239/1/4 242/1/4
f 239/1/4 240/1/4 242/1/4
f 242/1/4 240/1/4 243/1/4
f 243/1/4 240/1/4 244/1/4
f 240/2/4 230/2/4 245/2/4
f 244/1/4 240/1/4 245/1/4
f 230/2/4 224/2/4 246/2/4
f 245/2/4 230/2/4 246/2/4
f 241/1/4 242/1/4 247/1/4
f 242/1/4 243/1/4 247/1/4
f 243/3/4 244/3/4 248/3/4
f 247/1/4 243/1/4 248/1/4
f 248/3/4 244/3/4 249/3/4
f 244/1/4 245/1/4 250/1/4
f 249/3/4 244/3/4 250/3/4
f 245/1/4 246/1/4 250/1/4
f 250/1/4 246/1/4 251/1/4
f 241/1/4 247/1/4 252/1/4
f 248/3/4 249/3/4 253/3/4
f 252/1/4 247/1/4 253/1/4
f 247/3/4 248/3/4 253/3/4
f 253/3/4 249/3/4 254/3/4
f 250/2/4 251/2/4 255/2/4
f 254/3/4 249/3/4 255/3/4
f 249/2/4 250/2/4 255/2/4
f 251/1/4 246/1/4 256/1/4
f 255/2/4 251/2/4 256/2/4
f 256/1/4 246/1/4 257/1/4
f 253/3/4 254/3/4 258/3/4
f 252/3/4 253/3/4 258/3/4
f 254/2/4 255/2/4 259/2/4
f 258/3/4 254/3/4 259/3/4
f 256/2/4 257/2/4 259/2/4
f 255/2/4 256/2/4 259/2/4
f 241/1/4 252/1/4 260/1/4
f 252/3/4 258/3/4 261/3/4
f 260/1/4 252/1/4 261/1/4
f 258/2/4 259/2/4 262/2/4
f 261/3/4 258/3/4 262/3/4
f 259/2/4 257/2/4 263/2/4
f 262/2/4 259/2/4 263/2/4
f 257/1/4 246/1/4 263/1/4
f 263/1/4 246/1/4 264/1/4
f 270/3/5 267/3/5 266/3/5
f 270/2/5 268/2/5 267/2/5
f 271/2/5 268/2/5 270/2/5
f 272/1/5 266/1/5 265/1/5
f 272/3/5 270/3/5 266/3/5
f 272/3/5 271/3/5 270/3/5
f 273/3/5 271/3/5 272/3/5
f 274/2/5 268/2/5 271/2/5
f 274/3/5 271/3/5 273/3/5
f 275/2/5 268/2/5 274/2/5
f 276/2/5 268/2/5 275/2/5
f 277/1/5 269/1/5 268/1/5
f 277/2/5 268/2/5 276/2/5
f 278/1/5 273/1/5 272/1/5
f 278/3/5 274/3/5 273/3/5
f 278/3/5 275/3/5 274/3/5
f 279/3/5 275/3/5 278/3/5
f 280/2/5 276/2/5 275/2/5
f 280/3/5 275/3/5 279/3/5
f 281/2/5 276/2/5 280/2/5
f 282/1/5 277/1/5 276/1/5
f 282/2/5 276/2/5 281/2/5
f 283/1/5 279/1/5 278/1/5
f 283/3/5 281/3/5 280/3/5
f 283/3/5 280/3/5 279/3/5
f 284/1/5 282/1/5 281/1/5
f 284/3/5 281/3/5 283/3/5
f 285/1/5 272/1/5 265/1/5
f 285/1/5 283/1/5 278/1/5
f 285/1/5 284/1/5 283/1/5
f 285/1/5 278/1/5 272/1/5
f 286/1/5 284/1/5 285/1/5
f 287/1/5 269/1/5 277/1/5
f 287/1/5 284/1/5 286/1/5
f 287/1/5 277/1/5 282/1/5
f 287/1/5 282/1/5 284/1/5
f 288/1/5 269/1/5 287/1/5
f 289/3/5 286/3/5 285/3/5
f 290/3/5 286/3/5 289/3/5
f 291/1/5 287/1/5 286/1/5
f 291/3/5 286/3/5 290/3/5
f 292/1/5 287/1/5 291/1/5
f 293/1/5 287/1/5 292/1/5
f 294/3/5 288/3/5 287/3/5
f 294/1/5 287/1/5 293/1/5
f 295/3/5 288/3/5 294/3/5
f 296/2/5 290/2/5 289/2/5
f 296/3/5 291/3/5 290/3/5
f 296/3/5 292/3/5 291/3/5
f 297/3/5 292/3/5 296/3/5
f 298/1/5 293/1/5 292/1/5
f 298/3/5 292/3/5 297/3/5
f 299/1/5 293/1/5 298/1/5
f 300/1/5 293/1/5 299/1/5
f 301/2/5 295/2/5 294/2/5
f 301/1/5 293/1/5 300/1/5
f 301/2/5 294/2/5 293/2/5
f 302/2/5 297/2/5 296/2/5
f 302/3/5 299/3/5 298/3/5
f 302/3/5 298/3/5 297/3/5
f 303/3/5 299/3/5 302/3/5
f 304/2/5 303/2/5 302/2/5
f 304/3/5 299/3/5 303/3/5
f 305/1/5 300/1/5 299/1/5
f 305/3/5 299/3/5 304/3/5
f 306/2/5 301/2/5 300/2/5
f 306/1/5 300/1/5 305/1/5
f 307/2/5 295/2/5 301/2/5
f 307/2/5 301/2/5 306/2/5
f 308/2/5 304/2/5 302/2/5
f 308/2/5 302/2/5 296/2/5
f 309/1/5 306/1/5 305/1/5
f 309/2/5 304/2/5 308/2/5
f 309/1/5 305/1/5 304/1/5
f 309/1/5 307/1/5 306/1/5
f 310/2/5 295/2/5 307/2/5
f 310/1/5 307/1/5 309/1/5
f 311/2/5 295/2/5 310/2/5
f 312/2/5 308/2/5 296/2/5
f 312/2/5 296/2/5 289/2/5
f 313/1/5 309/1/5 308/1/5
f 313/2/5 308/2/5 312/2/5
f 313/1/5 311/1/5 310/1/5
f 313/1/5 310/1/5 309/1/5
f 314/2/5 295/2/5 311/2/5
f 314/1/5 311/1/5 313/1/5
f 315/2/5 295/2/5 314/2/5
f 316/1/5 313/1/5 312/1/5
f 316/1/5 314/1/5 313/1/5
f 316/1/5 315/1/5 314/1/5
f 317/1/5 315/1/5 316/1/5
f 318/1/5 316/1/5 312/1/5
f 319/2/5 317/2/5 316/2/5
f 319/1/5 316/1/5 318/1/5
f 320/1/5 315/1/5 317/1/5
f 320/2/5 317/2/5 319/2/5
f 321/1/5 315/1/5 320/1/5
f 322/1/5 318/1/5 312/1/5
f 323/2/5 319/2/5 318/2/5
f 323/1/5 318/1/5 322/1/5
f 323/2/5 320/2/5 319/2/5
f 323/2/5 321/2/5 320/2/5
f 324/1/5 315/1/5 321/1/5
f 324/2/5 321/2/5 323/2/5
f 325/1/5 315/1/5 324/1/5
f 326/1/5 322/1/5 312/1/5
f 327/3/5 323/3/5 322/3/5
f 327/1/5 322/1/5 326/1/5
f 328/2/5 324/2/5 323/2/5
f 328/3/5 323/3/5 327/3/5
f 328/2/5 325/2/5 324/2/5
f 329/1/5 315/1/5 325/1/5
f 329/2/5 325/2/5 328/2/5
f 330/1/5 315/1/5 329/1/5
f 331/1/6 332/1/6 336/1/6
f 332/3/6 333/3/6 336/3/6
f 333/2/6 334/2/6 337/2/6
f 336/3/6 333/3/6 337/3/6
f 337/2/6 334/2/6 338/2/6
f 334/1/6 335/1/6 339/1/6
f 338/2/6 334/2/6 339/2/6
f 337/2/6 338/2/6 340/2/6
f 336/1/6 337/1/6 340/1/6
f 340/2/6 338/2/6 341/2/6
f 341/2/6 338/2/6 342/2/6
f 338/1/6 339/1/6 343/1/6
f 342/2/6 338/2/6 343/2/6
f 341/2/6 342/2/6 344/2/6
f 340/1/6 341/1/6 344/1/6
f 342/1/6 343/1/6 345/1/6
f 344/2/6 342/2/6 345/2/6
f 331/1/6 336/1/6 346/1/6
f 336/1/6 340/1/6 346/1/6
f 344/1/6 345/1/6 346/1/6
f 340/1/6 344/1/6 346/1/6
f 346/1/6 345/1/6 347/1/6
f 339/1/6 335/1/6 348/1/6
f 347/1/6 345/1/6 348/1/6
f 345/1/6 343/1/6 348/1/6
f 343/1/6 339/1/6 348/1/6
f 348/1/6 335/1/6 349/1/6
f 346/3/6 347/3/6 350/3/6
f 347/1/6 348/1/6 351/1/6
f 350/3/6 347/3/6 351/3/6
f 351/1/6 348/1/6 352/1/6
f 352/1/6 348/1/6 353/1/6
f 348/3/6 349/3/6 354/3/6
f 353/1/6 348/1/6 354/1/6
f 354/3/6 349/3/6 355/3/6
f 352/1/6 353/1/6 356/1/6
f 350/2/6 351/2/6 356/2/6
f 351/2/6 352/2/6 356/2/6
f 356/1/6 353/1/6 357/1/6
f 357/1/6 353/1/6 358/1/6
f 354/2/6 355/2/6 359/2/6
f 358/1/6 353/1/6 359/1/6
f 353/2/6 354/2/6 359/2/6
f 356/2/6 357/2/6 360/2/6
f 350/2/6 356/2/6 360/2/6
f 357/1/6 358/1/6 361/1/6
f 360/2/6 357/2/6 361/2/6
f 358/2/6 359/2/6 362/2/6
f 361/1/6 358/1/6 362/1/6
f 359/2/6 355/2/6 363/2/6
f 362/2/6 359/2/6 363/2/6
f 350/2/6 360/2/6 364/2/6
f 361/1/6 362/1/6 365/1/6
f 364/2/6 360/2/6 365/2/6
f 360/1/6 361/1/6 365/1/6
f 362/1/6 363/1/6 365/1/6
f 363/2/6 355/2/6 366/2/6
f 365/1/6 363/1/6 366/1/6
f 366/2/6 355/2/6 367/2/6
f 350/2/6 364/2/6 368/2/6
f 364/1/6 365/1/6 369/1/6
f 368/2/6 364/2/6 369/2/6
f 365/1/6 366/1/6 369/1/6
f 366/1/6 367/1/6 369/1/6
f 367/2/6 355/2/6 370/2/6
f 369/1/6 367/1/6 370/1/6
f 370/2/6 355/2/6 371/2/6
f 368/1/6 369/1/6 372/1/6
f 369/1/6 370/1/6 372/1/6
f 370/1/6 371/1/6 372/1/6
f 372/1/6 371/1/6 373/1/6
f 368/1/6 372/1/6 374/1/6
f 372/3/6 373/3/6 375/3/6
f 374/1/6 372/1/6 375/1/6
f 375/3/6 373/3/6 376/3/6
f 373/1/6 371/1/6 377/1/6
f 376/3/6 373/3/6 377/3/6
f 377/1/6 371/1/6 378/1/6
f 368/1/6 374/1/6 379/1/6
f 375/3/6 376/3/6 380/3/6
f 379/1/6 374/1/6 380/1/6
f 374/3/6 375/3/6 380/3/6
f 380/3/6 376/3/6 381/3/6
f 377/2/6 378/2/6 382/2/6
f 381/3/6 376/3/6 382/3/6
f 376/2/6 377/2/6 382/2/6
f 378/1/6 371/1/6 383/1/6
f 382/2/6 378/2/6 383/2/6
f 383/1/6 371/1/6 384/1/6
f 380/3/6 381/3/6 385/3/6
f 379/3/6 380/3/6 385/3/6
f 381/2/6 382/2/6 386/2/6
f 385/3/6 381/3/6 386/3/6
f 383/2/6 384/2/6 386/2/6
f 382/2/6 383/2/6 386/2/6
f 368/1/6 379/1/6 387/1/6
f 379/3/6 385/3/6 388/3/6
f 387/1/6 379/1/6 388/1/6
f 385/2/6 386/2/6 389/2/6
f 388/3/6 385/3/6 389/3/6
f 386/2/6 384/2/6 390/2/6
f 389/2/6 386/2/6 390/2/6
f 384/1/6 371/1/6 390/1/6
f 390/1/6 371/1/6 391/1/6
