# MagicaVoxel @ Ephtracy

# group
o 

# material
mtllib Cheese.mtl
usemtl palette

# normals
vn -1 0 0
vn 1 0 0
vn 0 0 1
vn 0 0 -1
vn 0 -1 0
vn 0 1 0

# texcoords
vt 0.0371094 0.5
vt 0.0644531 0.5
vt 0.0683594 0.5

# verts
v -1.3 0 1.3
v -1.3 0 0.3
v -1.3 0 0.2
v -1.3 0 -0.6
v -1.3 0 -1.2
v -1.3 0.3 0.3
v -1.3 0.3 0.2
v -1.3 0.3 -0.5
v -1.3 0.3 -0.6
v -1.3 0.4 0.2
v -1.3 0.4 0.1
v -1.3 0.4 -0.4
v -1.3 0.4 -0.5
v -1.3 0.5 0.1
v -1.3 0.5 -0.4
v -1.3 0.7 1.3
v -1.3 0.7 1
v -1.3 0.7 -0.9
v -1.3 0.7 -1.2
v -1.3 0.8 1.3
v -1.3 0.8 1
v -1.3 0.8 0.9
v -1.3 0.8 -0.8
v -1.3 0.8 -0.9
v -1.3 0.8 -1
v -1.3 0.8 -1.2
v -1.3 0.9 0.9
v -1.3 0.9 0.8
v -1.3 0.9 -0.7
v -1.3 0.9 -0.8
v -1.3 0.9 -0.9
v -1.3 0.9 -1
v -1.3 1 -0.8
v -1.3 1 -0.9
v -1.3 1.5 0.9
v -1.3 1.5 0.8
v -1.3 1.5 -0.7
v -1.3 1.5 -0.8
v -1.3 1.6 1
v -1.3 1.6 0.9
v -1.3 1.6 -0.8
v -1.3 1.6 -0.9
v -1.3 1.7 1.3
v -1.3 1.7 1
v -1.3 1.7 -0.9
v -1.3 1.7 -1.2
v -1.3 2 0.1
v -1.3 2 -0.4
v -1.3 2.1 0.2
v -1.3 2.1 0.1
v -1.3 2.1 1.19209e-07
v -1.3 2.1 -0.4
v -1.3 2.1 -0.5
v -1.3 2.2 0.3
v -1.3 2.2 0.2
v -1.3 2.2 0.1
v -1.3 2.2 1.19209e-07
v -1.3 2.2 -0.5
v -1.3 2.2 -0.6
v -1.3 2.3 0.2
v -1.3 2.3 0.1
v -1.3 2.5 1.3
v -1.3 2.5 0.3
v -1.3 2.5 0.2
v -1.3 2.5 -0.6
v -1.3 2.5 -1.2
v 1.2 0 1.3
v 1.2 0 -1.2
v 1.2 0.7 1.3
v 1.2 0.7 1
v 1.2 0.7 -0.9
v 1.2 0.7 -1.2
v 1.2 0.8 1.3
v 1.2 0.8 1
v 1.2 0.8 0.9
v 1.2 0.8 -0.8
v 1.2 0.8 -0.9
v 1.2 0.8 -1.2
v 1.2 0.9 0.9
v 1.2 0.9 0.8
v 1.2 0.9 -0.7
v 1.2 0.9 -0.8
v 1.2 1.5 0.9
v 1.2 1.5 0.8
v 1.2 1.5 -0.7
v 1.2 1.5 -0.8
v 1.2 1.6 1
v 1.2 1.6 0.9
v 1.2 1.6 -0.8
v 1.2 1.6 -0.9
v 1.2 1.7 1.3
v 1.2 1.7 1
v 1.2 1.7 -0.9
v 1.2 1.7 -1.2
v 1.2 2.5 1.3
v 1.2 2.5 -1.2
v -1.3 0 1.3
v -1.3 0.7 1.3
v -1.3 0.8 1.3
v -1.3 1.7 1.3
v -1.3 2.5 1.3
v -1.1 0.8 1.3
v -1.1 0.9 1.3
v -1 0.7 1.3
v -1 0.8 1.3
v -1 0.9 1.3
v -1 1 1.3
v -1 1.6 1.3
v -1 1.7 1.3
v -0.9 0.8 1.3
v -0.9 0.9 1.3
v -0.9 1 1.3
v -0.9 1.5 1.3
v -0.9 1.6 1.3
v -0.8 0.9 1.3
v -0.8 1.5 1.3
v -0.5 0 1.3
v -0.5 0.3 1.3
v -0.4 0.3 1.3
v -0.4 0.4 1.3
v -0.3 0.4 1.3
v -0.3 0.5 1.3
v -0.3 2.2 1.3
v -0.3 2.5 1.3
v -0.2 2.1 1.3
v -0.2 2.2 1.3
v -0.2 2.3 1.3
v -0.2 2.5 1.3
v -0.1 2 1.3
v -0.1 2.1 1.3
v -0.1 2.2 1.3
v -0.1 2.3 1.3
v -1.19209e-07 2.1 1.3
v -1.19209e-07 2.2 1.3
v 0.3 0.4 1.3
v 0.3 0.5 1.3
v 0.4 0 1.3
v 0.4 0.3 1.3
v 0.4 0.4 1.3
v 0.5 0 1.3
v 0.5 0.3 1.3
v 0.5 2 1.3
v 0.5 2.1 1.3
v 0.6 2.1 1.3
v 0.6 2.2 1.3
v 0.7 0.9 1.3
v 0.7 1.5 1.3
v 0.7 2.2 1.3
v 0.7 2.5 1.3
v 0.8 0.8 1.3
v 0.8 0.9 1.3
v 0.8 1 1.3
v 0.8 1.5 1.3
v 0.8 1.6 1.3
v 0.9 0.7 1.3
v 0.9 0.8 1.3
v 0.9 0.9 1.3
v 0.9 1 1.3
v 0.9 1.6 1.3
v 0.9 1.7 1.3
v 1 0.8 1.3
v 1 0.9 1.3
v 1.2 0 1.3
v 1.2 0.7 1.3
v 1.2 0.8 1.3
v 1.2 1.7 1.3
v 1.2 2.5 1.3
v -1.3 0 -1.2
v -1.3 0.7 -1.2
v -1.3 0.8 -1.2
v -1.3 1.7 -1.2
v -1.3 2.5 -1.2
v -1 0.7 -1.2
v -1 0.8 -1.2
v -1 1.6 -1.2
v -1 1.7 -1.2
v -0.9 0.8 -1.2
v -0.9 0.9 -1.2
v -0.9 1.5 -1.2
v -0.9 1.6 -1.2
v -0.8 0.9 -1.2
v -0.8 1.5 -1.2
v -0.4 0.3 -1.2
v -0.4 0.7 -1.2
v -0.3 0.2 -1.2
v -0.3 0.3 -1.2
v -0.3 0.4 -1.2
v -0.3 0.7 -1.2
v -0.3 0.8 -1.2
v -0.3 2.2 -1.2
v -0.3 2.5 -1.2
v -0.2 0.3 -1.2
v -0.2 0.4 -1.2
v -0.2 2.1 -1.2
v -0.2 2.2 -1.2
v -0.2 2.3 -1.2
v -0.2 2.5 -1.2
v -0.1 2 -1.2
v -0.1 2.1 -1.2
v -0.1 2.2 -1.2
v -0.1 2.3 -1.2
v -1.19209e-07 2.1 -1.2
v -1.19209e-07 2.2 -1.2
v 0.0999999 0.2 -1.2
v 0.0999999 0.3 -1.2
v 0.0999999 0.7 -1.2
v 0.0999999 0.8 -1.2
v 0.2 0.3 -1.2
v 0.2 0.7 -1.2
v 0.5 2 -1.2
v 0.5 2.1 -1.2
v 0.6 2.1 -1.2
v 0.6 2.2 -1.2
v 0.7 0.9 -1.2
v 0.7 1.5 -1.2
v 0.7 2.2 -1.2
v 0.7 2.5 -1.2
v 0.8 0.8 -1.2
v 0.8 0.9 -1.2
v 0.8 1 -1.2
v 0.8 1.5 -1.2
v 0.8 1.6 -1.2
v 0.9 0.7 -1.2
v 0.9 0.8 -1.2
v 0.9 0.9 -1.2
v 0.9 1 -1.2
v 0.9 1.6 -1.2
v 0.9 1.7 -1.2
v 1 0.8 -1.2
v 1 0.9 -1.2
v 1.2 0 -1.2
v 1.2 0.7 -1.2
v 1.2 0.8 -1.2
v 1.2 1.7 -1.2
v 1.2 2.5 -1.2
v -1.3 0 1.3
v -0.5 0 1.3
v 0.4 0 1.3
v 0.5 0 1.3
v 1.2 0 1.3
v 0.3 0 1.1
v 0.4 0 1.1
v -0.5 0 1
v -0.4 0 1
v 0.2 0 1
v 0.3 0 1
v 0.4 0 1
v 0.5 0 1
v -0.4 0 0.9
v -0.3 0 0.9
v 0.2 0 0.9
v 0.3 0 0.9
v 0.4 0 0.9
v -0.3 0 0.8
v 0.3 0 0.8
v -1.3 0 0.3
v -0.9 0 0.3
v -1.3 0 0.2
v -1 0 0.2
v -0.9 0 0.2
v -0.8 0 0.2
v -1 0 0.1
v -0.9 0 0.1
v -0.8 0 0.1
v -0.7 0 0.1
v -0.9 0 1.19209e-07
v -0.8 0 1.19209e-07
v 0.3 0 1.19209e-07
v 0.7 0 1.19209e-07
v 0.0999999 0 -0.0999999
v 0.3 0 -0.0999999
v 0.6 0 -0.0999999
v 0.7 0 -0.0999999
v 0.9 0 -0.0999999
v 0.6 0 -0.2
v 0.8 0 -0.2
v -1.19209e-07 0 -0.3
v 0.0999999 0 -0.3
v 0.9 0 -0.3
v 1 0 -0.3
v -0.8 0 -0.4
v -0.7 0 -0.4
v 0.8 0 -0.4
v 0.9 0 -0.4
v -0.9 0 -0.5
v -0.8 0 -0.5
v -1.3 0 -0.6
v -0.9 0 -0.6
v -1.19209e-07 0 -0.7
v 0.0999999 0 -0.7
v 0.9 0 -0.7
v 1 0 -0.7
v 0.0999999 0 -0.9
v 0.3 0 -0.9
v 0.7 0 -0.9
v 0.9 0 -0.9
v 0.3 0 -1
v 0.7 0 -1
v -1.3 0 -1.2
v 1.2 0 -1.2
v -1.3 2.5 1.3
v -0.3 2.5 1.3
v -0.2 2.5 1.3
v 0.7 2.5 1.3
v 1.2 2.5 1.3
v -0.3 2.5 1
v -0.2 2.5 1
v 0.6 2.5 1
v 0.7 2.5 1
v -0.2 2.5 0.9
v -0.1 2.5 0.9
v 0.5 2.5 0.9
v 0.6 2.5 0.9
v -0.1 2.5 0.8
v 0.5 2.5 0.8
v -1.3 2.5 0.3
v -1 2.5 0.3
v 0.5 2.5 0.3
v 0.9 2.5 0.3
v -1.3 2.5 0.2
v -1 2.5 0.2
v -0.9 2.5 0.2
v 0.4 2.5 0.2
v 0.5 2.5 0.2
v 0.6 2.5 0.2
v 0.9 2.5 0.2
v 1 2.5 0.2
v -0.9 2.5 0.1
v -0.8 2.5 0.1
v 0.5 2.5 0.1
v 0.6 2.5 0.1
v 0.4 2.5 -0.2
v 0.5 2.5 -0.2
v 0.9 2.5 -0.2
v 1 2.5 -0.2
v 0.5 2.5 -0.3
v 0.9 2.5 -0.3
v -0.9 2.5 -0.4
v -0.8 2.5 -0.4
v -1 2.5 -0.5
v -0.9 2.5 -0.5
v -1.3 2.5 -0.6
v -1 2.5 -0.6
v -0.1 2.5 -0.7
v 0.5 2.5 -0.7
v -0.2 2.5 -0.8
v -0.1 2.5 -0.8
v -1.19209e-07 2.5 -0.8
v 0.5 2.5 -0.8
v 0.6 2.5 -0.8
v -0.3 2.5 -0.9
v -0.2 2.5 -0.9
v -0.1 2.5 -0.9
v -1.19209e-07 2.5 -0.9
v 0.6 2.5 -0.9
v 0.7 2.5 -0.9
v -0.2 2.5 -1
v -0.1 2.5 -1
v -1.3 2.5 -1.2
v -0.3 2.5 -1.2
v -0.2 2.5 -1.2
v 0.7 2.5 -1.2
v 1.2 2.5 -1.2

# faces
f 6/1/1 2/1/1 1/1/1
f 6/2/1 3/2/1 2/2/1
f 7/3/1 4/3/1 3/3/1
f 7/2/1 3/2/1 6/2/1
f 8/3/1 4/3/1 7/3/1
f 9/1/1 5/1/1 4/1/1
f 9/3/1 4/3/1 8/3/1
f 10/3/1 8/3/1 7/3/1
f 10/1/1 7/1/1 6/1/1
f 11/3/1 8/3/1 10/3/1
f 12/3/1 8/3/1 11/3/1
f 13/1/1 9/1/1 8/1/1
f 13/3/1 8/3/1 12/3/1
f 14/3/1 12/3/1 11/3/1
f 14/1/1 11/1/1 10/1/1
f 15/1/1 13/1/1 12/1/1
f 15/3/1 12/3/1 14/3/1
f 16/1/1 6/1/1 1/1/1
f 16/1/1 10/1/1 6/1/1
f 16/1/1 15/1/1 14/1/1
f 16/1/1 14/1/1 10/1/1
f 17/1/1 15/1/1 16/1/1
f 18/1/1 5/1/1 9/1/1
f 18/1/1 15/1/1 17/1/1
f 18/1/1 13/1/1 15/1/1
f 18/1/1 9/1/1 13/1/1
f 19/1/1 5/1/1 18/1/1
f 20/2/1 17/2/1 16/2/1
f 21/1/1 18/1/1 17/1/1
f 21/2/1 17/2/1 20/2/1
f 22/1/1 18/1/1 21/1/1
f 23/1/1 18/1/1 22/1/1
f 24/2/1 19/2/1 18/2/1
f 24/1/1 18/1/1 23/1/1
f 25/2/1 19/2/1 24/2/1
f 26/2/1 19/2/1 25/2/1
f 27/1/1 23/1/1 22/1/1
f 27/3/1 21/3/1 20/3/1
f 27/3/1 22/3/1 21/3/1
f 28/1/1 23/1/1 27/1/1
f 29/1/1 23/1/1 28/1/1
f 30/2/1 25/2/1 24/2/1
f 30/1/1 23/1/1 29/1/1
f 30/2/1 24/2/1 23/2/1
f 31/2/1 25/2/1 30/2/1
f 32/3/1 26/3/1 25/3/1
f 32/2/1 25/2/1 31/2/1
f 33/2/1 31/2/1 30/2/1
f 33/2/1 30/2/1 29/2/1
f 34/3/1 32/3/1 31/3/1
f 34/2/1 31/2/1 33/2/1
f 35/3/1 28/3/1 27/3/1
f 35/3/1 27/3/1 20/3/1
f 36/1/1 29/1/1 28/1/1
f 36/3/1 28/3/1 35/3/1
f 37/2/1 33/2/1 29/2/1
f 37/1/1 29/1/1 36/1/1
f 38/3/1 34/3/1 33/3/1
f 38/2/1 33/2/1 37/2/1
f 39/3/1 35/3/1 20/3/1
f 40/1/1 37/1/1 36/1/1
f 40/3/1 35/3/1 39/3/1
f 40/1/1 36/1/1 35/1/1
f 40/1/1 38/1/1 37/1/1
f 41/3/1 34/3/1 38/3/1
f 41/1/1 38/1/1 40/1/1
f 42/3/1 32/3/1 34/3/1
f 42/3/1 34/3/1 41/3/1
f 43/3/1 39/3/1 20/3/1
f 44/1/1 40/1/1 39/1/1
f 44/3/1 39/3/1 43/3/1
f 44/1/1 41/1/1 40/1/1
f 44/1/1 42/1/1 41/1/1
f 45/3/1 32/3/1 42/3/1
f 45/1/1 42/1/1 44/1/1
f 46/3/1 26/3/1 32/3/1
f 46/3/1 32/3/1 45/3/1
f 47/1/1 45/1/1 44/1/1
f 47/1/1 44/1/1 43/1/1
f 47/1/1 46/1/1 45/1/1
f 48/1/1 46/1/1 47/1/1
f 49/1/1 47/1/1 43/1/1
f 50/2/1 48/2/1 47/2/1
f 50/1/1 47/1/1 49/1/1
f 51/2/1 48/2/1 50/2/1
f 52/1/1 46/1/1 48/1/1
f 52/2/1 48/2/1 51/2/1
f 53/1/1 46/1/1 52/1/1
f 54/1/1 49/1/1 43/1/1
f 55/2/1 51/2/1 50/2/1
f 55/1/1 49/1/1 54/1/1
f 55/2/1 50/2/1 49/2/1
f 56/2/1 51/2/1 55/2/1
f 57/3/1 53/3/1 52/3/1
f 57/2/1 51/2/1 56/2/1
f 57/3/1 52/3/1 51/3/1
f 58/1/1 46/1/1 53/1/1
f 58/3/1 53/3/1 57/3/1
f 59/1/1 46/1/1 58/1/1
f 60/2/1 56/2/1 55/2/1
f 60/2/1 55/2/1 54/2/1
f 61/3/1 57/3/1 56/3/1
f 61/2/1 56/2/1 60/2/1
f 61/3/1 59/3/1 58/3/1
f 61/3/1 58/3/1 57/3/1
f 62/1/1 54/1/1 43/1/1
f 63/2/1 60/2/1 54/2/1
f 63/1/1 54/1/1 62/1/1
f 64/3/1 61/3/1 60/3/1
f 64/2/1 60/2/1 63/2/1
f 65/3/1 59/3/1 61/3/1
f 65/3/1 61/3/1 64/3/1
f 65/1/1 46/1/1 59/1/1
f 66/1/1 46/1/1 65/1/1
f 67/1/2 68/1/2 69/1/2
f 69/1/2 68/1/2 70/1/2
f 70/1/2 68/1/2 71/1/2
f 71/1/2 68/1/2 72/1/2
f 69/2/2 70/2/2 73/2/2
f 70/1/2 71/1/2 74/1/2
f 73/2/2 70/2/2 74/2/2
f 74/1/2 71/1/2 75/1/2
f 75/1/2 71/1/2 76/1/2
f 71/2/2 72/2/2 77/2/2
f 76/1/2 71/1/2 77/1/2
f 77/2/2 72/2/2 78/2/2
f 75/1/2 76/1/2 79/1/2
f 73/3/2 74/3/2 79/3/2
f 74/3/2 75/3/2 79/3/2
f 79/1/2 76/1/2 80/1/2
f 80/1/2 76/1/2 81/1/2
f 77/3/2 78/3/2 82/3/2
f 81/1/2 76/1/2 82/1/2
f 76/3/2 77/3/2 82/3/2
f 79/3/2 80/3/2 83/3/2
f 73/3/2 79/3/2 83/3/2
f 80/1/2 81/1/2 84/1/2
f 83/3/2 80/3/2 84/3/2
f 81/3/2 82/3/2 85/3/2
f 84/1/2 81/1/2 85/1/2
f 82/3/2 78/3/2 86/3/2
f 85/3/2 82/3/2 86/3/2
f 73/3/2 83/3/2 87/3/2
f 84/1/2 85/1/2 88/1/2
f 87/3/2 83/3/2 88/3/2
f 83/1/2 84/1/2 88/1/2
f 85/1/2 86/1/2 88/1/2
f 86/3/2 78/3/2 89/3/2
f 88/1/2 86/1/2 89/1/2
f 89/3/2 78/3/2 90/3/2
f 73/3/2 87/3/2 91/3/2
f 87/1/2 88/1/2 92/1/2
f 91/3/2 87/3/2 92/3/2
f 88/1/2 89/1/2 92/1/2
f 89/1/2 90/1/2 92/1/2
f 90/3/2 78/3/2 93/3/2
f 92/1/2 90/1/2 93/1/2
f 93/3/2 78/3/2 94/3/2
f 91/1/2 92/1/2 95/1/2
f 92/1/2 93/1/2 95/1/2
f 93/1/2 94/1/2 95/1/2
f 95/1/2 94/1/2 96/1/2
f 102/2/3 99/2/3 98/2/3
f 102/3/3 100/3/3 99/3/3
f 103/3/3 100/3/3 102/3/3
f 104/1/3 98/1/3 97/1/3
f 104/2/3 102/2/3 98/2/3
f 104/2/3 103/2/3 102/2/3
f 105/2/3 103/2/3 104/2/3
f 106/3/3 100/3/3 103/3/3
f 106/2/3 103/2/3 105/2/3
f 107/3/3 100/3/3 106/3/3
f 108/3/3 100/3/3 107/3/3
f 109/1/3 101/1/3 100/1/3
f 109/3/3 100/3/3 108/3/3
f 110/1/3 105/1/3 104/1/3
f 110/2/3 106/2/3 105/2/3
f 110/2/3 107/2/3 106/2/3
f 111/2/3 107/2/3 110/2/3
f 112/3/3 108/3/3 107/3/3
f 112/2/3 107/2/3 111/2/3
f 113/3/3 108/3/3 112/3/3
f 114/1/3 109/1/3 108/1/3
f 114/3/3 108/3/3 113/3/3
f 115/1/3 111/1/3 110/1/3
f 115/2/3 113/2/3 112/2/3
f 115/2/3 112/2/3 111/2/3
f 116/1/3 114/1/3 113/1/3
f 116/2/3 113/2/3 115/2/3
f 117/1/3 104/1/3 97/1/3
f 117/1/3 115/1/3 110/1/3
f 117/1/3 116/1/3 115/1/3
f 117/1/3 110/1/3 104/1/3
f 118/1/3 116/1/3 117/1/3
f 119/3/3 118/3/3 117/3/3
f 119/1/3 116/1/3 118/1/3
f 120/1/3 116/1/3 119/1/3
f 121/3/3 120/3/3 119/3/3
f 121/1/3 116/1/3 120/1/3
f 122/1/3 116/1/3 121/1/3
f 123/1/3 101/1/3 109/1/3
f 123/1/3 116/1/3 122/1/3
f 123/1/3 109/1/3 114/1/3
f 123/1/3 114/1/3 116/1/3
f 124/1/3 101/1/3 123/1/3
f 125/1/3 123/1/3 122/1/3
f 126/2/3 124/2/3 123/2/3
f 126/1/3 123/1/3 125/1/3
f 127/2/3 124/2/3 126/2/3
f 128/2/3 124/2/3 127/2/3
f 129/1/3 125/1/3 122/1/3
f 130/2/3 126/2/3 125/2/3
f 130/1/3 125/1/3 129/1/3
f 130/2/3 127/2/3 126/2/3
f 131/2/3 127/2/3 130/2/3
f 132/3/3 128/3/3 127/3/3
f 132/2/3 127/2/3 131/2/3
f 133/2/3 131/2/3 130/2/3
f 133/2/3 130/2/3 129/2/3
f 134/3/3 132/3/3 131/3/3
f 134/2/3 131/2/3 133/2/3
f 135/3/3 122/3/3 121/3/3
f 135/3/3 121/3/3 119/3/3
f 136/1/3 129/1/3 122/1/3
f 136/3/3 122/3/3 135/3/3
f 137/3/3 119/3/3 117/3/3
f 137/3/3 135/3/3 119/3/3
f 138/3/3 135/3/3 137/3/3
f 139/1/3 136/1/3 135/1/3
f 139/3/3 135/3/3 138/3/3
f 140/2/3 138/2/3 137/2/3
f 141/1/3 139/1/3 138/1/3
f 141/2/3 138/2/3 140/2/3
f 142/1/3 129/1/3 136/1/3
f 142/1/3 139/1/3 141/1/3
f 142/1/3 136/1/3 139/1/3
f 142/2/3 133/2/3 129/2/3
f 143/3/3 134/3/3 133/3/3
f 143/2/3 133/2/3 142/2/3
f 144/1/3 142/1/3 141/1/3
f 144/3/3 134/3/3 143/3/3
f 144/1/3 143/1/3 142/1/3
f 144/1/3 141/1/3 140/1/3
f 145/3/3 132/3/3 134/3/3
f 145/3/3 134/3/3 144/3/3
f 146/1/3 144/1/3 140/1/3
f 146/1/3 145/1/3 144/1/3
f 147/1/3 145/1/3 146/1/3
f 148/3/3 132/3/3 145/3/3
f 148/1/3 145/1/3 147/1/3
f 149/3/3 128/3/3 132/3/3
f 149/3/3 132/3/3 148/3/3
f 150/1/3 146/1/3 140/1/3
f 151/2/3 147/2/3 146/2/3
f 151/1/3 146/1/3 150/1/3
f 152/2/3 147/2/3 151/2/3
f 153/1/3 148/1/3 147/1/3
f 153/2/3 147/2/3 152/2/3
f 153/1/3 149/1/3 148/1/3
f 154/1/3 149/1/3 153/1/3
f 155/1/3 150/1/3 140/1/3
f 156/2/3 152/2/3 151/2/3
f 156/1/3 150/1/3 155/1/3
f 156/2/3 151/2/3 150/2/3
f 157/2/3 152/2/3 156/2/3
f 158/3/3 154/3/3 153/3/3
f 158/2/3 152/2/3 157/2/3
f 158/3/3 153/3/3 152/3/3
f 159/1/3 149/1/3 154/1/3
f 159/3/3 154/3/3 158/3/3
f 160/1/3 149/1/3 159/1/3
f 161/2/3 157/2/3 156/2/3
f 161/2/3 156/2/3 155/2/3
f 162/3/3 158/3/3 157/3/3
f 162/2/3 157/2/3 161/2/3
f 162/3/3 160/3/3 159/3/3
f 162/3/3 159/3/3 158/3/3
f 163/1/3 155/1/3 140/1/3
f 164/2/3 161/2/3 155/2/3
f 164/1/3 155/1/3 163/1/3
f 165/3/3 162/3/3 161/3/3
f 165/2/3 161/2/3 164/2/3
f 166/3/3 160/3/3 162/3/3
f 166/3/3 162/3/3 165/3/3
f 166/1/3 149/1/3 160/1/3
f 167/1/3 149/1/3 166/1/3
f 168/1/4 169/1/4 173/1/4
f 169/2/4 170/2/4 173/2/4
f 170/3/4 171/3/4 174/3/4
f 173/2/4 170/2/4 174/2/4
f 174/3/4 171/3/4 175/3/4
f 171/1/4 172/1/4 176/1/4
f 175/3/4 171/3/4 176/3/4
f 174/3/4 175/3/4 177/3/4
f 173/1/4 174/1/4 177/1/4
f 177/3/4 175/3/4 178/3/4
f 178/3/4 175/3/4 179/3/4
f 175/1/4 176/1/4 180/1/4
f 179/3/4 175/3/4 180/3/4
f 178/3/4 179/3/4 181/3/4
f 177/1/4 178/1/4 181/1/4
f 179/1/4 180/1/4 182/1/4
f 181/3/4 179/3/4 182/3/4
f 168/1/4 173/1/4 183/1/4
f 173/1/4 177/1/4 183/1/4
f 181/1/4 182/1/4 183/1/4
f 177/1/4 181/1/4 183/1/4
f 183/1/4 182/1/4 184/1/4
f 168/1/4 183/1/4 185/1/4
f 183/2/4 184/2/4 186/2/4
f 185/1/4 183/1/4 186/1/4
f 186/2/4 184/2/4 187/2/4
f 184/1/4 182/1/4 188/1/4
f 187/2/4 184/2/4 188/2/4
f 188/1/4 182/1/4 189/1/4
f 176/1/4 172/1/4 190/1/4
f 189/1/4 182/1/4 190/1/4
f 182/1/4 180/1/4 190/1/4
f 180/1/4 176/1/4 190/1/4
f 190/1/4 172/1/4 191/1/4
f 185/2/4 186/2/4 192/2/4
f 186/2/4 187/2/4 192/2/4
f 188/3/4 189/3/4 193/3/4
f 192/2/4 187/2/4 193/2/4
f 187/3/4 188/3/4 193/3/4
f 189/1/4 190/1/4 194/1/4
f 190/2/4 191/2/4 195/2/4
f 194/1/4 190/1/4 195/1/4
f 195/2/4 191/2/4 196/2/4
f 196/2/4 191/2/4 197/2/4
f 189/1/4 194/1/4 198/1/4
f 194/2/4 195/2/4 199/2/4
f 198/1/4 194/1/4 199/1/4
f 195/2/4 196/2/4 199/2/4
f 199/2/4 196/2/4 200/2/4
f 196/3/4 197/3/4 201/3/4
f 200/2/4 196/2/4 201/2/4
f 199/2/4 200/2/4 202/2/4
f 198/2/4 199/2/4 202/2/4
f 200/3/4 201/3/4 203/3/4
f 202/2/4 200/2/4 203/2/4
f 185/2/4 192/2/4 204/2/4
f 168/1/4 185/1/4 204/1/4
f 192/3/4 193/3/4 205/3/4
f 204/2/4 192/2/4 205/2/4
f 193/3/4 189/3/4 206/3/4
f 205/3/4 193/3/4 206/3/4
f 189/1/4 198/1/4 207/1/4
f 206/3/4 189/3/4 207/3/4
f 204/1/4 205/1/4 208/1/4
f 205/3/4 206/3/4 208/3/4
f 206/1/4 207/1/4 209/1/4
f 208/3/4 206/3/4 209/3/4
f 207/1/4 198/1/4 210/1/4
f 209/1/4 207/1/4 210/1/4
f 208/1/4 209/1/4 210/1/4
f 198/2/4 202/2/4 210/2/4
f 202/3/4 203/3/4 211/3/4
f 210/2/4 202/2/4 211/2/4
f 210/1/4 211/1/4 212/1/4
f 211/3/4 203/3/4 212/3/4
f 203/3/4 201/3/4 213/3/4
f 212/3/4 203/3/4 213/3/4
f 210/1/4 212/1/4 214/1/4
f 208/1/4 210/1/4 214/1/4
f 212/1/4 213/1/4 214/1/4
f 214/1/4 213/1/4 215/1/4
f 213/3/4 201/3/4 216/3/4
f 215/1/4 213/1/4 216/1/4
f 201/3/4 197/3/4 217/3/4
f 216/3/4 201/3/4 217/3/4
f 208/1/4 214/1/4 218/1/4
f 214/2/4 215/2/4 219/2/4
f 218/1/4 214/1/4 219/1/4
f 219/2/4 215/2/4 220/2/4
f 215/1/4 216/1/4 221/1/4
f 220/2/4 215/2/4 221/2/4
f 216/1/4 217/1/4 221/1/4
f 221/1/4 217/1/4 222/1/4
f 208/1/4 218/1/4 223/1/4
f 219/2/4 220/2/4 224/2/4
f 223/1/4 218/1/4 224/1/4
f 218/2/4 219/2/4 224/2/4
f 224/2/4 220/2/4 225/2/4
f 221/3/4 222/3/4 226/3/4
f 225/2/4 220/2/4 226/2/4
f 220/3/4 221/3/4 226/3/4
f 222/1/4 217/1/4 227/1/4
f 226/3/4 222/3/4 227/3/4
f 227/1/4 217/1/4 228/1/4
f 224/2/4 225/2/4 229/2/4
f 223/2/4 224/2/4 229/2/4
f 225/3/4 226/3/4 230/3/4
f 229/2/4 225/2/4 230/2/4
f 227/3/4 228/3/4 230/3/4
f 226/3/4 227/3/4 230/3/4
f 208/1/4 223/1/4 231/1/4
f 204/1/4 208/1/4 231/1/4
f 168/1/4 204/1/4 231/1/4
f 223/2/4 229/2/4 232/2/4
f 231/1/4 223/1/4 232/1/4
f 229/3/4 230/3/4 233/3/4
f 232/2/4 229/2/4 233/2/4
f 230/3/4 228/3/4 234/3/4
f 233/3/4 230/3/4 234/3/4
f 228/1/4 217/1/4 234/1/4
f 234/1/4 217/1/4 235/1/4
f 241/3/5 238/3/5 237/3/5
f 242/2/5 239/2/5 238/2/5
f 242/3/5 238/3/5 241/3/5
f 243/1/5 237/1/5 236/1/5
f 243/3/5 241/3/5 237/3/5
f 244/3/5 241/3/5 243/3/5
f 245/3/5 241/3/5 244/3/5
f 246/2/5 242/2/5 241/2/5
f 246/3/5 241/3/5 245/3/5
f 247/2/5 239/2/5 242/2/5
f 247/2/5 242/2/5 246/2/5
f 248/1/5 240/1/5 239/1/5
f 248/2/5 239/2/5 247/2/5
f 249/3/5 245/3/5 244/3/5
f 249/1/5 244/1/5 243/1/5
f 250/3/5 245/3/5 249/3/5
f 251/2/5 246/2/5 245/2/5
f 251/3/5 245/3/5 250/3/5
f 251/2/5 247/2/5 246/2/5
f 252/2/5 247/2/5 251/2/5
f 253/1/5 248/1/5 247/1/5
f 253/2/5 247/2/5 252/2/5
f 254/1/5 250/1/5 249/1/5
f 254/2/5 252/2/5 251/2/5
f 254/2/5 251/2/5 250/2/5
f 255/1/5 253/1/5 252/1/5
f 255/2/5 252/2/5 254/2/5
f 256/1/5 249/1/5 243/1/5
f 256/1/5 243/1/5 236/1/5
f 256/1/5 255/1/5 254/1/5
f 256/1/5 254/1/5 249/1/5
f 257/1/5 255/1/5 256/1/5
f 258/2/5 257/2/5 256/2/5
f 259/2/5 257/2/5 258/2/5
f 260/1/5 255/1/5 257/1/5
f 260/2/5 257/2/5 259/2/5
f 261/1/5 255/1/5 260/1/5
f 262/3/5 259/3/5 258/3/5
f 262/2/5 260/2/5 259/2/5
f 262/2/5 261/2/5 260/2/5
f 263/2/5 261/2/5 262/2/5
f 264/1/5 255/1/5 261/1/5
f 264/2/5 261/2/5 263/2/5
f 265/1/5 255/1/5 264/1/5
f 266/3/5 263/3/5 262/3/5
f 266/2/5 264/2/5 263/2/5
f 266/2/5 265/2/5 264/2/5
f 267/2/5 265/2/5 266/2/5
f 268/1/5 253/1/5 255/1/5
f 268/1/5 255/1/5 265/1/5
f 269/1/5 248/1/5 253/1/5
f 269/1/5 253/1/5 268/1/5
f 269/1/5 240/1/5 248/1/5
f 270/1/5 268/1/5 265/1/5
f 271/2/5 269/2/5 268/2/5
f 271/1/5 268/1/5 270/1/5
f 272/2/5 269/2/5 271/2/5
f 273/1/5 240/1/5 269/1/5
f 273/2/5 269/2/5 272/2/5
f 274/1/5 240/1/5 273/1/5
f 275/3/5 272/3/5 271/3/5
f 275/3/5 271/3/5 270/3/5
f 275/2/5 274/2/5 273/2/5
f 275/2/5 273/2/5 272/2/5
f 276/2/5 274/2/5 275/2/5
f 277/1/5 270/1/5 265/1/5
f 278/3/5 275/3/5 270/3/5
f 278/1/5 270/1/5 277/1/5
f 278/3/5 276/3/5 275/3/5
f 279/1/5 240/1/5 274/1/5
f 279/2/5 274/2/5 276/2/5
f 280/1/5 240/1/5 279/1/5
f 281/2/5 265/2/5 267/2/5
f 281/3/5 267/3/5 266/3/5
f 282/1/5 277/1/5 265/1/5
f 282/2/5 265/2/5 281/2/5
f 283/3/5 276/3/5 278/3/5
f 283/2/5 280/2/5 279/2/5
f 283/3/5 278/3/5 277/3/5
f 283/2/5 279/2/5 276/2/5
f 284/2/5 280/2/5 283/2/5
f 285/3/5 266/3/5 262/3/5
f 285/3/5 281/3/5 266/3/5
f 286/1/5 282/1/5 281/1/5
f 286/3/5 281/3/5 285/3/5
f 287/3/5 285/3/5 262/3/5
f 287/3/5 262/3/5 258/3/5
f 288/1/5 286/1/5 285/1/5
f 288/3/5 285/3/5 287/3/5
f 289/1/5 277/1/5 282/1/5
f 289/1/5 286/1/5 288/1/5
f 289/1/5 288/1/5 287/1/5
f 289/3/5 283/3/5 277/3/5
f 289/3/5 284/3/5 283/3/5
f 289/1/5 282/1/5 286/1/5
f 290/3/5 284/3/5 289/3/5
f 291/2/5 280/2/5 284/2/5
f 291/3/5 284/3/5 290/3/5
f 292/1/5 240/1/5 280/1/5
f 292/2/5 280/2/5 291/2/5
f 293/3/5 291/3/5 290/3/5
f 293/1/5 290/1/5 289/1/5
f 294/3/5 291/3/5 293/3/5
f 295/3/5 291/3/5 294/3/5
f 296/1/5 292/1/5 291/1/5
f 296/3/5 291/3/5 295/3/5
f 297/3/5 295/3/5 294/3/5
f 297/1/5 294/1/5 293/1/5
f 298/1/5 296/1/5 295/1/5
f 298/3/5 295/3/5 297/3/5
f 299/1/5 289/1/5 287/1/5
f 299/1/5 293/1/5 289/1/5
f 299/1/5 298/1/5 297/1/5
f 299/1/5 297/1/5 293/1/5
f 300/1/5 240/1/5 292/1/5
f 300/1/5 298/1/5 299/1/5
f 300/1/5 292/1/5 296/1/5
f 300/1/5 296/1/5 298/1/5
f 301/1/6 302/1/6 306/1/6
f 302/2/6 303/2/6 306/2/6
f 303/3/6 304/3/6 307/3/6
f 306/2/6 303/2/6 307/2/6
f 307/3/6 304/3/6 308/3/6
f 304/1/6 305/1/6 309/1/6
f 308/3/6 304/3/6 309/3/6
f 307/3/6 308/3/6 310/3/6
f 306/1/6 307/1/6 310/1/6
f 310/3/6 308/3/6 311/3/6
f 311/3/6 308/3/6 312/3/6
f 308/1/6 309/1/6 313/1/6
f 312/3/6 308/3/6 313/3/6
f 311/3/6 312/3/6 314/3/6
f 310/1/6 311/1/6 314/1/6
f 312/1/6 313/1/6 315/1/6
f 314/3/6 312/3/6 315/3/6
f 301/1/6 306/1/6 316/1/6
f 306/1/6 310/1/6 316/1/6
f 314/1/6 315/1/6 316/1/6
f 310/1/6 314/1/6 316/1/6
f 316/1/6 315/1/6 317/1/6
f 315/1/6 313/1/6 318/1/6
f 317/1/6 315/1/6 318/1/6
f 309/1/6 305/1/6 319/1/6
f 318/1/6 313/1/6 319/1/6
f 313/1/6 309/1/6 319/1/6
f 316/2/6 317/2/6 320/2/6
f 317/1/6 318/1/6 321/1/6
f 320/2/6 317/2/6 321/2/6
f 321/1/6 318/1/6 322/1/6
f 322/1/6 318/1/6 323/1/6
f 318/2/6 319/2/6 324/2/6
f 323/1/6 318/1/6 324/1/6
f 324/2/6 319/2/6 325/2/6
f 319/1/6 305/1/6 326/1/6
f 325/2/6 319/2/6 326/2/6
f 326/1/6 305/1/6 327/1/6
f 322/1/6 323/1/6 328/1/6
f 320/3/6 321/3/6 328/3/6
f 321/3/6 322/3/6 328/3/6
f 328/1/6 323/1/6 329/1/6
f 324/2/6 325/2/6 330/2/6
f 323/2/6 324/2/6 330/2/6
f 326/3/6 327/3/6 331/3/6
f 330/2/6 325/2/6 331/2/6
f 325/3/6 326/3/6 331/3/6
f 329/1/6 323/1/6 332/1/6
f 323/2/6 330/2/6 332/2/6
f 330/3/6 331/3/6 333/3/6
f 332/2/6 330/2/6 333/2/6
f 331/3/6 327/3/6 334/3/6
f 333/3/6 331/3/6 334/3/6
f 327/1/6 305/1/6 335/1/6
f 334/3/6 327/3/6 335/3/6
f 332/1/6 333/1/6 336/1/6
f 333/3/6 334/3/6 336/3/6
f 334/1/6 335/1/6 337/1/6
f 336/3/6 334/3/6 337/3/6
f 320/3/6 328/3/6 338/3/6
f 328/3/6 329/3/6 338/3/6
f 332/1/6 336/1/6 339/1/6
f 338/3/6 329/3/6 339/3/6
f 329/1/6 332/1/6 339/1/6
f 336/1/6 337/1/6 339/1/6
f 320/3/6 338/3/6 340/3/6
f 338/1/6 339/1/6 341/1/6
f 340/3/6 338/3/6 341/3/6
f 320/3/6 340/3/6 342/3/6
f 340/1/6 341/1/6 343/1/6
f 342/3/6 340/3/6 343/3/6
f 339/1/6 337/1/6 344/1/6
f 343/1/6 341/1/6 344/1/6
f 342/1/6 343/1/6 344/1/6
f 341/1/6 339/1/6 344/1/6
f 344/1/6 337/1/6 345/1/6
f 342/1/6 344/1/6 346/1/6
f 344/2/6 345/2/6 347/2/6
f 346/1/6 344/1/6 347/1/6
f 347/2/6 345/2/6 348/2/6
f 345/1/6 337/1/6 349/1/6
f 348/2/6 345/2/6 349/2/6
f 349/1/6 337/1/6 350/1/6
f 342/1/6 346/1/6 351/1/6
f 347/2/6 348/2/6 352/2/6
f 351/1/6 346/1/6 352/1/6
f 346/2/6 347/2/6 352/2/6
f 352/2/6 348/2/6 353/2/6
f 349/3/6 350/3/6 354/3/6
f 353/2/6 348/2/6 354/2/6
f 348/3/6 349/3/6 354/3/6
f 350/1/6 337/1/6 355/1/6
f 354/3/6 350/3/6 355/3/6
f 355/1/6 337/1/6 356/1/6
f 352/2/6 353/2/6 357/2/6
f 351/2/6 352/2/6 357/2/6
f 353/3/6 354/3/6 358/3/6
f 357/2/6 353/2/6 358/2/6
f 355/3/6 356/3/6 358/3/6
f 354/3/6 355/3/6 358/3/6
f 342/1/6 351/1/6 359/1/6
f 351/2/6 357/2/6 360/2/6
f 359/1/6 351/1/6 360/1/6
f 357/3/6 358/3/6 361/3/6
f 360/2/6 357/2/6 361/2/6
f 358/3/6 356/3/6 362/3/6
f 361/3/6 358/3/6 362/3/6
f 356/1/6 337/1/6 362/1/6
f 335/1/6 305/1/6 363/1/6
f 362/1/6 337/1/6 363/1/6
f 337/1/6 335/1/6 363/1/6
