# MagicaVoxel @ Ephtracy

# group
o 

# material
mtllib Cheese.mtl
usemtl palette

# normals
vn -1 0 0
vn 1 0 0
vn 0 0 1
vn 0 0 -1
vn 0 -1 0
vn 0 1 0

# texcoords
vt 0.0332031 0.5
vt 0.0644531 0.5
vt 0.0683594 0.5

# verts
v -1.3 -1.3 1.3
v -1.3 -1.3 0.3
v -1.3 -1.3 -0.6
v -1.3 -1.3 -0.7
v -1.3 -1.3 -1.3
v -1.3 -1.1 -0.5
v -1.3 -1.1 -0.6
v -1.3 -1 0.3
v -1.3 -1 0.2
v -1.3 -1 -0.4
v -1.3 -1 -0.5
v -1.3 -1 -0.6
v -1.3 -1 -0.7
v -1.3 -0.9 0.2
v -1.3 -0.9 0.1
v -1.3 -0.9 -0.4
v -1.3 -0.9 -0.5
v -1.3 -0.9 -0.6
v -1.3 -0.8 0.1
v -1.3 -0.8 -0.5
v -1.3 -0.5 1.3
v -1.3 -0.5 1
v -1.3 -0.5 -1
v -1.3 -0.5 -1.3
v -1.3 -0.4 1.3
v -1.3 -0.4 1.1
v -1.3 -0.4 1
v -1.3 -0.4 0.9
v -1.3 -0.4 -0.9
v -1.3 -0.4 -1
v -1.3 -0.4 -1.3
v -1.3 -0.3 1.1
v -1.3 -0.3 1
v -1.3 -0.3 0.9
v -1.3 -0.3 0.8
v -1.3 -0.3 -0.8
v -1.3 -0.3 -0.9
v -1.3 -0.2 1
v -1.3 -0.2 0.9
v -1.3 0.3 0.9
v -1.3 0.3 0.8
v -1.3 0.3 -0.8
v -1.3 0.3 -0.9
v -1.3 0.4 1
v -1.3 0.4 0.9
v -1.3 0.4 -0.9
v -1.3 0.4 -1
v -1.3 0.5 1.3
v -1.3 0.5 1
v -1.3 0.5 -1
v -1.3 0.5 -1.3
v -1.3 0.8 0.1
v -1.3 0.8 -0.5
v -1.3 0.9 0.2
v -1.3 0.9 0.1
v -1.3 0.9 -0.5
v -1.3 0.9 -0.6
v -1.3 1 0.3
v -1.3 1 0.2
v -1.3 1 -0.6
v -1.3 1 -0.7
v -1.3 1.3 1.3
v -1.3 1.3 0.3
v -1.3 1.3 -0.6
v -1.3 1.3 -0.7
v -1.3 1.3 -1.3
v 1.3 -1.3 1.3
v 1.3 -1.3 0.3
v 1.3 -1.3 -0.6
v 1.3 -1.3 -0.7
v 1.3 -1.3 -1.3
v 1.3 -1 0.3
v 1.3 -1 0.2
v 1.3 -1 -0.6
v 1.3 -1 -0.7
v 1.3 -0.9 0.2
v 1.3 -0.9 0.1
v 1.3 -0.9 -0.5
v 1.3 -0.9 -0.6
v 1.3 -0.8 0.1
v 1.3 -0.8 -0.5
v 1.3 -0.5 1.3
v 1.3 -0.5 1
v 1.3 -0.5 -1
v 1.3 -0.5 -1.3
v 1.3 -0.4 1.3
v 1.3 -0.4 1
v 1.3 -0.4 0.9
v 1.3 -0.4 -0.9
v 1.3 -0.4 -1
v 1.3 -0.4 -1.1
v 1.3 -0.4 -1.3
v 1.3 -0.3 0.9
v 1.3 -0.3 0.8
v 1.3 -0.3 -0.8
v 1.3 -0.3 -0.9
v 1.3 -0.3 -1
v 1.3 -0.3 -1.1
v 1.3 -0.2 -0.9
v 1.3 -0.2 -1
v 1.3 0.3 0.9
v 1.3 0.3 0.8
v 1.3 0.3 -0.8
v 1.3 0.3 -0.9
v 1.3 0.4 1
v 1.3 0.4 0.9
v 1.3 0.4 -0.9
v 1.3 0.4 -1
v 1.3 0.5 1.3
v 1.3 0.5 1
v 1.3 0.5 -1
v 1.3 0.5 -1.3
v 1.3 0.8 0.1
v 1.3 0.8 -0.5
v 1.3 0.9 0.2
v 1.3 0.9 0.1
v 1.3 0.9 -0.4
v 1.3 0.9 -0.5
v 1.3 0.9 -0.6
v 1.3 1 0.3
v 1.3 1 0.2
v 1.3 1 -0.4
v 1.3 1 -0.5
v 1.3 1 -0.6
v 1.3 1 -0.7
v 1.3 1.1 -0.5
v 1.3 1.1 -0.6
v 1.3 1.3 1.3
v 1.3 1.3 0.3
v 1.3 1.3 -0.6
v 1.3 1.3 -0.7
v 1.3 1.3 -1.3
v -1.3 -1.3 1.3
v -1.3 -0.5 1.3
v -1.3 -0.4 1.3
v -1.3 0.5 1.3
v -1.3 1.3 1.3
v -1 -0.5 1.3
v -1 -0.4 1.3
v -1 0.4 1.3
v -1 0.5 1.3
v -0.9 -0.4 1.3
v -0.9 -0.3 1.3
v -0.9 0.3 1.3
v -0.9 0.4 1.3
v -0.8 -0.3 1.3
v -0.8 0.3 1.3
v -0.2 -1.3 1.3
v -0.2 -1 1.3
v -0.2 1 1.3
v -0.2 1.3 1.3
v -0.1 -1.3 1.3
v -0.1 -1 1.3
v -0.1 -0.9 1.3
v -0.1 0.9 1.3
v -0.1 1 1.3
v -0.1 1.1 1.3
v -0.1 1.3 1.3
v -1.19209e-07 -0.9 1.3
v -1.19209e-07 -0.8 1.3
v -1.19209e-07 0.8 1.3
v -1.19209e-07 0.9 1.3
v -1.19209e-07 1 1.3
v -1.19209e-07 1.1 1.3
v 0.0999999 0.9 1.3
v 0.0999999 1 1.3
v 0.6 -0.9 1.3
v 0.6 -0.8 1.3
v 0.6 0.8 1.3
v 0.6 0.9 1.3
v 0.7 -1 1.3
v 0.7 -0.9 1.3
v 0.7 0.9 1.3
v 0.7 1 1.3
v 0.8 -1.3 1.3
v 0.8 -1 1.3
v 0.8 -0.3 1.3
v 0.8 0.3 1.3
v 0.8 1 1.3
v 0.8 1.3 1.3
v 0.9 -0.4 1.3
v 0.9 -0.3 1.3
v 0.9 -0.2 1.3
v 0.9 0.3 1.3
v 0.9 0.4 1.3
v 1 -0.5 1.3
v 1 -0.4 1.3
v 1 -0.3 1.3
v 1 -0.2 1.3
v 1 0.4 1.3
v 1 0.5 1.3
v 1.1 -0.4 1.3
v 1.1 -0.3 1.3
v 1.3 -1.3 1.3
v 1.3 -0.5 1.3
v 1.3 -0.4 1.3
v 1.3 0.5 1.3
v 1.3 1.3 1.3
v -1.3 -1.3 -1.3
v -1.3 -0.5 -1.3
v -1.3 -0.4 -1.3
v -1.3 0.5 -1.3
v -1.3 1.3 -1.3
v -1.1 -0.4 -1.3
v -1.1 -0.3 -1.3
v -1 -0.5 -1.3
v -1 -0.4 -1.3
v -1 -0.3 -1.3
v -1 -0.2 -1.3
v -1 0.4 -1.3
v -1 0.5 -1.3
v -0.9 -0.4 -1.3
v -0.9 -0.3 -1.3
v -0.9 -0.2 -1.3
v -0.9 0.3 -1.3
v -0.9 0.4 -1.3
v -0.8 -0.3 -1.3
v -0.8 0.3 -1.3
v -0.2 -1.3 -1.3
v -0.2 -1 -1.3
v -0.2 1 -1.3
v -0.2 1.3 -1.3
v -0.1 -1.3 -1.3
v -0.1 -1.1 -1.3
v -0.1 -1 -1.3
v -0.1 -0.9 -1.3
v -0.1 0.9 -1.3
v -0.1 1 -1.3
v -0.1 1.3 -1.3
v -1.19209e-07 -1.1 -1.3
v -1.19209e-07 -1 -1.3
v -1.19209e-07 -0.9 -1.3
v -1.19209e-07 -0.8 -1.3
v -1.19209e-07 0.8 -1.3
v -1.19209e-07 0.9 -1.3
v 0.0999999 -1 -1.3
v 0.0999999 -0.9 -1.3
v 0.6 -0.9 -1.3
v 0.6 -0.8 -1.3
v 0.6 0.8 -1.3
v 0.6 0.9 -1.3
v 0.7 -1 -1.3
v 0.7 -0.9 -1.3
v 0.7 0.9 -1.3
v 0.7 1 -1.3
v 0.8 -1.3 -1.3
v 0.8 -1 -1.3
v 0.8 -0.3 -1.3
v 0.8 0.3 -1.3
v 0.8 1 -1.3
v 0.8 1.3 -1.3
v 0.9 -0.4 -1.3
v 0.9 -0.3 -1.3
v 0.9 0.3 -1.3
v 0.9 0.4 -1.3
v 1 -0.5 -1.3
v 1 -0.4 -1.3
v 1 0.4 -1.3
v 1 0.5 -1.3
v 1.3 -1.3 -1.3
v 1.3 -0.5 -1.3
v 1.3 -0.4 -1.3
v 1.3 0.5 -1.3
v 1.3 1.3 -1.3
v -1.3 -1.3 1.3
v -0.2 -1.3 1.3
v -0.1 -1.3 1.3
v 0.8 -1.3 1.3
v 1.3 -1.3 1.3
v -0.1 -1.3 1.1
v -1.19209e-07 -1.3 1.1
v -0.2 -1.3 1
v -0.1 -1.3 1
v -1.19209e-07 -1.3 1
v 0.0999999 -1.3 1
v 0.7 -1.3 1
v 0.8 -1.3 1
v -0.1 -1.3 0.9
v -1.19209e-07 -1.3 0.9
v 0.0999999 -1.3 0.9
v 0.6 -1.3 0.9
v 0.7 -1.3 0.9
v -1.19209e-07 -1.3 0.8
v 0.6 -1.3 0.8
v -1.3 -1.3 0.3
v -0.9 -1.3 0.3
v 1 -1.3 0.3
v 1.3 -1.3 0.3
v -0.9 -1.3 0.2
v -0.8 -1.3 0.2
v 0.9 -1.3 0.2
v 1 -1.3 0.2
v -0.8 -1.3 0.1
v -0.7 -1.3 0.1
v 0.8 -1.3 0.1
v 0.9 -1.3 0.1
v 0.9 -1.3 -0.4
v 1 -1.3 -0.4
v -0.8 -1.3 -0.5
v -0.7 -1.3 -0.5
v 0.8 -1.3 -0.5
v 0.9 -1.3 -0.5
v 1 -1.3 -0.5
v 1.1 -1.3 -0.5
v -1.3 -1.3 -0.6
v -0.9 -1.3 -0.6
v -0.8 -1.3 -0.6
v 0.9 -1.3 -0.6
v 1 -1.3 -0.6
v 1.1 -1.3 -0.6
v 1.3 -1.3 -0.6
v -1.3 -1.3 -0.7
v -0.9 -1.3 -0.7
v 1 -1.3 -0.7
v 1.3 -1.3 -0.7
v -1.19209e-07 -1.3 -0.8
v 0.6 -1.3 -0.8
v -0.1 -1.3 -0.9
v -1.19209e-07 -1.3 -0.9
v 0.6 -1.3 -0.9
v 0.7 -1.3 -0.9
v -0.2 -1.3 -1
v -0.1 -1.3 -1
v 0.7 -1.3 -1
v 0.8 -1.3 -1
v -1.3 -1.3 -1.3
v -0.2 -1.3 -1.3
v -0.1 -1.3 -1.3
v 0.8 -1.3 -1.3
v 1.3 -1.3 -1.3
v -1.3 1.3 1.3
v -0.2 1.3 1.3
v -0.1 1.3 1.3
v 0.8 1.3 1.3
v 1.3 1.3 1.3
v -0.2 1.3 1
v -0.1 1.3 1
v 0.7 1.3 1
v 0.8 1.3 1
v -0.1 1.3 0.9
v -1.19209e-07 1.3 0.9
v 0.6 1.3 0.9
v 0.7 1.3 0.9
v -1.19209e-07 1.3 0.8
v 0.6 1.3 0.8
v -1.3 1.3 0.3
v -1 1.3 0.3
v 1 1.3 0.3
v 1.3 1.3 0.3
v -1 1.3 0.2
v -0.9 1.3 0.2
v 0.9 1.3 0.2
v 1 1.3 0.2
v -0.9 1.3 0.1
v -0.8 1.3 0.1
v 0.8 1.3 0.1
v 0.9 1.3 0.1
v -1 1.3 -0.4
v -0.9 1.3 -0.4
v -1.1 1.3 -0.5
v -1 1.3 -0.5
v -0.9 1.3 -0.5
v -0.8 1.3 -0.5
v 0.8 1.3 -0.5
v 0.9 1.3 -0.5
v -1.3 1.3 -0.6
v -1.1 1.3 -0.6
v -1 1.3 -0.6
v -0.9 1.3 -0.6
v 0.9 1.3 -0.6
v 1 1.3 -0.6
v 1.3 1.3 -0.6
v -1.3 1.3 -0.7
v -1 1.3 -0.7
v 1 1.3 -0.7
v 1.3 1.3 -0.7
v -1.19209e-07 1.3 -0.8
v 0.6 1.3 -0.8
v -0.1 1.3 -0.9
v -1.19209e-07 1.3 -0.9
v 0.0999999 1.3 -0.9
v 0.6 1.3 -0.9
v 0.7 1.3 -0.9
v -0.2 1.3 -1
v -0.1 1.3 -1
v -1.19209e-07 1.3 -1
v 0.0999999 1.3 -1
v 0.7 1.3 -1
v 0.8 1.3 -1
v -0.1 1.3 -1.1
v -1.19209e-07 1.3 -1.1
v -1.3 1.3 -1.3
v -0.2 1.3 -1.3
v -0.1 1.3 -1.3
v 0.8 1.3 -1.3
v 1.3 1.3 -1.3

# faces
f 6/3/1 3/3/1 2/3/1
f 7/2/1 4/2/1 3/2/1
f 7/3/1 3/3/1 6/3/1
f 8/1/1 2/1/1 1/1/1
f 8/3/1 6/3/1 2/3/1
f 9/3/1 6/3/1 8/3/1
f 10/3/1 6/3/1 9/3/1
f 11/2/1 7/2/1 6/2/1
f 11/3/1 6/3/1 10/3/1
f 12/2/1 4/2/1 7/2/1
f 12/2/1 7/2/1 11/2/1
f 13/1/1 5/1/1 4/1/1
f 13/2/1 4/2/1 12/2/1
f 14/3/1 10/3/1 9/3/1
f 14/1/1 9/1/1 8/1/1
f 15/3/1 10/3/1 14/3/1
f 16/2/1 11/2/1 10/2/1
f 16/3/1 10/3/1 15/3/1
f 16/2/1 12/2/1 11/2/1
f 17/2/1 12/2/1 16/2/1
f 18/1/1 13/1/1 12/1/1
f 18/2/1 12/2/1 17/2/1
f 19/1/1 15/1/1 14/1/1
f 19/2/1 17/2/1 16/2/1
f 19/2/1 16/2/1 15/2/1
f 20/1/1 18/1/1 17/1/1
f 20/2/1 17/2/1 19/2/1
f 21/1/1 14/1/1 8/1/1
f 21/1/1 8/1/1 1/1/1
f 21/1/1 20/1/1 19/1/1
f 21/1/1 19/1/1 14/1/1
f 22/1/1 20/1/1 21/1/1
f 23/1/1 13/1/1 18/1/1
f 23/1/1 20/1/1 22/1/1
f 23/1/1 18/1/1 20/1/1
f 23/1/1 5/1/1 13/1/1
f 24/1/1 5/1/1 23/1/1
f 25/2/1 22/2/1 21/2/1
f 26/2/1 22/2/1 25/2/1
f 27/1/1 23/1/1 22/1/1
f 27/2/1 22/2/1 26/2/1
f 28/1/1 23/1/1 27/1/1
f 29/1/1 23/1/1 28/1/1
f 30/2/1 24/2/1 23/2/1
f 30/1/1 23/1/1 29/1/1
f 31/2/1 24/2/1 30/2/1
f 32/3/1 26/3/1 25/3/1
f 32/2/1 27/2/1 26/2/1
f 32/2/1 28/2/1 27/2/1
f 33/2/1 28/2/1 32/2/1
f 34/1/1 29/1/1 28/1/1
f 34/2/1 28/2/1 33/2/1
f 35/1/1 29/1/1 34/1/1
f 36/1/1 29/1/1 35/1/1
f 37/3/1 31/3/1 30/3/1
f 37/1/1 29/1/1 36/1/1
f 37/3/1 30/3/1 29/3/1
f 38/3/1 33/3/1 32/3/1
f 38/2/1 35/2/1 34/2/1
f 38/2/1 34/2/1 33/2/1
f 39/2/1 35/2/1 38/2/1
f 40/3/1 39/3/1 38/3/1
f 40/2/1 35/2/1 39/2/1
f 41/1/1 36/1/1 35/1/1
f 41/2/1 35/2/1 40/2/1
f 42/3/1 37/3/1 36/3/1
f 42/1/1 36/1/1 41/1/1
f 43/3/1 31/3/1 37/3/1
f 43/3/1 37/3/1 42/3/1
f 44/3/1 40/3/1 38/3/1
f 44/3/1 38/3/1 32/3/1
f 45/1/1 42/1/1 41/1/1
f 45/3/1 40/3/1 44/3/1
f 45/1/1 41/1/1 40/1/1
f 45/1/1 43/1/1 42/1/1
f 46/3/1 31/3/1 43/3/1
f 46/1/1 43/1/1 45/1/1
f 47/3/1 31/3/1 46/3/1
f 48/3/1 44/3/1 32/3/1
f 48/3/1 32/3/1 25/3/1
f 49/1/1 45/1/1 44/1/1
f 49/3/1 44/3/1 48/3/1
f 49/1/1 47/1/1 46/1/1
f 49/1/1 46/1/1 45/1/1
f 50/3/1 31/3/1 47/3/1
f 50/1/1 47/1/1 49/1/1
f 51/3/1 31/3/1 50/3/1
f 52/1/1 49/1/1 48/1/1
f 52/1/1 50/1/1 49/1/1
f 52/1/1 51/1/1 50/1/1
f 53/1/1 51/1/1 52/1/1
f 54/1/1 52/1/1 48/1/1
f 55/3/1 53/3/1 52/3/1
f 55/1/1 52/1/1 54/1/1
f 56/1/1 51/1/1 53/1/1
f 56/3/1 53/3/1 55/3/1
f 57/1/1 51/1/1 56/1/1
f 58/1/1 54/1/1 48/1/1
f 59/3/1 55/3/1 54/3/1
f 59/1/1 54/1/1 58/1/1
f 59/3/1 56/3/1 55/3/1
f 59/3/1 57/3/1 56/3/1
f 60/1/1 51/1/1 57/1/1
f 60/3/1 57/3/1 59/3/1
f 61/1/1 51/1/1 60/1/1
f 62/1/1 58/1/1 48/1/1
f 63/3/1 59/3/1 58/3/1
f 63/1/1 58/1/1 62/1/1
f 63/3/1 60/3/1 59/3/1
f 64/2/1 61/2/1 60/2/1
f 64/3/1 60/3/1 63/3/1
f 65/1/1 51/1/1 61/1/1
f 65/2/1 61/2/1 64/2/1
f 66/1/1 51/1/1 65/1/1
f 67/1/2 68/1/2 72/1/2
f 68/3/2 69/3/2 72/3/2
f 72/3/2 69/3/2 73/3/2
f 69/2/2 70/2/2 74/2/2
f 73/3/2 69/3/2 74/3/2
f 70/1/2 71/1/2 75/1/2
f 74/2/2 70/2/2 75/2/2
f 73/3/2 74/3/2 76/3/2
f 72/1/2 73/1/2 76/1/2
f 76/3/2 74/3/2 77/3/2
f 77/3/2 74/3/2 78/3/2
f 74/1/2 75/1/2 79/1/2
f 78/3/2 74/3/2 79/3/2
f 77/3/2 78/3/2 80/3/2
f 76/1/2 77/1/2 80/1/2
f 78/1/2 79/1/2 81/1/2
f 80/3/2 78/3/2 81/3/2
f 67/1/2 72/1/2 82/1/2
f 72/1/2 76/1/2 82/1/2
f 80/1/2 81/1/2 82/1/2
f 76/1/2 80/1/2 82/1/2
f 82/1/2 81/1/2 83/1/2
f 75/1/2 71/1/2 84/1/2
f 83/1/2 81/1/2 84/1/2
f 79/1/2 75/1/2 84/1/2
f 81/1/2 79/1/2 84/1/2
f 84/1/2 71/1/2 85/1/2
f 82/2/2 83/2/2 86/2/2
f 83/1/2 84/1/2 87/1/2
f 86/2/2 83/2/2 87/2/2
f 87/1/2 84/1/2 88/1/2
f 88/1/2 84/1/2 89/1/2
f 84/2/2 85/2/2 90/2/2
f 89/1/2 84/1/2 90/1/2
f 90/2/2 85/2/2 91/2/2
f 91/2/2 85/2/2 92/2/2
f 88/1/2 89/1/2 93/1/2
f 86/3/2 87/3/2 93/3/2
f 87/3/2 88/3/2 93/3/2
f 93/1/2 89/1/2 94/1/2
f 94/1/2 89/1/2 95/1/2
f 90/2/2 91/2/2 96/2/2
f 95/1/2 89/1/2 96/1/2
f 89/2/2 90/2/2 96/2/2
f 96/2/2 91/2/2 97/2/2
f 91/3/2 92/3/2 98/3/2
f 97/2/2 91/2/2 98/2/2
f 96/2/2 97/2/2 99/2/2
f 95/2/2 96/2/2 99/2/2
f 97/3/2 98/3/2 100/3/2
f 99/2/2 97/2/2 100/2/2
f 93/3/2 94/3/2 101/3/2
f 86/3/2 93/3/2 101/3/2
f 94/1/2 95/1/2 102/1/2
f 101/3/2 94/3/2 102/3/2
f 95/2/2 99/2/2 103/2/2
f 102/1/2 95/1/2 103/1/2
f 99/3/2 100/3/2 104/3/2
f 103/2/2 99/2/2 104/2/2
f 86/3/2 101/3/2 105/3/2
f 102/1/2 103/1/2 106/1/2
f 105/3/2 101/3/2 106/3/2
f 101/1/2 102/1/2 106/1/2
f 103/1/2 104/1/2 106/1/2
f 104/3/2 100/3/2 107/3/2
f 106/1/2 104/1/2 107/1/2
f 100/3/2 98/3/2 108/3/2
f 107/3/2 100/3/2 108/3/2
f 86/3/2 105/3/2 109/3/2
f 105/1/2 106/1/2 110/1/2
f 109/3/2 105/3/2 110/3/2
f 106/1/2 107/1/2 110/1/2
f 107/1/2 108/1/2 110/1/2
f 108/3/2 98/3/2 111/3/2
f 110/1/2 108/1/2 111/1/2
f 98/3/2 92/3/2 112/3/2
f 111/3/2 98/3/2 112/3/2
f 110/1/2 111/1/2 113/1/2
f 109/1/2 110/1/2 113/1/2
f 111/1/2 112/1/2 113/1/2
f 113/1/2 112/1/2 114/1/2
f 109/1/2 113/1/2 115/1/2
f 113/2/2 114/2/2 116/2/2
f 115/1/2 113/1/2 116/1/2
f 116/2/2 114/2/2 117/2/2
f 114/1/2 112/1/2 118/1/2
f 117/2/2 114/2/2 118/2/2
f 118/1/2 112/1/2 119/1/2
f 109/1/2 115/1/2 120/1/2
f 116/3/2 117/3/2 121/3/2
f 120/1/2 115/1/2 121/1/2
f 115/3/2 116/3/2 121/3/2
f 118/2/2 119/2/2 122/2/2
f 121/3/2 117/3/2 122/3/2
f 117/2/2 118/2/2 122/2/2
f 122/2/2 119/2/2 123/2/2
f 119/1/2 112/1/2 124/1/2
f 123/2/2 119/2/2 124/2/2
f 124/1/2 112/1/2 125/1/2
f 122/3/2 123/3/2 126/3/2
f 120/3/2 121/3/2 126/3/2
f 124/2/2 125/2/2 126/2/2
f 123/2/2 124/2/2 126/2/2
f 121/3/2 122/3/2 126/3/2
f 126/2/2 125/2/2 127/2/2
f 109/1/2 120/1/2 128/1/2
f 120/3/2 126/3/2 129/3/2
f 128/1/2 120/1/2 129/1/2
f 126/3/2 127/3/2 129/3/2
f 127/2/2 125/2/2 130/2/2
f 129/3/2 127/3/2 130/3/2
f 125/1/2 112/1/2 131/1/2
f 130/2/2 125/2/2 131/2/2
f 131/1/2 112/1/2 132/1/2
f 138/1/3 134/1/3 133/1/3
f 138/2/3 135/2/3 134/2/3
f 139/3/3 136/3/3 135/3/3
f 139/2/3 135/2/3 138/2/3
f 140/3/3 136/3/3 139/3/3
f 141/1/3 137/1/3 136/1/3
f 141/3/3 136/3/3 140/3/3
f 142/3/3 140/3/3 139/3/3
f 142/1/3 139/1/3 138/1/3
f 143/3/3 140/3/3 142/3/3
f 144/3/3 140/3/3 143/3/3
f 145/1/3 141/1/3 140/1/3
f 145/3/3 140/3/3 144/3/3
f 146/3/3 144/3/3 143/3/3
f 146/1/3 143/1/3 142/1/3
f 147/1/3 145/1/3 144/1/3
f 147/3/3 144/3/3 146/3/3
f 148/1/3 138/1/3 133/1/3
f 148/1/3 142/1/3 138/1/3
f 148/1/3 147/1/3 146/1/3
f 148/1/3 146/1/3 142/1/3
f 149/1/3 147/1/3 148/1/3
f 150/1/3 137/1/3 141/1/3
f 150/1/3 147/1/3 149/1/3
f 150/1/3 145/1/3 147/1/3
f 150/1/3 141/1/3 145/1/3
f 151/1/3 137/1/3 150/1/3
f 152/2/3 149/2/3 148/2/3
f 153/1/3 150/1/3 149/1/3
f 153/2/3 149/2/3 152/2/3
f 154/1/3 150/1/3 153/1/3
f 155/1/3 150/1/3 154/1/3
f 156/2/3 151/2/3 150/2/3
f 156/1/3 150/1/3 155/1/3
f 157/2/3 151/2/3 156/2/3
f 158/2/3 151/2/3 157/2/3
f 159/1/3 155/1/3 154/1/3
f 159/3/3 153/3/3 152/3/3
f 159/3/3 154/3/3 153/3/3
f 160/1/3 155/1/3 159/1/3
f 161/1/3 155/1/3 160/1/3
f 162/2/3 157/2/3 156/2/3
f 162/1/3 155/1/3 161/1/3
f 162/2/3 156/2/3 155/2/3
f 163/2/3 157/2/3 162/2/3
f 164/3/3 158/3/3 157/3/3
f 164/2/3 157/2/3 163/2/3
f 165/2/3 163/2/3 162/2/3
f 165/2/3 162/2/3 161/2/3
f 166/3/3 164/3/3 163/3/3
f 166/2/3 163/2/3 165/2/3
f 167/3/3 160/3/3 159/3/3
f 167/3/3 159/3/3 152/3/3
f 168/1/3 161/1/3 160/1/3
f 168/3/3 160/3/3 167/3/3
f 169/2/3 165/2/3 161/2/3
f 169/1/3 161/1/3 168/1/3
f 170/3/3 166/3/3 165/3/3
f 170/2/3 165/2/3 169/2/3
f 171/3/3 167/3/3 152/3/3
f 172/1/3 169/1/3 168/1/3
f 172/3/3 167/3/3 171/3/3
f 172/1/3 168/1/3 167/1/3
f 172/1/3 170/1/3 169/1/3
f 173/3/3 166/3/3 170/3/3
f 173/1/3 170/1/3 172/1/3
f 174/3/3 164/3/3 166/3/3
f 174/3/3 166/3/3 173/3/3
f 175/3/3 171/3/3 152/3/3
f 176/1/3 172/1/3 171/1/3
f 176/3/3 171/3/3 175/3/3
f 176/1/3 173/1/3 172/1/3
f 176/1/3 174/1/3 173/1/3
f 177/1/3 174/1/3 176/1/3
f 178/1/3 174/1/3 177/1/3
f 179/3/3 164/3/3 174/3/3
f 179/1/3 174/1/3 178/1/3
f 180/3/3 158/3/3 164/3/3
f 180/3/3 164/3/3 179/3/3
f 181/1/3 176/1/3 175/1/3
f 181/1/3 177/1/3 176/1/3
f 182/2/3 178/2/3 177/2/3
f 182/1/3 177/1/3 181/1/3
f 183/2/3 178/2/3 182/2/3
f 184/1/3 179/1/3 178/1/3
f 184/2/3 178/2/3 183/2/3
f 184/1/3 180/1/3 179/1/3
f 185/1/3 180/1/3 184/1/3
f 186/1/3 181/1/3 175/1/3
f 187/2/3 183/2/3 182/2/3
f 187/1/3 181/1/3 186/1/3
f 187/2/3 182/2/3 181/2/3
f 188/2/3 183/2/3 187/2/3
f 189/3/3 185/3/3 184/3/3
f 189/2/3 183/2/3 188/2/3
f 189/3/3 184/3/3 183/3/3
f 190/1/3 180/1/3 185/1/3
f 190/3/3 185/3/3 189/3/3
f 191/1/3 180/1/3 190/1/3
f 192/2/3 188/2/3 187/2/3
f 192/2/3 187/2/3 186/2/3
f 193/3/3 189/3/3 188/3/3
f 193/2/3 188/2/3 192/2/3
f 193/3/3 191/3/3 190/3/3
f 193/3/3 190/3/3 189/3/3
f 194/1/3 186/1/3 175/1/3
f 195/2/3 192/2/3 186/2/3
f 195/1/3 186/1/3 194/1/3
f 196/3/3 193/3/3 192/3/3
f 196/2/3 192/2/3 195/2/3
f 197/3/3 191/3/3 193/3/3
f 197/3/3 193/3/3 196/3/3
f 197/1/3 180/1/3 191/1/3
f 198/1/3 180/1/3 197/1/3
f 200/2/4 201/2/4 204/2/4
f 201/3/4 202/3/4 204/3/4
f 204/3/4 202/3/4 205/3/4
f 199/1/4 200/1/4 206/1/4
f 200/2/4 204/2/4 206/2/4
f 204/2/4 205/2/4 206/2/4
f 206/2/4 205/2/4 207/2/4
f 205/3/4 202/3/4 208/3/4
f 207/2/4 205/2/4 208/2/4
f 208/3/4 202/3/4 209/3/4
f 209/3/4 202/3/4 210/3/4
f 202/1/4 203/1/4 211/1/4
f 210/3/4 202/3/4 211/3/4
f 206/1/4 207/1/4 212/1/4
f 207/2/4 208/2/4 212/2/4
f 208/2/4 209/2/4 212/2/4
f 212/2/4 209/2/4 213/2/4
f 209/3/4 210/3/4 214/3/4
f 213/2/4 209/2/4 214/2/4
f 214/3/4 210/3/4 215/3/4
f 210/1/4 211/1/4 216/1/4
f 215/3/4 210/3/4 216/3/4
f 212/1/4 213/1/4 217/1/4
f 214/2/4 215/2/4 217/2/4
f 213/2/4 214/2/4 217/2/4
f 215/1/4 216/1/4 218/1/4
f 217/2/4 215/2/4 218/2/4
f 199/1/4 206/1/4 219/1/4
f 212/1/4 217/1/4 219/1/4
f 217/1/4 218/1/4 219/1/4
f 206/1/4 212/1/4 219/1/4
f 219/1/4 218/1/4 220/1/4
f 211/1/4 203/1/4 221/1/4
f 220/1/4 218/1/4 221/1/4
f 216/1/4 211/1/4 221/1/4
f 218/1/4 216/1/4 221/1/4
f 221/1/4 203/1/4 222/1/4
f 219/2/4 220/2/4 223/2/4
f 223/2/4 220/2/4 224/2/4
f 220/1/4 221/1/4 225/1/4
f 224/2/4 220/2/4 225/2/4
f 225/1/4 221/1/4 226/1/4
f 226/1/4 221/1/4 227/1/4
f 221/2/4 222/2/4 228/2/4
f 227/1/4 221/1/4 228/1/4
f 228/2/4 222/2/4 229/2/4
f 223/3/4 224/3/4 230/3/4
f 224/2/4 225/2/4 230/2/4
f 225/2/4 226/2/4 230/2/4
f 230/2/4 226/2/4 231/2/4
f 226/1/4 227/1/4 232/1/4
f 231/2/4 226/2/4 232/2/4
f 232/1/4 227/1/4 233/1/4
f 233/1/4 227/1/4 234/1/4
f 228/3/4 229/3/4 235/3/4
f 234/1/4 227/1/4 235/1/4
f 227/3/4 228/3/4 235/3/4
f 230/3/4 231/3/4 236/3/4
f 232/2/4 233/2/4 236/2/4
f 231/2/4 232/2/4 236/2/4
f 236/2/4 233/2/4 237/2/4
f 236/3/4 237/3/4 238/3/4
f 237/2/4 233/2/4 238/2/4
f 233/1/4 234/1/4 239/1/4
f 238/2/4 233/2/4 239/2/4
f 234/3/4 235/3/4 240/3/4
f 239/1/4 234/1/4 240/1/4
f 235/3/4 229/3/4 241/3/4
f 240/3/4 235/3/4 241/3/4
f 236/3/4 238/3/4 242/3/4
f 230/3/4 236/3/4 242/3/4
f 239/1/4 240/1/4 243/1/4
f 242/3/4 238/3/4 243/3/4
f 238/1/4 239/1/4 243/1/4
f 240/1/4 241/1/4 243/1/4
f 241/3/4 229/3/4 244/3/4
f 243/1/4 241/1/4 244/1/4
f 244/3/4 229/3/4 245/3/4
f 230/3/4 242/3/4 246/3/4
f 223/3/4 230/3/4 246/3/4
f 242/1/4 243/1/4 247/1/4
f 246/3/4 242/3/4 247/3/4
f 244/1/4 245/1/4 247/1/4
f 243/1/4 244/1/4 247/1/4
f 247/1/4 245/1/4 248/1/4
f 248/1/4 245/1/4 249/1/4
f 245/3/4 229/3/4 250/3/4
f 249/1/4 245/1/4 250/1/4
f 250/3/4 229/3/4 251/3/4
f 246/1/4 247/1/4 252/1/4
f 247/1/4 248/1/4 252/1/4
f 248/3/4 249/3/4 253/3/4
f 252/1/4 248/1/4 253/1/4
f 250/1/4 251/1/4 254/1/4
f 253/3/4 249/3/4 254/3/4
f 249/1/4 250/1/4 254/1/4
f 254/1/4 251/1/4 255/1/4
f 246/1/4 252/1/4 256/1/4
f 252/3/4 253/3/4 257/3/4
f 256/1/4 252/1/4 257/1/4
f 253/3/4 254/3/4 257/3/4
f 254/3/4 255/3/4 257/3/4
f 255/1/4 251/1/4 258/1/4
f 257/3/4 255/3/4 258/3/4
f 258/1/4 251/1/4 259/1/4
f 246/1/4 256/1/4 260/1/4
f 256/2/4 257/2/4 261/2/4
f 260/1/4 256/1/4 261/1/4
f 257/3/4 258/3/4 262/3/4
f 261/2/4 257/2/4 262/2/4
f 258/3/4 259/3/4 262/3/4
f 259/1/4 251/1/4 263/1/4
f 262/3/4 259/3/4 263/3/4
f 263/1/4 251/1/4 264/1/4
f 270/2/5 267/2/5 266/2/5
f 270/3/5 268/3/5 267/3/5
f 271/3/5 268/3/5 270/3/5
f 272/1/5 266/1/5 265/1/5
f 272/2/5 270/2/5 266/2/5
f 272/2/5 271/2/5 270/2/5
f 273/2/5 271/2/5 272/2/5
f 274/3/5 268/3/5 271/3/5
f 274/2/5 271/2/5 273/2/5
f 275/3/5 268/3/5 274/3/5
f 276/3/5 268/3/5 275/3/5
f 277/1/5 269/1/5 268/1/5
f 277/3/5 268/3/5 276/3/5
f 278/1/5 273/1/5 272/1/5
f 278/2/5 274/2/5 273/2/5
f 278/2/5 275/2/5 274/2/5
f 279/2/5 275/2/5 278/2/5
f 280/3/5 276/3/5 275/3/5
f 280/2/5 275/2/5 279/2/5
f 281/3/5 276/3/5 280/3/5
f 282/1/5 277/1/5 276/1/5
f 282/3/5 276/3/5 281/3/5
f 283/1/5 279/1/5 278/1/5
f 283/2/5 281/2/5 280/2/5
f 283/2/5 280/2/5 279/2/5
f 284/1/5 282/1/5 281/1/5
f 284/2/5 281/2/5 283/2/5
f 285/1/5 272/1/5 265/1/5
f 285/1/5 283/1/5 278/1/5
f 285/1/5 284/1/5 283/1/5
f 285/1/5 278/1/5 272/1/5
f 286/1/5 284/1/5 285/1/5
f 287/1/5 269/1/5 277/1/5
f 287/1/5 284/1/5 286/1/5
f 287/1/5 277/1/5 282/1/5
f 287/1/5 282/1/5 284/1/5
f 288/1/5 269/1/5 287/1/5
f 289/3/5 286/3/5 285/3/5
f 289/1/5 287/1/5 286/1/5
f 290/1/5 287/1/5 289/1/5
f 291/1/5 287/1/5 290/1/5
f 292/3/5 288/3/5 287/3/5
f 292/1/5 287/1/5 291/1/5
f 293/1/5 291/1/5 290/1/5
f 293/3/5 290/3/5 289/3/5
f 294/1/5 291/1/5 293/1/5
f 295/1/5 291/1/5 294/1/5
f 296/3/5 292/3/5 291/3/5
f 296/1/5 291/1/5 295/1/5
f 297/2/5 296/2/5 295/2/5
f 297/3/5 292/3/5 296/3/5
f 298/3/5 288/3/5 292/3/5
f 298/3/5 292/3/5 297/3/5
f 299/3/5 293/3/5 289/3/5
f 299/3/5 294/3/5 293/3/5
f 300/1/5 295/1/5 294/1/5
f 300/3/5 294/3/5 299/3/5
f 301/2/5 297/2/5 295/2/5
f 301/1/5 295/1/5 300/1/5
f 301/2/5 298/2/5 297/2/5
f 302/2/5 298/2/5 301/2/5
f 303/3/5 288/3/5 298/3/5
f 303/2/5 298/2/5 302/2/5
f 304/3/5 288/3/5 303/3/5
f 305/3/5 289/3/5 285/3/5
f 305/3/5 299/3/5 289/3/5
f 306/3/5 299/3/5 305/3/5
f 307/1/5 300/1/5 299/1/5
f 307/3/5 299/3/5 306/3/5
f 307/1/5 302/1/5 301/1/5
f 307/1/5 301/1/5 300/1/5
f 308/2/5 304/2/5 303/2/5
f 308/1/5 302/1/5 307/1/5
f 308/2/5 303/2/5 302/2/5
f 309/2/5 304/2/5 308/2/5
f 310/3/5 288/3/5 304/3/5
f 310/2/5 304/2/5 309/2/5
f 311/3/5 288/3/5 310/3/5
f 312/2/5 306/2/5 305/2/5
f 313/1/5 309/1/5 308/1/5
f 313/2/5 306/2/5 312/2/5
f 313/1/5 307/1/5 306/1/5
f 313/1/5 308/1/5 307/1/5
f 314/2/5 311/2/5 310/2/5
f 314/1/5 309/1/5 313/1/5
f 314/2/5 310/2/5 309/2/5
f 315/2/5 311/2/5 314/2/5
f 316/1/5 313/1/5 312/1/5
f 316/1/5 314/1/5 313/1/5
f 316/1/5 315/1/5 314/1/5
f 317/1/5 315/1/5 316/1/5
f 318/1/5 316/1/5 312/1/5
f 319/3/5 317/3/5 316/3/5
f 319/1/5 316/1/5 318/1/5
f 320/1/5 315/1/5 317/1/5
f 320/3/5 317/3/5 319/3/5
f 321/1/5 315/1/5 320/1/5
f 322/1/5 318/1/5 312/1/5
f 323/3/5 319/3/5 318/3/5
f 323/1/5 318/1/5 322/1/5
f 323/3/5 320/3/5 319/3/5
f 323/3/5 321/3/5 320/3/5
f 324/1/5 315/1/5 321/1/5
f 324/3/5 321/3/5 323/3/5
f 325/1/5 315/1/5 324/1/5
f 326/1/5 322/1/5 312/1/5
f 327/2/5 323/2/5 322/2/5
f 327/1/5 322/1/5 326/1/5
f 328/3/5 324/3/5 323/3/5
f 328/2/5 323/2/5 327/2/5
f 328/3/5 325/3/5 324/3/5
f 329/1/5 315/1/5 325/1/5
f 329/3/5 325/3/5 328/3/5
f 330/1/5 315/1/5 329/1/5
f 331/1/6 332/1/6 336/1/6
f 332/2/6 333/2/6 336/2/6
f 333/3/6 334/3/6 337/3/6
f 336/2/6 333/2/6 337/2/6
f 337/3/6 334/3/6 338/3/6
f 334/1/6 335/1/6 339/1/6
f 338/3/6 334/3/6 339/3/6
f 337/3/6 338/3/6 340/3/6
f 336/1/6 337/1/6 340/1/6
f 340/3/6 338/3/6 341/3/6
f 341/3/6 338/3/6 342/3/6
f 338/1/6 339/1/6 343/1/6
f 342/3/6 338/3/6 343/3/6
f 341/3/6 342/3/6 344/3/6
f 340/1/6 341/1/6 344/1/6
f 342/1/6 343/1/6 345/1/6
f 344/3/6 342/3/6 345/3/6
f 331/1/6 336/1/6 346/1/6
f 336/1/6 340/1/6 346/1/6
f 344/1/6 345/1/6 346/1/6
f 340/1/6 344/1/6 346/1/6
f 346/1/6 345/1/6 347/1/6
f 339/1/6 335/1/6 348/1/6
f 347/1/6 345/1/6 348/1/6
f 345/1/6 343/1/6 348/1/6
f 343/1/6 339/1/6 348/1/6
f 348/1/6 335/1/6 349/1/6
f 346/3/6 347/3/6 350/3/6
f 347/1/6 348/1/6 350/1/6
f 350/1/6 348/1/6 351/1/6
f 351/1/6 348/1/6 352/1/6
f 348/3/6 349/3/6 353/3/6
f 352/1/6 348/1/6 353/1/6
f 351/1/6 352/1/6 354/1/6
f 350/3/6 351/3/6 354/3/6
f 354/1/6 352/1/6 355/1/6
f 355/1/6 352/1/6 356/1/6
f 352/3/6 353/3/6 357/3/6
f 356/1/6 352/1/6 357/1/6
f 346/3/6 350/3/6 358/3/6
f 350/3/6 354/3/6 358/3/6
f 354/2/6 355/2/6 359/2/6
f 358/3/6 354/3/6 359/3/6
f 346/3/6 358/3/6 360/3/6
f 358/2/6 359/2/6 361/2/6
f 360/3/6 358/3/6 361/3/6
f 359/2/6 355/2/6 362/2/6
f 361/2/6 359/2/6 362/2/6
f 355/1/6 356/1/6 363/1/6
f 362/2/6 355/2/6 363/2/6
f 356/3/6 357/3/6 364/3/6
f 363/1/6 356/1/6 364/1/6
f 357/3/6 353/3/6 365/3/6
f 364/3/6 357/3/6 365/3/6
f 346/3/6 360/3/6 366/3/6
f 361/2/6 362/2/6 367/2/6
f 366/3/6 360/3/6 367/3/6
f 360/2/6 361/2/6 367/2/6
f 367/2/6 362/2/6 368/2/6
f 363/1/6 364/1/6 369/1/6
f 368/2/6 362/2/6 369/2/6
f 362/1/6 363/1/6 369/1/6
f 364/1/6 365/1/6 369/1/6
f 365/3/6 353/3/6 370/3/6
f 369/1/6 365/1/6 370/1/6
f 353/3/6 349/3/6 371/3/6
f 370/3/6 353/3/6 371/3/6
f 371/3/6 349/3/6 372/3/6
f 367/2/6 368/2/6 373/2/6
f 366/2/6 367/2/6 373/2/6
f 369/1/6 370/1/6 374/1/6
f 373/2/6 368/2/6 374/2/6
f 368/1/6 369/1/6 374/1/6
f 370/1/6 371/1/6 374/1/6
f 371/2/6 372/2/6 375/2/6
f 374/1/6 371/1/6 375/1/6
f 375/2/6 372/2/6 376/2/6
f 373/1/6 374/1/6 377/1/6
f 374/1/6 375/1/6 377/1/6
f 375/1/6 376/1/6 377/1/6
f 377/1/6 376/1/6 378/1/6
f 373/1/6 377/1/6 379/1/6
f 377/2/6 378/2/6 380/2/6
f 379/1/6 377/1/6 380/1/6
f 380/2/6 378/2/6 381/2/6
f 378/1/6 376/1/6 382/1/6
f 381/2/6 378/2/6 382/2/6
f 382/1/6 376/1/6 383/1/6
f 373/1/6 379/1/6 384/1/6
f 380/2/6 381/2/6 385/2/6
f 384/1/6 379/1/6 385/1/6
f 379/2/6 380/2/6 385/2/6
f 385/2/6 381/2/6 386/2/6
f 382/3/6 383/3/6 387/3/6
f 386/2/6 381/2/6 387/2/6
f 381/3/6 382/3/6 387/3/6
f 383/1/6 376/1/6 388/1/6
f 387/3/6 383/3/6 388/3/6
f 388/1/6 376/1/6 389/1/6
f 385/2/6 386/2/6 390/2/6
f 384/2/6 385/2/6 390/2/6
f 386/3/6 387/3/6 391/3/6
f 390/2/6 386/2/6 391/2/6
f 388/3/6 389/3/6 391/3/6
f 387/3/6 388/3/6 391/3/6
f 373/1/6 384/1/6 392/1/6
f 384/2/6 390/2/6 393/2/6
f 392/1/6 384/1/6 393/1/6
f 390/3/6 391/3/6 394/3/6
f 393/2/6 390/2/6 394/2/6
f 391/3/6 389/3/6 395/3/6
f 394/3/6 391/3/6 395/3/6
f 389/1/6 376/1/6 395/1/6
f 395/1/6 376/1/6 396/1/6
