# MagicaVoxel @ Ephtracy

# group
o 

# material
mtllib Kitty.mtl
usemtl palette

# normals
vn -1 0 0
vn 1 0 0
vn 0 0 1
vn 0 0 -1
vn 0 -1 0
vn 0 1 0

# texcoords
vt 0.00195313 0.5
vt 0.0449219 0.5
vt 0.0488281 0.5
vt 0.0917969 0.5
vt 0.115234 0.5
vt 0.876953 0.5
vt 0.958984 0.5
vt 0.974609 0.5

# verts
v -1 0.7 0.9
v -1 0.7 0.8
v -1 0.8 0.9
v -1 0.8 0.8
v -1 0.9 0.9
v -1 0.9 0.8
v -1 1 0.9
v -1 1 0.8
v -0.8 0.1 0.9
v -0.8 0.1 0.7
v -0.8 0.1 0.5
v -0.8 0.1 -0.3
v -0.8 0.1 -0.5
v -0.8 0.1 -0.7
v -0.8 0.2 0.9
v -0.8 0.2 0.7
v -0.8 0.2 0.5
v -0.8 0.2 -0.3
v -0.8 0.2 -0.5
v -0.8 0.2 -0.7
v -0.8 0.3 0.5
v -0.8 0.3 -0.3
v -0.8 0.7 0.9
v -0.8 0.7 0.8
v -0.8 0.8 0.9
v -0.8 0.8 0.8
v -0.8 0.9 0.9
v -0.8 0.9 0.8
v -0.8 1 0.9
v -0.8 1 0.8
v -0.8 1.6 0.8
v -0.8 1.6 -0.7
v -0.8 1.9 0.9
v -0.8 1.9 0.8
v -0.4 0.6 1
v -0.4 0.6 0.9
v -0.4 0.9 1
v -0.4 0.9 0.9
v -0.2 0.7 -0.7
v -0.2 0.7 -1
v -0.2 0.8 -0.7
v -0.2 0.8 -1
v -0.2 0.9 -0.7
v -0.2 0.9 -1
v -0.2 1 -0.7
v -0.2 1 -1
v -0.2 1.2 -0.7
v -0.2 1.2 -1
v -0.2 1.3 -0.7
v -0.2 1.3 -1
v -0.2 1.5 -0.7
v -0.2 1.5 -1
v -0.2 1.6 -0.7
v -0.2 1.6 -1
v -0.2 1.7 0
v -0.2 1.7 -0.2
v -0.2 1.7 -0.3
v -0.2 1.7 -0.4
v -0.2 1.7 -0.6
v -0.2 1.7 -0.7
v -0.2 1.7 -1
v -0.2 1.8 -0.8
v -0.2 1.8 -1
v -0.2 1.9 -0.9
v -0.2 1.9 -1
v -0.2 2 0
v -0.2 2 -0.2
v -0.2 2 -0.3
v -0.2 2 -0.4
v -0.2 2 -0.6
v -0.2 2 -0.7
v -0.2 2 -0.8
v -0.2 2 -0.9
v -0.2 2 -1
v 0.1 0.6 1
v 0.1 0.6 0.9
v 0.1 0.7 1
v 0.1 0.7 0.9
v 0.4 0.1 0.9
v 0.4 0.1 0.5
v 0.4 0.1 -0.3
v 0.4 0.1 -0.7
v 0.4 0.2 0.9
v 0.4 0.2 0.5
v 0.4 0.2 -0.3
v 0.4 0.2 -0.7
v 0.4 0.3 0.5
v 0.4 0.3 -0.3
v 0.4 1.6 0.9
v 0.4 1.6 0.8
v 0.4 1.9 0.9
v 0.4 1.9 0.8
v -0.4 0.1 0.9
v -0.4 0.1 0.5
v -0.4 0.1 -0.3
v -0.4 0.1 -0.7
v -0.4 0.2 0.9
v -0.4 0.2 0.5
v -0.4 0.2 -0.3
v -0.4 0.2 -0.7
v -0.4 0.3 0.5
v -0.4 0.3 -0.3
v -0.4 1.6 0.9
v -0.4 1.6 0.8
v -0.4 1.9 0.9
v -0.4 1.9 0.8
v -0.1 0.6 1
v -0.1 0.6 0.9
v -0.1 0.7 1
v -0.1 0.7 0.9
v 0.2 0.7 -0.7
v 0.2 0.7 -1
v 0.2 0.8 -0.7
v 0.2 0.8 -1
v 0.2 0.9 -0.7
v 0.2 0.9 -1
v 0.2 1 -0.7
v 0.2 1 -1
v 0.2 1.2 -0.7
v 0.2 1.2 -1
v 0.2 1.3 -0.7
v 0.2 1.3 -1
v 0.2 1.5 -0.7
v 0.2 1.5 -1
v 0.2 1.6 -0.7
v 0.2 1.6 -1
v 0.2 1.7 0
v 0.2 1.7 -0.2
v 0.2 1.7 -0.3
v 0.2 1.7 -0.4
v 0.2 1.7 -0.6
v 0.2 1.7 -0.7
v 0.2 1.7 -1
v 0.2 1.8 -0.8
v 0.2 1.8 -1
v 0.2 1.9 -0.9
v 0.2 1.9 -1
v 0.2 2 0
v 0.2 2 -0.2
v 0.2 2 -0.3
v 0.2 2 -0.4
v 0.2 2 -0.6
v 0.2 2 -0.7
v 0.2 2 -0.8
v 0.2 2 -0.9
v 0.2 2 -1
v 0.4 0.6 1
v 0.4 0.6 0.9
v 0.4 0.9 1
v 0.4 0.9 0.9
v 0.8 0.1 0.9
v 0.8 0.1 0.7
v 0.8 0.1 0.5
v 0.8 0.1 -0.3
v 0.8 0.1 -0.5
v 0.8 0.1 -0.7
v 0.8 0.2 0.9
v 0.8 0.2 0.7
v 0.8 0.2 0.5
v 0.8 0.2 -0.3
v 0.8 0.2 -0.5
v 0.8 0.2 -0.7
v 0.8 0.3 0.5
v 0.8 0.3 -0.3
v 0.8 0.7 0.9
v 0.8 0.7 0.8
v 0.8 0.8 0.9
v 0.8 0.8 0.8
v 0.8 0.9 0.9
v 0.8 0.9 0.8
v 0.8 1 0.9
v 0.8 1 0.8
v 0.8 1.6 0.8
v 0.8 1.6 -0.7
v 0.8 1.9 0.9
v 0.8 1.9 0.8
v 1 0.7 0.9
v 1 0.7 0.8
v 1 0.8 0.9
v 1 0.8 0.8
v 1 0.9 0.9
v 1 0.9 0.8
v 1 1 0.9
v 1 1 0.8
v -0.4 0.6 1
v -0.4 0.9 1
v -0.1 0.6 1
v -0.1 0.7 1
v -0.1 0.8 1
v -0.1 0.9 1
v 0.1 0.6 1
v 0.1 0.7 1
v 0.1 0.8 1
v 0.1 0.9 1
v 0.4 0.6 1
v 0.4 0.9 1
v -1 0.7 0.9
v -1 0.8 0.9
v -1 0.9 0.9
v -1 1 0.9
v -0.8 0.1 0.9
v -0.8 0.2 0.9
v -0.8 0.7 0.9
v -0.8 0.8 0.9
v -0.8 0.9 0.9
v -0.8 1 0.9
v -0.8 1.9 0.9
v -0.7 0.1 0.9
v -0.7 0.2 0.9
v -0.7 1.6 0.9
v -0.7 1.8 0.9
v -0.6 0.1 0.9
v -0.6 0.2 0.9
v -0.6 1 0.9
v -0.6 1.4 0.9
v -0.5 0.1 0.9
v -0.5 0.2 0.9
v -0.5 1.1 0.9
v -0.5 1.4 0.9
v -0.5 1.6 0.9
v -0.5 1.8 0.9
v -0.4 0.1 0.9
v -0.4 0.2 0.9
v -0.4 0.4 0.9
v -0.4 0.6 0.9
v -0.4 0.9 0.9
v -0.4 1.6 0.9
v -0.4 1.9 0.9
v -0.3 1.3 0.9
v -0.3 1.4 0.9
v -0.2 1 0.9
v -0.2 1.1 0.9
v -0.2 1.3 0.9
v -0.2 1.4 0.9
v -0.1 0.6 0.9
v -0.1 0.7 0.9
v -0.1 0.9 0.9
v 0.1 0.6 0.9
v 0.1 0.7 0.9
v 0.1 0.9 0.9
v 0.2 1 0.9
v 0.2 1.4 0.9
v 0.3 1.1 0.9
v 0.3 1.4 0.9
v 0.4 0.1 0.9
v 0.4 0.2 0.9
v 0.4 0.4 0.9
v 0.4 0.6 0.9
v 0.4 0.9 0.9
v 0.4 1.6 0.9
v 0.4 1.9 0.9
v 0.5 0.1 0.9
v 0.5 0.2 0.9
v 0.5 1.3 0.9
v 0.5 1.4 0.9
v 0.5 1.6 0.9
v 0.5 1.8 0.9
v 0.6 0.1 0.9
v 0.6 0.2 0.9
v 0.6 1 0.9
v 0.6 1.1 0.9
v 0.6 1.3 0.9
v 0.6 1.4 0.9
v 0.7 0.1 0.9
v 0.7 0.2 0.9
v 0.7 1.6 0.9
v 0.7 1.8 0.9
v 0.8 0.1 0.9
v 0.8 0.2 0.9
v 0.8 0.7 0.9
v 0.8 0.8 0.9
v 0.8 0.9 0.9
v 0.8 1 0.9
v 0.8 1.9 0.9
v 1 0.7 0.9
v 1 0.8 0.9
v 1 0.9 0.9
v 1 1 0.9
v -0.2 1.7 0
v -0.2 2 0
v 0.2 1.7 0
v 0.2 2 0
v -0.8 0.1 -0.3
v -0.8 0.2 -0.3
v -0.7 0.1 -0.3
v -0.7 0.2 -0.3
v -0.6 0.1 -0.3
v -0.6 0.2 -0.3
v -0.5 0.1 -0.3
v -0.5 0.2 -0.3
v -0.4 0.1 -0.3
v -0.4 0.2 -0.3
v -0.4 0.3 -0.3
v 0.4 0.1 -0.3
v 0.4 0.2 -0.3
v 0.4 0.3 -0.3
v 0.5 0.1 -0.3
v 0.5 0.2 -0.3
v 0.6 0.1 -0.3
v 0.6 0.2 -0.3
v 0.7 0.1 -0.3
v 0.7 0.2 -0.3
v 0.8 0.1 -0.3
v 0.8 0.2 -0.3
v -0.2 1.6 -0.7
v -0.2 1.7 -0.7
v 0.2 1.6 -0.7
v 0.2 1.7 -0.7
v -1 0.7 0.8
v -1 0.8 0.8
v -1 0.9 0.8
v -1 1 0.8
v -0.8 0.7 0.8
v -0.8 0.8 0.8
v -0.8 0.9 0.8
v -0.8 1 0.8
v -0.8 1.6 0.8
v -0.8 1.9 0.8
v -0.7 1.6 0.8
v -0.7 1.8 0.8
v -0.5 1.6 0.8
v -0.5 1.8 0.8
v -0.4 1.6 0.8
v -0.4 1.9 0.8
v 0.4 1.6 0.8
v 0.4 1.9 0.8
v 0.5 1.6 0.8
v 0.5 1.8 0.8
v 0.7 1.6 0.8
v 0.7 1.8 0.8
v 0.8 0.7 0.8
v 0.8 0.8 0.8
v 0.8 0.9 0.8
v 0.8 1 0.8
v 0.8 1.6 0.8
v 0.8 1.9 0.8
v 1 0.7 0.8
v 1 0.8 0.8
v 1 0.9 0.8
v 1 1 0.8
v -0.8 0.1 0.5
v -0.8 0.2 0.5
v -0.4 0.1 0.5
v -0.4 0.2 0.5
v -0.4 0.3 0.5
v 0.4 0.1 0.5
v 0.4 0.2 0.5
v 0.4 0.3 0.5
v 0.8 0.1 0.5
v 0.8 0.2 0.5
v -0.8 0.1 -0.7
v -0.8 0.2 -0.7
v -0.8 1.6 -0.7
v -0.4 0.1 -0.7
v -0.4 0.2 -0.7
v -0.4 0.3 -0.7
v -0.2 0.7 -0.7
v -0.2 0.8 -0.7
v -0.2 0.9 -0.7
v -0.2 1 -0.7
v -0.2 1.2 -0.7
v -0.2 1.3 -0.7
v -0.2 1.5 -0.7
v -0.2 1.6 -0.7
v 0.2 0.7 -0.7
v 0.2 0.8 -0.7
v 0.2 0.9 -0.7
v 0.2 1 -0.7
v 0.2 1.2 -0.7
v 0.2 1.3 -0.7
v 0.2 1.5 -0.7
v 0.2 1.6 -0.7
v 0.4 0.1 -0.7
v 0.4 0.2 -0.7
v 0.4 0.3 -0.7
v 0.8 0.1 -0.7
v 0.8 0.2 -0.7
v 0.8 1.6 -0.7
v -0.2 0.7 -1
v -0.2 0.8 -1
v -0.2 0.9 -1
v -0.2 1 -1
v -0.2 1.2 -1
v -0.2 1.3 -1
v -0.2 1.5 -1
v -0.2 1.6 -1
v -0.2 1.7 -1
v -0.2 1.8 -1
v -0.2 1.9 -1
v -0.2 2 -1
v 0.2 0.7 -1
v 0.2 0.8 -1
v 0.2 0.9 -1
v 0.2 1 -1
v 0.2 1.2 -1
v 0.2 1.3 -1
v 0.2 1.5 -1
v 0.2 1.6 -1
v 0.2 1.7 -1
v 0.2 1.8 -1
v 0.2 1.9 -1
v 0.2 2 -1
v -0.8 0.1 0.9
v -0.7 0.1 0.9
v -0.6 0.1 0.9
v -0.5 0.1 0.9
v -0.4 0.1 0.9
v 0.4 0.1 0.9
v 0.5 0.1 0.9
v 0.6 0.1 0.9
v 0.7 0.1 0.9
v 0.8 0.1 0.9
v -0.8 0.1 0.7
v -0.7 0.1 0.7
v -0.6 0.1 0.7
v -0.5 0.1 0.7
v 0.5 0.1 0.7
v 0.6 0.1 0.7
v 0.7 0.1 0.7
v 0.8 0.1 0.7
v -0.8 0.1 0.5
v -0.4 0.1 0.5
v 0.4 0.1 0.5
v 0.8 0.1 0.5
v -0.8 0.1 -0.3
v -0.7 0.1 -0.3
v -0.6 0.1 -0.3
v -0.5 0.1 -0.3
v -0.4 0.1 -0.3
v 0.4 0.1 -0.3
v 0.5 0.1 -0.3
v 0.6 0.1 -0.3
v 0.7 0.1 -0.3
v 0.8 0.1 -0.3
v -0.8 0.1 -0.5
v -0.7 0.1 -0.5
v -0.6 0.1 -0.5
v -0.5 0.1 -0.5
v 0.5 0.1 -0.5
v 0.6 0.1 -0.5
v 0.7 0.1 -0.5
v 0.8 0.1 -0.5
v -0.8 0.1 -0.7
v -0.4 0.1 -0.7
v 0.4 0.1 -0.7
v 0.8 0.1 -0.7
v -0.4 0.2 0.9
v 0.4 0.2 0.9
v -0.8 0.2 0.5
v -0.4 0.2 0.5
v 0.4 0.2 0.5
v 0.8 0.2 0.5
v -0.8 0.2 -0.3
v -0.7 0.2 -0.3
v -0.6 0.2 -0.3
v -0.5 0.2 -0.3
v -0.4 0.2 -0.3
v 0.4 0.2 -0.3
v 0.5 0.2 -0.3
v 0.6 0.2 -0.3
v 0.7 0.2 -0.3
v 0.8 0.2 -0.3
v -0.4 0.2 -0.7
v 0.4 0.2 -0.7
v -0.4 0.3 0.5
v 0.4 0.3 0.5
v -0.4 0.3 -0.3
v 0.4 0.3 -0.3
v -0.4 0.6 1
v -0.1 0.6 1
v 0.1 0.6 1
v 0.4 0.6 1
v -0.4 0.6 0.9
v -0.1 0.6 0.9
v 0.1 0.6 0.9
v 0.4 0.6 0.9
v -0.1 0.7 1
v 0.1 0.7 1
v -1 0.7 0.9
v -0.8 0.7 0.9
v -0.1 0.7 0.9
v 0.1 0.7 0.9
v 0.8 0.7 0.9
v 1 0.7 0.9
v -1 0.7 0.8
v -0.8 0.7 0.8
v 0.8 0.7 0.8
v 1 0.7 0.8
v -0.2 0.7 -0.7
v 0.2 0.7 -0.7
v -0.2 0.7 -1
v 0.2 0.7 -1
v -1 0.9 0.9
v -0.8 0.9 0.9
v 0.8 0.9 0.9
v 1 0.9 0.9
v -1 0.9 0.8
v -0.8 0.9 0.8
v 0.8 0.9 0.8
v 1 0.9 0.8
v -0.2 1.7 0
v 0.2 1.7 0
v -0.2 1.7 -0.2
v 0.2 1.7 -0.2
v -0.2 1.7 -0.3
v 0.2 1.7 -0.3
v -0.2 1.7 -0.4
v 0.2 1.7 -0.4
v -0.2 1.7 -0.6
v 0.2 1.7 -0.6
v -0.2 1.7 -0.7
v 0.2 1.7 -0.7
v -1 0.8 0.9
v -0.8 0.8 0.9
v 0.8 0.8 0.9
v 1 0.8 0.9
v -1 0.8 0.8
v -0.8 0.8 0.8
v 0.8 0.8 0.8
v 1 0.8 0.8
v -0.4 0.9 1
v -0.1 0.9 1
v 0.1 0.9 1
v 0.4 0.9 1
v -0.4 0.9 0.9
v -0.1 0.9 0.9
v 0.1 0.9 0.9
v 0.4 0.9 0.9
v -1 1 0.9
v -0.8 1 0.9
v 0.8 1 0.9
v 1 1 0.9
v -1 1 0.8
v -0.8 1 0.8
v 0.8 1 0.8
v 1 1 0.8
v -0.4 1.6 0.9
v 0.4 1.6 0.9
v -0.8 1.6 0.8
v -0.7 1.6 0.8
v -0.5 1.6 0.8
v -0.4 1.6 0.8
v 0.4 1.6 0.8
v 0.5 1.6 0.8
v 0.7 1.6 0.8
v 0.8 1.6 0.8
v -0.4 1.6 0.7
v 0.4 1.6 0.7
v -0.4 1.6 0.6
v 0.4 1.6 0.6
v -0.4 1.6 0.5
v 0.4 1.6 0.5
v -0.4 1.6 0.3
v 0.4 1.6 0.3
v -0.4 1.6 0.2
v 0.4 1.6 0.2
v -0.4 1.6 0.1
v 0.4 1.6 0.1
v -0.8 1.6 -0.7
v -0.2 1.6 -0.7
v 0.2 1.6 -0.7
v 0.8 1.6 -0.7
v -0.8 1.9 0.9
v -0.4 1.9 0.9
v 0.4 1.9 0.9
v 0.8 1.9 0.9
v -0.8 1.9 0.8
v -0.4 1.9 0.8
v 0.4 1.9 0.8
v 0.8 1.9 0.8
v -0.2 2 0
v 0.2 2 0
v -0.2 2 -0.2
v 0.2 2 -0.2
v -0.2 2 -0.3
v 0.2 2 -0.3
v -0.2 2 -0.4
v 0.2 2 -0.4
v -0.2 2 -0.6
v 0.2 2 -0.6
v -0.2 2 -0.7
v 0.2 2 -0.7
v -0.2 2 -0.8
v 0.2 2 -0.8
v -0.2 2 -0.9
v 0.2 2 -0.9
v -0.2 2 -1
v 0.2 2 -1

# faces
f 3/1/1 2/1/1 1/1/1
f 4/1/1 2/1/1 3/1/1
f 7/1/1 6/1/1 5/1/1
f 8/1/1 6/1/1 7/1/1
f 15/8/1 10/8/1 9/8/1
f 16/7/1 11/7/1 10/7/1
f 16/8/1 10/8/1 15/8/1
f 17/7/1 11/7/1 16/7/1
f 18/8/1 13/8/1 12/8/1
f 19/7/1 14/7/1 13/7/1
f 19/8/1 13/8/1 18/8/1
f 20/7/1 14/7/1 19/7/1
f 21/1/1 18/1/1 17/1/1
f 21/4/1 17/4/1 16/4/1
f 21/4/1 16/4/1 15/4/1
f 22/4/1 20/4/1 19/4/1
f 22/1/1 18/1/1 21/1/1
f 22/4/1 19/4/1 18/4/1
f 23/4/1 21/4/1 15/4/1
f 23/4/1 22/4/1 21/4/1
f 24/4/1 22/4/1 23/4/1
f 26/4/1 22/4/1 24/4/1
f 27/4/1 26/4/1 25/4/1
f 28/4/1 22/4/1 26/4/1
f 28/4/1 26/4/1 27/4/1
f 30/4/1 22/4/1 28/4/1
f 31/4/1 22/4/1 30/4/1
f 31/4/1 30/4/1 29/4/1
f 32/4/1 20/4/1 22/4/1
f 32/4/1 22/4/1 31/4/1
f 33/4/1 31/4/1 29/4/1
f 34/4/1 31/4/1 33/4/1
f 37/1/1 36/1/1 35/1/1
f 38/1/1 36/1/1 37/1/1
f 41/4/1 40/4/1 39/4/1
f 42/4/1 40/4/1 41/4/1
f 43/5/1 42/5/1 41/5/1
f 44/5/1 42/5/1 43/5/1
f 45/4/1 44/4/1 43/4/1
f 46/4/1 44/4/1 45/4/1
f 47/5/1 46/5/1 45/5/1
f 48/5/1 46/5/1 47/5/1
f 49/4/1 48/4/1 47/4/1
f 50/4/1 48/4/1 49/4/1
f 51/5/1 50/5/1 49/5/1
f 52/5/1 50/5/1 51/5/1
f 53/4/1 52/4/1 51/4/1
f 54/4/1 52/4/1 53/4/1
f 60/5/1 54/5/1 53/5/1
f 61/5/1 54/5/1 60/5/1
f 62/4/1 61/4/1 60/4/1
f 63/4/1 61/4/1 62/4/1
f 64/5/1 63/5/1 62/5/1
f 65/5/1 63/5/1 64/5/1
f 66/5/1 56/5/1 55/5/1
f 67/4/1 57/4/1 56/4/1
f 67/5/1 56/5/1 66/5/1
f 68/5/1 58/5/1 57/5/1
f 68/4/1 57/4/1 67/4/1
f 69/4/1 59/4/1 58/4/1
f 69/5/1 58/5/1 68/5/1
f 70/5/1 60/5/1 59/5/1
f 70/4/1 59/4/1 69/4/1
f 71/4/1 62/4/1 60/4/1
f 71/5/1 60/5/1 70/5/1
f 72/5/1 64/5/1 62/5/1
f 72/4/1 62/4/1 71/4/1
f 73/4/1 65/4/1 64/4/1
f 73/5/1 64/5/1 72/5/1
f 74/4/1 65/4/1 73/4/1
f 77/1/1 76/1/1 75/1/1
f 78/1/1 76/1/1 77/1/1
f 83/7/1 80/7/1 79/7/1
f 84/7/1 80/7/1 83/7/1
f 85/7/1 82/7/1 81/7/1
f 86/7/1 82/7/1 85/7/1
f 87/1/1 85/1/1 84/1/1
f 88/1/1 85/1/1 87/1/1
f 91/4/1 90/4/1 89/4/1
f 92/4/1 90/4/1 91/4/1
f 93/7/2 94/7/2 97/7/2
f 97/7/2 94/7/2 98/7/2
f 95/7/2 96/7/2 99/7/2
f 99/7/2 96/7/2 100/7/2
f 98/1/2 99/1/2 101/1/2
f 101/1/2 99/1/2 102/1/2
f 103/4/2 104/4/2 105/4/2
f 105/4/2 104/4/2 106/4/2
f 107/1/2 108/1/2 109/1/2
f 109/1/2 108/1/2 110/1/2
f 111/4/2 112/4/2 113/4/2
f 113/4/2 112/4/2 114/4/2
f 113/5/2 114/5/2 115/5/2
f 115/5/2 114/5/2 116/5/2
f 115/4/2 116/4/2 117/4/2
f 117/4/2 116/4/2 118/4/2
f 117/5/2 118/5/2 119/5/2
f 119/5/2 118/5/2 120/5/2
f 119/4/2 120/4/2 121/4/2
f 121/4/2 120/4/2 122/4/2
f 121/5/2 122/5/2 123/5/2
f 123/5/2 122/5/2 124/5/2
f 123/4/2 124/4/2 125/4/2
f 125/4/2 124/4/2 126/4/2
f 125/5/2 126/5/2 132/5/2
f 132/5/2 126/5/2 133/5/2
f 132/4/2 133/4/2 134/4/2
f 134/4/2 133/4/2 135/4/2
f 134/5/2 135/5/2 136/5/2
f 136/5/2 135/5/2 137/5/2
f 127/5/2 128/5/2 138/5/2
f 128/4/2 129/4/2 139/4/2
f 138/5/2 128/5/2 139/5/2
f 129/5/2 130/5/2 140/5/2
f 139/4/2 129/4/2 140/4/2
f 130/4/2 131/4/2 141/4/2
f 140/5/2 130/5/2 141/5/2
f 131/5/2 132/5/2 142/5/2
f 141/4/2 131/4/2 142/4/2
f 132/4/2 134/4/2 143/4/2
f 142/5/2 132/5/2 143/5/2
f 134/5/2 136/5/2 144/5/2
f 143/4/2 134/4/2 144/4/2
f 136/4/2 137/4/2 145/4/2
f 144/5/2 136/5/2 145/5/2
f 145/4/2 137/4/2 146/4/2
f 147/1/2 148/1/2 149/1/2
f 149/1/2 148/1/2 150/1/2
f 151/8/2 152/8/2 157/8/2
f 152/7/2 153/7/2 158/7/2
f 157/8/2 152/8/2 158/8/2
f 158/7/2 153/7/2 159/7/2
f 154/8/2 155/8/2 160/8/2
f 155/7/2 156/7/2 161/7/2
f 160/8/2 155/8/2 161/8/2
f 161/7/2 156/7/2 162/7/2
f 159/1/2 160/1/2 163/1/2
f 158/4/2 159/4/2 163/4/2
f 157/4/2 158/4/2 163/4/2
f 161/4/2 162/4/2 164/4/2
f 163/1/2 160/1/2 164/1/2
f 160/4/2 161/4/2 164/4/2
f 157/4/2 163/4/2 165/4/2
f 163/4/2 164/4/2 165/4/2
f 165/4/2 164/4/2 166/4/2
f 166/4/2 164/4/2 168/4/2
f 167/4/2 168/4/2 169/4/2
f 168/4/2 164/4/2 170/4/2
f 169/4/2 168/4/2 170/4/2
f 170/4/2 164/4/2 172/4/2
f 172/4/2 164/4/2 173/4/2
f 171/4/2 172/4/2 173/4/2
f 164/4/2 162/4/2 174/4/2
f 173/4/2 164/4/2 174/4/2
f 171/4/2 173/4/2 175/4/2
f 175/4/2 173/4/2 176/4/2
f 177/1/2 178/1/2 179/1/2
f 179/1/2 178/1/2 180/1/2
f 181/1/2 182/1/2 183/1/2
f 183/1/2 182/1/2 184/1/2
f 187/1/3 186/1/3 185/1/3
f 188/1/3 186/1/3 187/1/3
f 189/1/3 186/1/3 188/1/3
f 190/1/3 186/1/3 189/1/3
f 192/1/3 189/1/3 188/1/3
f 193/3/3 190/3/3 189/3/3
f 193/1/3 189/1/3 192/1/3
f 194/3/3 190/3/3 193/3/3
f 195/1/3 192/1/3 191/1/3
f 195/1/3 193/1/3 192/1/3
f 195/1/3 194/1/3 193/1/3
f 196/1/3 194/1/3 195/1/3
f 203/1/3 198/1/3 197/1/3
f 204/1/3 198/1/3 203/1/3
f 205/1/3 200/1/3 199/1/3
f 206/1/3 200/1/3 205/1/3
f 208/8/3 202/8/3 201/8/3
f 209/4/3 207/4/3 206/4/3
f 209/8/3 202/8/3 208/8/3
f 209/4/3 204/4/3 203/4/3
f 209/4/3 206/4/3 205/4/3
f 209/4/3 205/4/3 204/4/3
f 209/4/3 203/4/3 202/4/3
f 210/4/3 207/4/3 209/4/3
f 211/4/3 207/4/3 210/4/3
f 212/7/3 209/7/3 208/7/3
f 213/4/3 210/4/3 209/4/3
f 213/7/3 209/7/3 212/7/3
f 214/4/3 210/4/3 213/4/3
f 215/4/3 210/4/3 214/4/3
f 216/8/3 213/8/3 212/8/3
f 217/4/3 214/4/3 213/4/3
f 217/8/3 213/8/3 216/8/3
f 218/2/3 215/2/3 214/2/3
f 219/4/3 210/4/3 215/4/3
f 219/2/3 215/2/3 218/2/3
f 220/5/3 211/5/3 210/5/3
f 220/4/3 210/4/3 219/4/3
f 221/4/3 207/4/3 211/4/3
f 221/5/3 211/5/3 220/5/3
f 222/7/3 217/7/3 216/7/3
f 223/4/3 214/4/3 217/4/3
f 223/7/3 217/7/3 222/7/3
f 224/4/3 214/4/3 223/4/3
f 225/4/3 214/4/3 224/4/3
f 226/4/3 214/4/3 225/4/3
f 227/4/3 220/4/3 219/4/3
f 227/4/3 221/4/3 220/4/3
f 228/4/3 207/4/3 221/4/3
f 228/4/3 221/4/3 227/4/3
f 229/6/3 219/6/3 218/6/3
f 230/4/3 227/4/3 219/4/3
f 230/6/3 219/6/3 229/6/3
f 231/4/3 214/4/3 226/4/3
f 231/2/3 218/2/3 214/2/3
f 232/6/3 229/6/3 218/6/3
f 232/2/3 218/2/3 231/2/3
f 233/1/3 230/1/3 229/1/3
f 233/6/3 229/6/3 232/6/3
f 234/4/3 227/4/3 230/4/3
f 234/1/3 230/1/3 233/1/3
f 235/4/3 225/4/3 224/4/3
f 237/4/3 233/4/3 232/4/3
f 237/4/3 232/4/3 231/4/3
f 237/4/3 231/4/3 226/4/3
f 237/4/3 234/4/3 233/4/3
f 238/4/3 236/4/3 235/4/3
f 238/4/3 235/4/3 224/4/3
f 239/4/3 236/4/3 238/4/3
f 240/4/3 234/4/3 237/4/3
f 241/4/3 234/4/3 240/4/3
f 242/4/3 227/4/3 234/4/3
f 242/4/3 234/4/3 241/4/3
f 243/2/3 242/2/3 241/2/3
f 244/4/3 227/4/3 242/4/3
f 244/2/3 242/2/3 243/2/3
f 246/1/3 224/1/3 223/1/3
f 247/4/3 238/4/3 224/4/3
f 247/1/3 224/1/3 246/1/3
f 248/4/3 238/4/3 247/4/3
f 249/4/3 241/4/3 240/4/3
f 250/4/3 227/4/3 244/4/3
f 252/7/3 246/7/3 245/7/3
f 253/4/3 249/4/3 248/4/3
f 253/7/3 246/7/3 252/7/3
f 253/4/3 248/4/3 247/4/3
f 253/4/3 247/4/3 246/4/3
f 254/6/3 244/6/3 243/6/3
f 255/4/3 250/4/3 244/4/3
f 255/6/3 244/6/3 254/6/3
f 255/4/3 251/4/3 250/4/3
f 256/4/3 251/4/3 255/4/3
f 257/4/3 251/4/3 256/4/3
f 258/8/3 253/8/3 252/8/3
f 259/4/3 249/4/3 253/4/3
f 259/8/3 253/8/3 258/8/3
f 260/2/3 243/2/3 241/2/3
f 260/4/3 249/4/3 259/4/3
f 260/4/3 241/4/3 249/4/3
f 261/6/3 254/6/3 243/6/3
f 261/2/3 243/2/3 260/2/3
f 262/1/3 255/1/3 254/1/3
f 262/6/3 254/6/3 261/6/3
f 263/4/3 256/4/3 255/4/3
f 263/1/3 255/1/3 262/1/3
f 264/7/3 259/7/3 258/7/3
f 265/4/3 260/4/3 259/4/3
f 265/7/3 259/7/3 264/7/3
f 265/4/3 261/4/3 260/4/3
f 265/4/3 263/4/3 262/4/3
f 265/4/3 262/4/3 261/4/3
f 266/4/3 256/4/3 263/4/3
f 266/4/3 263/4/3 265/4/3
f 266/5/3 257/5/3 256/5/3
f 267/4/3 251/4/3 257/4/3
f 267/5/3 257/5/3 266/5/3
f 268/8/3 265/8/3 264/8/3
f 269/4/3 266/4/3 265/4/3
f 269/8/3 265/8/3 268/8/3
f 269/4/3 267/4/3 266/4/3
f 270/4/3 267/4/3 269/4/3
f 271/4/3 267/4/3 270/4/3
f 272/4/3 267/4/3 271/4/3
f 273/4/3 267/4/3 272/4/3
f 274/4/3 251/4/3 267/4/3
f 274/4/3 267/4/3 273/4/3
f 275/1/3 271/1/3 270/1/3
f 276/1/3 271/1/3 275/1/3
f 277/1/3 273/1/3 272/1/3
f 278/1/3 273/1/3 277/1/3
f 281/5/3 280/5/3 279/5/3
f 282/5/3 280/5/3 281/5/3
f 285/8/3 284/8/3 283/8/3
f 286/8/3 284/8/3 285/8/3
f 287/7/3 286/7/3 285/7/3
f 288/7/3 286/7/3 287/7/3
f 289/8/3 288/8/3 287/8/3
f 290/8/3 288/8/3 289/8/3
f 291/7/3 290/7/3 289/7/3
f 292/7/3 290/7/3 291/7/3
f 295/1/3 293/1/3 292/1/3
f 296/1/3 293/1/3 295/1/3
f 297/7/3 295/7/3 294/7/3
f 298/7/3 295/7/3 297/7/3
f 299/8/3 298/8/3 297/8/3
f 300/8/3 298/8/3 299/8/3
f 301/7/3 300/7/3 299/7/3
f 302/7/3 300/7/3 301/7/3
f 303/8/3 302/8/3 301/8/3
f 304/8/3 302/8/3 303/8/3
f 307/5/3 306/5/3 305/5/3
f 308/5/3 306/5/3 307/5/3
f 309/1/4 310/1/4 313/1/4
f 313/1/4 310/1/4 314/1/4
f 311/1/4 312/1/4 315/1/4
f 315/1/4 312/1/4 316/1/4
f 317/4/4 318/4/4 319/4/4
f 319/4/4 318/4/4 320/4/4
f 319/5/4 320/5/4 321/5/4
f 320/4/4 318/4/4 322/4/4
f 321/5/4 320/5/4 322/5/4
f 321/4/4 322/4/4 323/4/4
f 322/4/4 318/4/4 324/4/4
f 323/4/4 322/4/4 324/4/4
f 325/4/4 326/4/4 327/4/4
f 327/4/4 326/4/4 328/4/4
f 327/5/4 328/5/4 329/5/4
f 328/4/4 326/4/4 330/4/4
f 329/5/4 328/5/4 330/5/4
f 329/4/4 330/4/4 335/4/4
f 330/4/4 326/4/4 336/4/4
f 335/4/4 330/4/4 336/4/4
f 331/1/4 332/1/4 337/1/4
f 337/1/4 332/1/4 338/1/4
f 333/1/4 334/1/4 339/1/4
f 339/1/4 334/1/4 340/1/4
f 341/7/4 342/7/4 343/7/4
f 343/7/4 342/7/4 344/7/4
f 344/1/4 345/1/4 347/1/4
f 347/1/4 345/1/4 348/1/4
f 346/7/4 347/7/4 349/7/4
f 349/7/4 347/7/4 350/7/4
f 351/7/4 352/7/4 354/7/4
f 352/4/4 353/4/4 355/4/4
f 354/7/4 352/7/4 355/7/4
f 355/4/4 353/4/4 356/4/4
f 356/4/4 353/4/4 357/4/4
f 357/4/4 353/4/4 358/4/4
f 358/4/4 353/4/4 359/4/4
f 359/4/4 353/4/4 360/4/4
f 360/4/4 353/4/4 361/4/4
f 361/4/4 353/4/4 362/4/4
f 362/4/4 353/4/4 363/4/4
f 363/4/4 353/4/4 364/4/4
f 356/4/4 357/4/4 365/4/4
f 355/1/4 356/1/4 374/1/4
f 371/4/4 372/4/4 375/4/4
f 356/4/4 365/4/4 375/4/4
f 374/1/4 356/1/4 375/1/4
f 365/4/4 366/4/4 375/4/4
f 370/4/4 371/4/4 375/4/4
f 369/4/4 370/4/4 375/4/4
f 368/4/4 369/4/4 375/4/4
f 367/4/4 368/4/4 375/4/4
f 366/4/4 367/4/4 375/4/4
f 373/7/4 374/7/4 376/7/4
f 374/4/4 375/4/4 377/4/4
f 376/7/4 374/7/4 377/7/4
f 375/4/4 372/4/4 378/4/4
f 377/4/4 375/4/4 378/4/4
f 379/4/4 380/4/4 391/4/4
f 380/5/4 381/5/4 392/5/4
f 391/4/4 380/4/4 392/4/4
f 381/4/4 382/4/4 393/4/4
f 392/5/4 381/5/4 393/5/4
f 382/5/4 383/5/4 394/5/4
f 393/4/4 382/4/4 394/4/4
f 383/4/4 384/4/4 395/4/4
f 394/5/4 383/5/4 395/5/4
f 384/5/4 385/5/4 396/5/4
f 395/4/4 384/4/4 396/4/4
f 385/4/4 386/4/4 397/4/4
f 396/5/4 385/5/4 397/5/4
f 386/5/4 387/5/4 398/5/4
f 397/4/4 386/4/4 398/4/4
f 387/4/4 388/4/4 399/4/4
f 398/5/4 387/5/4 399/5/4
f 388/5/4 389/5/4 400/5/4
f 399/4/4 388/4/4 400/4/4
f 389/4/4 390/4/4 401/4/4
f 400/5/4 389/5/4 401/5/4
f 401/4/4 390/4/4 402/4/4
f 413/8/5 404/8/5 403/8/5
f 414/7/5 405/7/5 404/7/5
f 414/8/5 404/8/5 413/8/5
f 415/8/5 406/8/5 405/8/5
f 415/7/5 405/7/5 414/7/5
f 416/7/5 407/7/5 406/7/5
f 416/8/5 406/8/5 415/8/5
f 417/7/5 409/7/5 408/7/5
f 417/8/5 410/8/5 409/8/5
f 418/7/5 411/7/5 410/7/5
f 418/8/5 410/8/5 417/8/5
f 419/8/5 412/8/5 411/8/5
f 419/7/5 411/7/5 418/7/5
f 420/8/5 412/8/5 419/8/5
f 421/7/5 414/7/5 413/7/5
f 421/7/5 415/7/5 414/7/5
f 421/7/5 416/7/5 415/7/5
f 422/7/5 407/7/5 416/7/5
f 422/7/5 416/7/5 421/7/5
f 423/7/5 418/7/5 417/7/5
f 423/7/5 420/7/5 419/7/5
f 423/7/5 417/7/5 408/7/5
f 423/7/5 419/7/5 418/7/5
f 424/7/5 420/7/5 423/7/5
f 435/8/5 426/8/5 425/8/5
f 436/7/5 427/7/5 426/7/5
f 436/8/5 426/8/5 435/8/5
f 437/8/5 428/8/5 427/8/5
f 437/7/5 427/7/5 436/7/5
f 438/7/5 429/7/5 428/7/5
f 438/8/5 428/8/5 437/8/5
f 439/7/5 431/7/5 430/7/5
f 439/8/5 432/8/5 431/8/5
f 440/7/5 433/7/5 432/7/5
f 440/8/5 432/8/5 439/8/5
f 441/8/5 434/8/5 433/8/5
f 441/7/5 433/7/5 440/7/5
f 442/8/5 434/8/5 441/8/5
f 443/7/5 436/7/5 435/7/5
f 443/7/5 437/7/5 436/7/5
f 443/7/5 438/7/5 437/7/5
f 444/7/5 429/7/5 438/7/5
f 444/7/5 438/7/5 443/7/5
f 445/7/5 440/7/5 439/7/5
f 445/7/5 442/7/5 441/7/5
f 445/7/5 439/7/5 430/7/5
f 445/7/5 441/7/5 440/7/5
f 446/7/5 442/7/5 445/7/5
f 450/1/5 448/1/5 447/1/5
f 451/1/5 448/1/5 450/1/5
f 453/1/5 450/1/5 449/1/5
f 454/1/5 450/1/5 453/1/5
f 455/1/5 450/1/5 454/1/5
f 456/1/5 450/1/5 455/1/5
f 457/1/5 450/1/5 456/1/5
f 458/1/5 452/1/5 451/1/5
f 459/1/5 452/1/5 458/1/5
f 460/1/5 452/1/5 459/1/5
f 461/1/5 452/1/5 460/1/5
f 462/1/5 452/1/5 461/1/5
f 463/1/5 458/1/5 457/1/5
f 464/1/5 458/1/5 463/1/5
f 467/1/5 466/1/5 465/1/5
f 468/1/5 466/1/5 467/1/5
f 473/1/5 470/1/5 469/1/5
f 474/1/5 470/1/5 473/1/5
f 475/1/5 472/1/5 471/1/5
f 476/1/5 472/1/5 475/1/5
f 481/1/5 478/1/5 477/1/5
f 482/1/5 478/1/5 481/1/5
f 485/1/5 480/1/5 479/1/5
f 486/1/5 480/1/5 485/1/5
f 487/1/5 484/1/5 483/1/5
f 488/1/5 484/1/5 487/1/5
f 491/4/5 490/4/5 489/4/5
f 492/4/5 490/4/5 491/4/5
f 497/1/5 494/1/5 493/1/5
f 498/1/5 494/1/5 497/1/5
f 499/1/5 496/1/5 495/1/5
f 500/1/5 496/1/5 499/1/5
f 503/5/5 502/5/5 501/5/5
f 504/5/5 502/5/5 503/5/5
f 505/4/5 504/4/5 503/4/5
f 506/4/5 504/4/5 505/4/5
f 507/5/5 506/5/5 505/5/5
f 508/5/5 506/5/5 507/5/5
f 509/4/5 508/4/5 507/4/5
f 510/4/5 508/4/5 509/4/5
f 511/5/5 510/5/5 509/5/5
f 512/5/5 510/5/5 511/5/5
f 513/1/6 514/1/6 517/1/6
f 517/1/6 514/1/6 518/1/6
f 515/1/6 516/1/6 519/1/6
f 519/1/6 516/1/6 520/1/6
f 521/1/6 522/1/6 525/1/6
f 522/3/6 523/3/6 526/3/6
f 525/1/6 522/1/6 526/1/6
f 523/1/6 524/1/6 527/1/6
f 526/3/6 523/3/6 527/3/6
f 527/1/6 524/1/6 528/1/6
f 529/1/6 530/1/6 533/1/6
f 533/1/6 530/1/6 534/1/6
f 531/1/6 532/1/6 535/1/6
f 535/1/6 532/1/6 536/1/6
f 537/4/6 538/4/6 542/4/6
f 542/4/6 538/4/6 543/4/6
f 540/4/6 541/4/6 547/4/6
f 545/4/6 546/4/6 547/4/6
f 544/4/6 545/4/6 547/4/6
f 543/4/6 544/4/6 547/4/6
f 542/4/6 543/4/6 547/4/6
f 541/4/6 542/4/6 547/4/6
f 539/4/6 540/4/6 547/4/6
f 547/4/6 546/4/6 548/4/6
f 539/4/6 547/4/6 549/4/6
f 547/5/6 548/5/6 549/5/6
f 548/4/6 546/4/6 550/4/6
f 549/5/6 548/5/6 550/5/6
f 539/4/6 549/4/6 551/4/6
f 549/4/6 550/4/6 551/4/6
f 550/4/6 546/4/6 552/4/6
f 551/4/6 550/4/6 552/4/6
f 539/4/6 551/4/6 553/4/6
f 551/5/6 552/5/6 553/5/6
f 552/4/6 546/4/6 554/4/6
f 553/5/6 552/5/6 554/5/6
f 539/4/6 553/4/6 555/4/6
f 553/4/6 554/4/6 555/4/6
f 554/4/6 546/4/6 556/4/6
f 555/4/6 554/4/6 556/4/6
f 539/4/6 555/4/6 557/4/6
f 555/5/6 556/5/6 557/5/6
f 556/4/6 546/4/6 558/4/6
f 557/5/6 556/5/6 558/5/6
f 539/4/6 557/4/6 559/4/6
f 557/4/6 558/4/6 559/4/6
f 559/4/6 558/4/6 560/4/6
f 560/4/6 558/4/6 561/4/6
f 558/4/6 546/4/6 562/4/6
f 561/4/6 558/4/6 562/4/6
f 563/4/6 564/4/6 567/4/6
f 567/4/6 564/4/6 568/4/6
f 565/4/6 566/4/6 569/4/6
f 569/4/6 566/4/6 570/4/6
f 571/5/6 572/5/6 573/5/6
f 573/5/6 572/5/6 574/5/6
f 573/4/6 574/4/6 575/4/6
f 575/4/6 574/4/6 576/4/6
f 575/5/6 576/5/6 577/5/6
f 577/5/6 576/5/6 578/5/6
f 577/4/6 578/4/6 579/4/6
f 579/4/6 578/4/6 580/4/6
f 579/5/6 580/5/6 581/5/6
f 581/5/6 580/5/6 582/5/6
f 581/4/6 582/4/6 583/4/6
f 583/4/6 582/4/6 584/4/6
f 583/5/6 584/5/6 585/5/6
f 585/5/6 584/5/6 586/5/6
f 585/4/6 586/4/6 587/4/6
f 587/4/6 586/4/6 588/4/6
